<svg width="26" height="26" viewBox="0 0 26 26" fill="none" xmlns="http://www.w3.org/2000/svg">
<path d="M12.9993 24.6452C6.57518 24.6452 1.35352 19.4235 1.35352 12.9993C1.35352 6.57518 6.57518 1.35352 12.9993 1.35352C19.4235 1.35352 24.6452 6.57518 24.6452 12.9993C24.6452 19.4235 19.4235 24.6452 12.9993 24.6452ZM12.9993 2.97852C7.47435 2.97852 2.97852 7.47435 2.97852 12.9993C2.97852 18.5243 7.47435 23.0202 12.9993 23.0202C18.5243 23.0202 23.0202 18.5243 23.0202 12.9993C23.0202 7.47435 18.5243 2.97852 12.9993 2.97852Z" fill="#1560BD"/>
<path d="M17.3327 13.8125H8.66602C8.22185 13.8125 7.85352 13.4442 7.85352 13C7.85352 12.5558 8.22185 12.1875 8.66602 12.1875H17.3327C17.7769 12.1875 18.1452 12.5558 18.1452 13C18.1452 13.4442 17.7769 13.8125 17.3327 13.8125Z" fill="#1560BD"/>
<path d="M13 18.1452C12.5558 18.1452 12.1875 17.7769 12.1875 17.3327V8.66602C12.1875 8.22185 12.5558 7.85352 13 7.85352C13.4442 7.85352 13.8125 8.22185 13.8125 8.66602V17.3327C13.8125 17.7769 13.4442 18.1452 13 18.1452Z" fill="#1560BD"/>
</svg>
