<svg width="30" height="30" viewBox="0 0 30 30" fill="none" xmlns="http://www.w3.org/2000/svg">
<g id="vuesax/outline/arrow-left">
<g id="arrow-left">
<path id="Vector" d="M11.9633 23.5254C11.7258 23.5254 11.4883 23.4379 11.3008 23.2504L3.71328 15.6629C3.35078 15.3004 3.35078 14.7004 3.71328 14.3379L11.3008 6.75039C11.6633 6.38789 12.2633 6.38789 12.6258 6.75039C12.9883 7.11289 12.9883 7.71289 12.6258 8.07539L5.70078 15.0004L12.6258 21.9254C12.9883 22.2879 12.9883 22.8879 12.6258 23.2504C12.4508 23.4379 12.2008 23.5254 11.9633 23.5254Z" fill="#1560BD"/>
<path id="Vector_2" d="M25.6234 15.9375H4.58594C4.07344 15.9375 3.64844 15.5125 3.64844 15C3.64844 14.4875 4.07344 14.0625 4.58594 14.0625H25.6234C26.1359 14.0625 26.5609 14.4875 26.5609 15C26.5609 15.5125 26.1359 15.9375 25.6234 15.9375Z" fill="#1560BD"/>
</g>
</g>
</svg>
