<?xml version="1.0" encoding="utf-8"?>
<svg width="51" height="51" viewBox="0 0 51 51" fill="none" xmlns="http://www.w3.org/2000/svg">
  <path d="M 33.018 7.02 C 32.615 7.02 32.213 7.167 31.895 7.483 L 18.083 21.199 C 15.838 23.429 15.838 27.089 18.083 29.319 L 31.895 43.035 C 32.509 43.645 33.526 43.645 34.14 43.035 C 34.755 42.425 34.755 41.415 34.14 40.805 L 20.329 27.089 C 19.312 26.079 19.312 24.438 20.329 23.429 L 34.14 9.713 C 34.755 9.103 34.755 8.093 34.14 7.483 C 33.823 7.188 33.42 7.02 33.018 7.02 Z" fill="#D9D9D9" style="transform-box: fill-box; transform-origin: 50% 50%;" transform="matrix(0, 1, -1, 0, -0.000002, 0)"/>
</svg>