<?xml version="1.0" encoding="utf-8"?>
<svg width="51" height="51" viewBox="0 0 51 51" fill="none" xmlns="http://www.w3.org/2000/svg">
  <path d="M 17.983 7.023 C 18.385 7.023 18.788 7.17 19.106 7.486 L 32.916 21.201 C 35.161 23.43 35.161 27.09 32.916 29.32 L 19.106 43.035 C 18.491 43.645 17.475 43.645 16.86 43.035 C 16.246 42.425 16.246 41.415 16.86 40.805 L 30.671 27.09 C 31.687 26.081 31.687 24.44 30.671 23.43 L 16.86 9.716 C 16.246 9.106 16.246 8.096 16.86 7.486 C 17.178 7.191 17.58 7.023 17.983 7.023 Z" fill="#1560BD" style="transform-box: fill-box; transform-origin: 50% 50%;" transform="matrix(0, -1, 1, 0, 0.000001, -0.000002)"/>
</svg>