<svg width="52" height="356" viewBox="0 0 52 356" fill="none" xmlns="http://www.w3.org/2000/svg">
<path d="M36.6 132.28C36.6 136.493 35.2133 139.987 32.44 142.76C29.6667 145.507 26.1867 146.88 22 146.88C17.8133 146.88 14.3467 145.507 11.6 142.76C8.8 140.013 7.4 136.52 7.4 132.28C7.4 129.747 8 127.4 9.2 125.24C10.4 123.08 12.0133 121.387 14.04 120.16L17.6 126.36C16.6133 126.893 15.84 127.693 15.28 128.76C14.6933 129.8 14.4 130.973 14.4 132.28C14.4 134.493 15.1067 136.307 16.52 137.72C17.9333 139.08 19.76 139.76 22 139.76C24.2933 139.76 26.1333 139.08 27.52 137.72C28.9067 136.333 29.6 134.52 29.6 132.28C29.6 130.973 29.32 129.8 28.76 128.76C28.1733 127.693 27.3733 126.893 26.36 126.36L29.96 120.16C32.0133 121.387 33.64 123.08 34.84 125.24C36.0133 127.373 36.6 129.72 36.6 132.28ZM8 118.741L8 97.7406H14.92L14.92 104.661L36 104.661V111.821L14.92 111.821L14.92 118.741H8ZM36 71.8359V79.5559L31.96 80.7559L31.96 90.0759L36 91.2759V99.0359L8 89.7959L8 81.0759L36 71.8359ZM16.28 85.4359L25.8 88.2359L25.8 82.5959L16.28 85.4359ZM8 73.0922L8 52.0922H14.92L14.92 59.0122L36 59.0122V66.1722L14.92 66.1722L14.92 73.0922H8ZM16.4 41.8353V38.1153C16.4 35.2886 17.32 32.9153 19.16 30.9953C21 29.0753 23.3467 28.1153 26.2 28.1153C29.0533 28.1153 31.4 29.0753 33.24 30.9953C35.08 32.9153 36 35.2886 36 38.1153L36 48.9953L8 48.9953L8 41.8353H16.4ZM29.16 41.8353V38.1153C29.16 37.3153 28.8933 36.6486 28.36 36.1153C27.8 35.5553 27.08 35.2753 26.2 35.2753C25.32 35.2753 24.6 35.5553 24.04 36.1153C23.48 36.6486 23.2 37.3153 23.2 38.1153V41.8353L29.16 41.8353ZM36 2.26344V9.38344H21.92L36 19.2634L36 24.8234L8 24.8234L8 17.6634H22.08L8 7.78344L8 2.26344H36Z" fill="#D9D9D9" fill-opacity="0.75"/>
<path d="M38.6 340.28C38.6 344.493 37.2133 347.987 34.44 350.76C31.6667 353.507 28.1867 354.88 24 354.88C19.8133 354.88 16.3467 353.507 13.6 350.76C10.8 348.013 9.4 344.52 9.4 340.28C9.4 337.747 10 335.4 11.2 333.24C12.4 331.08 14.0133 329.387 16.04 328.16L19.6 334.36C18.6133 334.893 17.84 335.693 17.28 336.76C16.6933 337.8 16.4 338.973 16.4 340.28C16.4 342.493 17.1067 344.307 18.52 345.72C19.9333 347.08 21.76 347.76 24 347.76C26.2933 347.76 28.1333 347.08 29.52 345.72C30.9067 344.333 31.6 342.52 31.6 340.28C31.6 338.973 31.32 337.8 30.76 336.76C30.1733 335.693 29.3733 334.893 28.36 334.36L31.96 328.16C34.0133 329.387 35.64 331.08 36.84 333.24C38.0133 335.373 38.6 337.72 38.6 340.28ZM10 326.741L10 305.741H16.92V312.661H38V319.821H16.92L16.92 326.741H10ZM38 279.836V287.556L33.96 288.756L33.96 298.076L38 299.276V307.036L10 297.796L10 289.076L38 279.836ZM18.28 293.436L27.8 296.236L27.8 290.596L18.28 293.436ZM10 281.092L10 260.092H16.92V267.012H38V274.172H16.92L16.92 281.092H10ZM18.4 249.835V246.115C18.4 243.289 19.32 240.915 21.16 238.995C23 237.075 25.3467 236.115 28.2 236.115C31.0533 236.115 33.4 237.075 35.24 238.995C37.08 240.915 38 243.289 38 246.115L38 256.995H10L10 249.835H18.4ZM31.16 249.835V246.115C31.16 245.315 30.8933 244.649 30.36 244.115C29.8 243.555 29.08 243.275 28.2 243.275C27.32 243.275 26.6 243.555 26.04 244.115C25.48 244.649 25.2 245.315 25.2 246.115V249.835H31.16ZM38 210.263V217.383H23.92L38 227.263L38 232.823H10L10 225.663H24.08L10 215.783L10 210.263H38Z" fill="#D9D9D9" fill-opacity="0.75"/>
<path d="M25 170L26.7961 175.528H32.6085L27.9062 178.944L29.7023 184.472L25 181.056L20.2977 184.472L22.0938 178.944L17.3915 175.528H23.2039L25 170Z" fill="#D9D9D9" fill-opacity="0.75"/>
</svg>
