<svg width="52" height="312" viewBox="0 0 52 312" fill="none" xmlns="http://www.w3.org/2000/svg">
<path d="M18.32 116.64V112.24C18.32 109.413 19.12 107.133 20.72 105.4C22.32 103.693 24.4533 102.84 27.12 102.84C29.7867 102.84 31.9333 103.693 33.56 105.4C35.1867 107.107 36 109.387 36 112.24L36 123.8L8 123.8L8 105.24H14.92L14.92 116.64H18.32ZM29.44 116.64V112.52C29.44 110.813 28.6667 109.96 27.12 109.96C26.3467 109.96 25.76 110.187 25.36 110.64C24.96 111.093 24.76 111.72 24.76 112.52V116.64L29.44 116.64ZM8 99.6281L8 88.7481C8 85.9215 8.92 83.5481 10.76 81.6281C12.6 79.7081 14.9467 78.7481 17.8 78.7481C20.6533 78.7481 23 79.7081 24.84 81.6281C26.68 83.5481 27.6 85.9215 27.6 88.7481V92.4681L36 92.4681V99.6281L8 99.6281ZM20.8 92.4681V88.7481C20.8 87.9481 20.52 87.2815 19.96 86.7481C19.4 86.1881 18.68 85.9081 17.8 85.9081C16.92 85.9081 16.2133 86.1881 15.68 86.7481C15.12 87.2815 14.84 87.9481 14.84 88.7481V92.4681H20.8ZM25.16 68.2962H29.28L29.28 57.4563H36L36 75.4562L8 75.4562L8 57.6562H14.68L14.68 68.2962H18.56L18.56 58.6562L25.16 58.6562L25.16 68.2962ZM18.36 38.51H8L8 31.39L36 31.39V38.51H25.24L25.24 46.39H36V53.55L8 53.55L8 46.39H18.36L18.36 38.51ZM8 3.88844L29.08 3.88844L29.08 0.888437H41.36V8.00844H36V21.0884H41.36L41.36 28.2484H29.08L29.08 25.2884C27.0267 24.0084 24.0667 23.3684 20.2 23.3684H8L8 3.88844ZM29.08 17.8484L29.08 11.0084L14.64 11.0084L14.64 16.2484H20.28C24.04 16.2484 26.9733 16.7818 29.08 17.8484Z" fill="#D9D9D9" fill-opacity="0.75"/>
<path d="M20.32 302.156V297.756C20.32 294.929 21.12 292.649 22.72 290.916C24.32 289.209 26.4533 288.356 29.12 288.356C31.7867 288.356 33.9333 289.209 35.56 290.916C37.1867 292.622 38 294.902 38 297.756L38 309.316H10L10 290.756H16.92L16.92 302.156H20.32ZM31.44 302.156V298.036C31.44 296.329 30.6667 295.476 29.12 295.476C28.3467 295.476 27.76 295.702 27.36 296.156C26.96 296.609 26.76 297.236 26.76 298.036V302.156H31.44ZM10 285.144L10 274.264C10 271.437 10.92 269.064 12.76 267.144C14.6 265.224 16.9467 264.264 19.8 264.264C22.6533 264.264 25 265.224 26.84 267.144C28.68 269.064 29.6 271.437 29.6 274.264V277.984H38V285.144H10ZM22.8 277.984V274.264C22.8 273.464 22.52 272.797 21.96 272.264C21.4 271.704 20.68 271.424 19.8 271.424C18.92 271.424 18.2133 271.704 17.68 272.264C17.12 272.797 16.84 273.464 16.84 274.264V277.984H22.8ZM27.16 253.812H31.28L31.28 242.972H38L38 260.972H10L10 243.172H16.68L16.68 253.812H20.56L20.56 244.172H27.16L27.16 253.812ZM20.36 224.026H10L10 216.906H38V224.026H27.24L27.24 231.906H38V239.066H10L10 231.906H20.36L20.36 224.026ZM10 189.404H31.08L31.08 186.404H43.36V193.524H38V206.604H43.36L43.36 213.764H31.08L31.08 210.804C29.0267 209.524 26.0667 208.884 22.2 208.884H10L10 189.404ZM31.08 203.364L31.08 196.524H16.64V201.764H22.28C26.04 201.764 28.9733 202.297 31.08 203.364Z" fill="#D9D9D9" fill-opacity="0.75"/>
<path d="M25 148L26.7961 153.528H32.6085L27.9062 156.944L29.7023 162.472L25 159.056L20.2977 162.472L22.0938 156.944L17.3915 153.528H23.2039L25 148Z" fill="#D9D9D9" fill-opacity="0.75"/>
</svg>
