<svg width="52" height="384" viewBox="0 0 52 384" fill="none" xmlns="http://www.w3.org/2000/svg">
<path d="M18.32 152.64V148.24C18.32 145.413 19.12 143.133 20.72 141.4C22.32 139.693 24.4533 138.84 27.12 138.84C29.7867 138.84 31.9333 139.693 33.56 141.4C35.1867 143.107 36 145.387 36 148.24L36 159.8H8L8 141.24H14.92L14.92 152.64H18.32ZM29.44 152.64V148.52C29.44 146.813 28.6667 145.96 27.12 145.96C26.3467 145.96 25.76 146.187 25.36 146.64C24.96 147.093 24.76 147.72 24.76 148.52V152.64H29.44ZM8 135.628L8 124.748C8 121.921 8.92 119.548 10.76 117.628C12.6 115.708 14.9467 114.748 17.8 114.748C20.6533 114.748 23 115.708 24.84 117.628C26.68 119.548 27.6 121.921 27.6 124.748V128.468H36V135.628H8ZM20.8 128.468V124.748C20.8 123.948 20.52 123.281 19.96 122.748C19.4 122.188 18.68 121.908 17.8 121.908C16.92 121.908 16.2133 122.188 15.68 122.748C15.12 123.281 14.84 123.948 14.84 124.748V128.468H20.8ZM25.16 104.296H29.28L29.28 93.4563H36L36 111.456L8 111.456L8 93.6562H14.68L14.68 104.296H18.56L18.56 94.6562L25.16 94.6562L25.16 104.296ZM18.36 74.51H8L8 67.39L36 67.39V74.51H25.24L25.24 82.39H36V89.55L8 89.55L8 82.39H18.36L18.36 74.51ZM8 39.8884L29.08 39.8884L29.08 36.8884H41.36V44.0084H36V57.0884H41.36L41.36 64.2484H29.08L29.08 61.2884C27.0267 60.0084 24.0667 59.3684 20.2 59.3684H8L8 39.8884ZM29.08 53.8484L29.08 47.0084L14.64 47.0084L14.64 52.2484H20.28C24.04 52.2484 26.9733 52.7818 29.08 53.8484ZM36 22.5919V33.4719H8L8 26.3119H16.4V22.5919C16.4 19.7385 17.3333 17.3652 19.2 15.4719C21.04 13.5519 23.3733 12.5919 26.2 12.5919C29.0533 12.5919 31.4 13.5519 33.24 15.4719C35.08 17.3919 36 19.7652 36 22.5919ZM36 3.15187V10.2719H8L8 3.15187H36ZM23.24 26.3119H29.2V22.5919C29.2 21.7919 28.92 21.1252 28.36 20.5919C27.8 20.0319 27.08 19.7519 26.2 19.7519C25.32 19.7519 24.6133 20.0319 24.08 20.5919C23.52 21.1252 23.24 21.7919 23.24 22.5919V26.3119Z" fill="#D9D9D9" fill-opacity="0.75"/>
<path d="M20.32 374.64V370.24C20.32 367.413 21.12 365.133 22.72 363.4C24.32 361.693 26.4533 360.84 29.12 360.84C31.7867 360.84 33.9333 361.693 35.56 363.4C37.1867 365.107 38 367.387 38 370.24L38 381.8H10L10 363.24H16.92L16.92 374.64H20.32ZM31.44 374.64V370.52C31.44 368.813 30.6667 367.96 29.12 367.96C28.3467 367.96 27.76 368.187 27.36 368.64C26.96 369.093 26.76 369.72 26.76 370.52V374.64H31.44ZM10 357.628L10 346.748C10 343.921 10.92 341.548 12.76 339.628C14.6 337.708 16.9467 336.748 19.8 336.748C22.6533 336.748 25 337.708 26.84 339.628C28.68 341.548 29.6 343.921 29.6 346.748V350.468H38V357.628H10ZM22.8 350.468V346.748C22.8 345.948 22.52 345.281 21.96 344.748C21.4 344.188 20.68 343.908 19.8 343.908C18.92 343.908 18.2133 344.188 17.68 344.748C17.12 345.281 16.84 345.948 16.84 346.748V350.468H22.8ZM27.16 326.296H31.28L31.28 315.456H38L38 333.456H10L10 315.656H16.68L16.68 326.296H20.56L20.56 316.656H27.16L27.16 326.296ZM20.36 296.51H10L10 289.39H38V296.51H27.24L27.24 304.39H38V311.55H10L10 304.39H20.36L20.36 296.51ZM10 261.888H31.08L31.08 258.888H43.36V266.008H38V279.088H43.36L43.36 286.248H31.08L31.08 283.288C29.0267 282.008 26.0667 281.368 22.2 281.368H10L10 261.888ZM31.08 275.848L31.08 269.008H16.64V274.248H22.28C26.04 274.248 28.9733 274.782 31.08 275.848ZM38 244.592V255.472H10L10 248.312H18.4V244.592C18.4 241.739 19.3333 239.365 21.2 237.472C23.04 235.552 25.3733 234.592 28.2 234.592C31.0533 234.592 33.4 235.552 35.24 237.472C37.08 239.392 38 241.765 38 244.592ZM38 225.152V232.272H10L10 225.152H38ZM25.24 248.312H31.2V244.592C31.2 243.792 30.92 243.125 30.36 242.592C29.8 242.032 29.08 241.752 28.2 241.752C27.32 241.752 26.6133 242.032 26.08 242.592C25.52 243.125 25.24 243.792 25.24 244.592V248.312Z" fill="#D9D9D9" fill-opacity="0.75"/>
<path d="M25 184L26.7961 189.528H32.6085L27.9062 192.944L29.7023 198.472L25 195.056L20.2977 198.472L22.0938 192.944L17.3915 189.528H23.2039L25 184Z" fill="#D9D9D9" fill-opacity="0.75"/>
</svg>
