<svg width="17" height="17" viewBox="0 0 17 17" fill="none" xmlns="http://www.w3.org/2000/svg">
<path d="M3.88283 13.6807C3.45532 13.6807 3.05584 13.5335 2.7685 13.2602C2.40407 12.9168 2.22886 12.3982 2.29194 11.8375L2.55124 9.56683C2.6003 9.13932 2.85961 8.57165 3.16097 8.26328L8.91481 2.17304C10.3515 0.652232 11.8513 0.610182 13.3721 2.04689C14.8929 3.4836 14.935 4.98338 13.4983 6.50419L7.74442 12.5944C7.45007 12.9098 6.90342 13.2042 6.47591 13.2742L4.21923 13.6597C4.10009 13.6667 3.99496 13.6807 3.88283 13.6807ZM11.1645 2.03988C10.6248 2.03988 10.1553 2.37628 9.67872 2.88088L3.92488 8.97813C3.78471 9.12531 3.62352 9.47572 3.59549 9.67897L3.33618 11.9497C3.30814 12.1809 3.36421 12.3702 3.49036 12.4893C3.61651 12.6084 3.80574 12.6505 4.03701 12.6155L6.29369 12.23C6.49693 12.195 6.83333 12.0127 6.9735 11.8656L12.7273 5.77532C13.5964 4.85022 13.9118 3.99521 12.6432 2.80379C12.0826 2.26415 11.599 2.03988 11.1645 2.03988Z" fill="#1560BD"/>
<path d="M12.1532 7.67483C12.1392 7.67483 12.1182 7.67483 12.1042 7.67483C9.91757 7.45757 8.15848 5.7966 7.82208 3.62401C7.78003 3.33667 7.97626 3.07035 8.2636 3.0213C8.55094 2.97925 8.81726 3.17548 8.86632 3.46282C9.13264 5.15884 10.5063 6.46239 12.2163 6.63059C12.5036 6.65862 12.7139 6.91793 12.6859 7.20527C12.6508 7.47159 12.4195 7.67483 12.1532 7.67483Z" fill="#1560BD"/>
<path d="M14.7168 15.9438H2.1018C1.81446 15.9438 1.57617 15.7055 1.57617 15.4182C1.57617 15.1309 1.81446 14.8926 2.1018 14.8926H14.7168C15.0041 14.8926 15.2424 15.1309 15.2424 15.4182C15.2424 15.7055 15.0041 15.9438 14.7168 15.9438Z" fill="#1560BD"/>
</svg>
