<svg width="17" height="17" viewBox="0 0 17 17" fill="none" xmlns="http://www.w3.org/2000/svg">
<path d="M10.5134 15.9449H6.30841C2.50289 15.9449 0.876953 14.3189 0.876953 10.5134V6.30841C0.876953 2.50289 2.50289 0.876953 6.30841 0.876953H9.81258C10.0999 0.876953 10.3382 1.11524 10.3382 1.40258C10.3382 1.68992 10.0999 1.9282 9.81258 1.9282H6.30841C3.07757 1.9282 1.9282 3.07757 1.9282 6.30841V10.5134C1.9282 13.7443 3.07757 14.8936 6.30841 14.8936H10.5134C13.7443 14.8936 14.8936 13.7443 14.8936 10.5134V7.00924C14.8936 6.7219 15.1319 6.48362 15.4192 6.48362C15.7066 6.48362 15.9449 6.7219 15.9449 7.00924V10.5134C15.9449 14.3189 14.3189 15.9449 10.5134 15.9449Z" fill="#1560BD"/>
<path d="M15.4174 7.53383H12.6141C10.2173 7.53383 9.28516 6.60173 9.28516 4.20488V1.40154C9.28516 1.19129 9.41131 0.99506 9.60754 0.917969C9.80377 0.833869 10.028 0.882927 10.1822 1.0301L15.7889 6.63677C15.9361 6.78394 15.9851 7.01522 15.901 7.21145C15.8169 7.40768 15.6277 7.53383 15.4174 7.53383ZM10.3364 2.67005V4.20488C10.3364 6.01303 10.806 6.48258 12.6141 6.48258H14.1489L10.3364 2.67005Z" fill="#1560BD"/>
</svg>
