<svg width="16" height="16" viewBox="0 0 16 16" fill="none" xmlns="http://www.w3.org/2000/svg">
<path d="M7.60065 15.166H5.06732C2.14065 15.166 0.833984 13.8593 0.833984 10.9327V8.39935C0.833984 5.47268 2.14065 4.16602 5.06732 4.16602H7.06732C7.34065 4.16602 7.56732 4.39268 7.56732 4.66602C7.56732 4.93935 7.34065 5.16602 7.06732 5.16602H5.06732C2.68065 5.16602 1.83398 6.01268 1.83398 8.39935V10.9327C1.83398 13.3193 2.68065 14.166 5.06732 14.166H7.60065C9.98732 14.166 10.834 13.3193 10.834 10.9327V8.93268C10.834 8.65935 11.0607 8.43268 11.334 8.43268C11.6073 8.43268 11.834 8.65935 11.834 8.93268V10.9327C11.834 13.8593 10.5273 15.166 7.60065 15.166Z" fill="#1560BD"/>
<path d="M11.3331 9.43365H9.19974C7.32641 9.43365 6.56641 8.67365 6.56641 6.80032V4.66698C6.56641 4.46698 6.68641 4.28032 6.87307 4.20698C7.05974 4.12698 7.27307 4.17365 7.41974 4.31365L11.6864 8.58032C11.8264 8.72032 11.8731 8.94032 11.7931 9.12698C11.7197 9.31365 11.5331 9.43365 11.3331 9.43365ZM7.56641 5.87365V6.80032C7.56641 8.12698 7.87307 8.43365 9.19974 8.43365H10.1264L7.56641 5.87365Z" fill="#1560BD"/>
<path d="M10.3991 1.83398H7.73242C7.45909 1.83398 7.23242 1.60732 7.23242 1.33398C7.23242 1.06065 7.45909 0.833984 7.73242 0.833984H10.3991C10.6724 0.833984 10.8991 1.06065 10.8991 1.33398C10.8991 1.60732 10.6724 1.83398 10.3991 1.83398Z" fill="#1560BD"/>
<path d="M4.66602 3.83398C4.39268 3.83398 4.16602 3.60732 4.16602 3.33398C4.16602 1.95398 5.28602 0.833984 6.66602 0.833984H8.41268C8.68602 0.833984 8.91268 1.06065 8.91268 1.33398C8.91268 1.60732 8.68602 1.83398 8.41268 1.83398H6.66602C5.83935 1.83398 5.16602 2.50732 5.16602 3.33398C5.16602 3.60732 4.93935 3.83398 4.66602 3.83398Z" fill="#1560BD"/>
<path d="M12.793 11.834C12.5196 11.834 12.293 11.6073 12.293 11.334C12.293 11.0607 12.5196 10.834 12.793 10.834C13.553 10.834 14.1663 10.214 14.1663 9.46065V5.33398C14.1663 5.06065 14.393 4.83398 14.6663 4.83398C14.9396 4.83398 15.1663 5.06065 15.1663 5.33398V9.46065C15.1663 10.7673 14.0996 11.834 12.793 11.834Z" fill="#1560BD"/>
<path d="M14.666 5.833H12.666C10.8927 5.833 10.166 5.10633 10.166 3.333V1.333C10.166 1.133 10.286 0.946334 10.4727 0.873C10.6593 0.793 10.8727 0.839667 11.0193 0.979667L15.0193 4.97967C15.1593 5.11967 15.206 5.33967 15.126 5.52633C15.0527 5.713 14.866 5.833 14.666 5.833ZM11.166 2.53967V3.333C11.166 4.553 11.446 4.833 12.666 4.833H13.4593L11.166 2.53967Z" fill="#1560BD"/>
</svg>
