<svg width="45" height="45" viewBox="0 0 45 45" fill="none" xmlns="http://www.w3.org/2000/svg">
<g id="Group 1795">
<path id="Vector" d="M22.1133 44.3008C9.97747 44.3008 0.113281 34.4366 0.113281 22.3008C0.113281 10.165 9.97747 0.300781 22.1133 0.300781C34.2491 0.300781 44.1133 10.165 44.1133 22.3008C44.1133 34.4366 34.2491 44.3008 22.1133 44.3008Z" fill="#E31E24"/>
<g id="Group 1793">
<path id="Vector_2" d="M28.989 17.6042L17.4122 29.181C16.8189 29.7743 15.8349 29.7743 15.2416 29.181C14.6483 28.5877 14.6483 27.6037 15.2416 27.0104L26.8184 15.4336C27.4117 14.8402 28.3957 14.8402 28.989 15.4336C29.5824 16.0269 29.5824 17.0109 28.989 17.6042Z" fill="#FAFAFA"/>
<path id="Vector_3" d="M28.989 29.1758C28.3957 29.7691 27.4117 29.7691 26.8184 29.1758L15.2416 17.599C14.6483 17.0057 14.6483 16.0217 15.2416 15.4283C15.8349 14.835 16.8189 14.835 17.4122 15.4283L28.989 27.0052C29.5824 27.5985 29.5824 28.5825 28.989 29.1758Z" fill="#FAFAFA"/>
</g>
</g>
</svg>
