<svg width="63" height="63" viewBox="0 0 63 63" fill="none" xmlns="http://www.w3.org/2000/svg">
<path d="M46.669 46.6696C38.0877 55.2509 24.1377 55.2509 15.5563 46.6696C6.97503 38.0883 6.97503 24.1382 15.5563 15.5569C24.1377 6.97562 38.0877 6.97562 46.669 15.5569C55.2504 24.1382 55.2504 38.0883 46.669 46.6696Z" fill="#E31E24"/>
<path d="M37.993 26.4109L26.4161 37.9877C25.8228 38.581 24.8388 38.581 24.2455 37.9877C23.6522 37.3944 23.6522 36.4103 24.2455 35.817L35.8223 24.2402C36.4156 23.6469 37.3996 23.6469 37.993 24.2402C38.5863 24.8335 38.5863 25.8175 37.993 26.4109Z" fill="#FAFAFA"/>
<path d="M37.993 37.9864C37.3996 38.5797 36.4156 38.5797 35.8223 37.9864L24.2455 26.4095C23.6522 25.8162 23.6522 24.8322 24.2455 24.2389C24.8388 23.6456 25.8228 23.6456 26.4161 24.2389L37.993 35.8157C38.5863 36.409 38.5863 37.3931 37.993 37.9864Z" fill="#FAFAFA"/>
</svg>
