<svg width="48" height="48" viewBox="0 0 48 48" fill="none" xmlns="http://www.w3.org/2000/svg">
<path d="M18.0537 30.6734C17.6796 30.6734 17.3055 30.5355 17.0102 30.2402C16.4393 29.6693 16.4393 28.7243 17.0102 28.1534L28.1534 17.0102C28.7243 16.4393 29.6693 16.4393 30.2402 17.0102C30.8112 17.5812 30.8112 18.5262 30.2402 19.0971L19.0971 30.2402C18.8215 30.5355 18.4277 30.6734 18.0537 30.6734Z" fill="#E31E24"/>
<path d="M29.1968 30.6734C28.8227 30.6734 28.4487 30.5355 28.1534 30.2402L17.0102 19.0971C16.4393 18.5262 16.4393 17.5812 17.0102 17.0102C17.5812 16.4393 18.5262 16.4393 19.0971 17.0102L30.2402 28.1534C30.8112 28.7243 30.8112 29.6693 30.2402 30.2402C29.9449 30.5355 29.5709 30.6734 29.1968 30.6734Z" fill="#E31E24"/>
<path d="M29.5312 44.7891H17.7188C7.02844 44.7891 2.46094 40.2216 2.46094 29.5312V17.7188C2.46094 7.02844 7.02844 2.46094 17.7188 2.46094H29.5312C40.2216 2.46094 44.7891 7.02844 44.7891 17.7188V29.5312C44.7891 40.2216 40.2216 44.7891 29.5312 44.7891ZM17.7188 5.41406C8.64281 5.41406 5.41406 8.64281 5.41406 17.7188V29.5312C5.41406 38.6072 8.64281 41.8359 17.7188 41.8359H29.5312C38.6072 41.8359 41.8359 38.6072 41.8359 29.5312V17.7188C41.8359 8.64281 38.6072 5.41406 29.5312 5.41406H17.7188Z" fill="#E31E24"/>
</svg>
