<svg width="17" height="17" viewBox="0 0 17 17" fill="none" xmlns="http://www.w3.org/2000/svg">
<path d="M12.5247 15.327C12.3074 15.327 12.0902 15.2709 11.8939 15.1518L9.08359 13.4838C8.78924 13.4768 8.49488 13.4558 8.21455 13.4137C8.02532 13.3857 7.86413 13.2595 7.79404 13.0773C7.72396 12.8951 7.75901 12.6988 7.88516 12.5517C8.34771 12.012 8.58599 11.3673 8.58599 10.6804C8.58599 8.98443 7.09321 7.60378 5.25703 7.60378C4.57021 7.60378 3.91143 7.79303 3.35777 8.15747C3.20358 8.25558 3.01436 8.26959 2.84616 8.1925C2.68497 8.11541 2.56583 7.96121 2.54481 7.77899C2.52378 7.58276 2.50977 7.38654 2.50977 7.1833C2.50977 3.70716 5.52335 0.882812 9.22375 0.882812C12.9242 0.882812 15.9377 3.70716 15.9377 7.1833C15.9377 9.08956 15.0547 10.8416 13.4988 12.0401L13.7371 13.9464C13.7932 14.4229 13.5829 14.8715 13.1835 15.1308C12.9872 15.2569 12.7559 15.327 12.5247 15.327ZM9.21673 12.4255C9.31485 12.4185 9.41297 12.4466 9.49707 12.5026L12.4336 14.2477C12.5107 14.2968 12.5737 14.2757 12.6158 14.2477C12.6508 14.2267 12.7069 14.1706 12.6929 14.0725L12.4195 11.8578C12.3985 11.6616 12.4826 11.4724 12.6368 11.3603C14.0665 10.3581 14.8865 8.83024 14.8865 7.16927C14.8865 4.27483 12.3495 1.92003 9.22375 1.92003C6.21718 1.92003 3.75024 4.10666 3.56802 6.85393C4.09365 6.65068 4.66133 6.53854 5.25003 6.53854C7.6679 6.53854 9.63023 8.38871 9.63023 10.6664C9.63724 11.2832 9.49006 11.8789 9.21673 12.4255Z" fill="#1560BD"/>
<path d="M3.20958 15.9431C3.02737 15.9431 2.85216 15.894 2.69096 15.7889C2.37559 15.5857 2.2074 15.2353 2.24945 14.8638L2.38961 13.7845C1.44349 13.0136 0.882812 11.8712 0.882812 10.6728C0.882812 9.30617 1.59767 8.03067 2.7961 7.26676C3.51795 6.7972 4.37296 6.54492 5.26302 6.54492C7.6809 6.54492 9.64323 8.39509 9.64323 10.6728C9.64323 11.5979 9.30683 12.509 8.69009 13.2309C7.89815 14.191 6.71375 14.7517 5.4102 14.7937L3.70017 15.8099C3.54598 15.901 3.37778 15.9431 3.20958 15.9431ZM5.25602 7.59617C4.5692 7.59617 3.91041 7.78538 3.35675 8.14981C2.45969 8.7245 1.92706 9.6636 1.92706 10.6728C1.92706 11.647 2.40363 12.537 3.24463 13.1117C3.40582 13.2239 3.48991 13.4131 3.46889 13.6093L3.3147 14.8077L4.9897 13.8126C5.0738 13.7635 5.16491 13.7354 5.25602 13.7354C6.28624 13.7354 7.2604 13.2939 7.87714 12.5441C8.33969 11.9974 8.58497 11.3526 8.58497 10.6658C8.58497 8.97677 7.0922 7.59617 5.25602 7.59617Z" fill="#1560BD"/>
</svg>
