<svg width="14" height="14" viewBox="0 0 14 14" fill="none" xmlns="http://www.w3.org/2000/svg">
<path d="M10.1289 4.86591L4.86671 10.1281C4.59702 10.3978 4.14974 10.3978 3.88005 10.1281C3.61036 9.85841 3.61036 9.41112 3.88005 9.14144L9.14224 3.87925C9.41193 3.60956 9.85921 3.60956 10.1289 3.87925C10.3986 4.14893 10.3986 4.59622 10.1289 4.86591Z" fill="#FAFAFA"/>
<path d="M10.1289 10.1247C9.85921 10.3943 9.41193 10.3943 9.14224 10.1247L3.88005 4.86247C3.61036 4.59278 3.61036 4.1455 3.88005 3.87581C4.14974 3.60612 4.59702 3.60612 4.86671 3.87581L10.1289 9.138C10.3986 9.40769 10.3986 9.85497 10.1289 10.1247Z" fill="#FAFAFA"/>
</svg>
