<svg width="32" height="32" viewBox="0 0 32 32" fill="none" xmlns="http://www.w3.org/2000/svg">
<path d="M19.6646 31.2813H12.4604C4.13771 31.2813 0.421875 27.5654 0.421875 19.2427V12.0386C0.421875 3.71584 4.13771 0 12.4604 0H18.1479C18.9252 0 19.5698 0.644584 19.5698 1.42188C19.5698 2.19917 18.9252 2.84375 18.1479 2.84375H12.4604C5.67334 2.84375 3.26563 5.25146 3.26563 12.0386V19.2427C3.26563 26.0298 5.67334 28.4375 12.4604 28.4375H19.6646C26.4517 28.4375 28.8594 26.0298 28.8594 19.2427V13.5552C28.8594 12.7779 29.504 12.1333 30.2813 12.1333C31.0586 12.1333 31.7032 12.7779 31.7032 13.5552V19.2427C31.7032 27.5654 27.9873 31.2813 19.6646 31.2813Z" fill="#1560BD"/>
<path d="M30.2818 14.9772H24.2151C18.8878 14.9772 16.7266 12.8159 16.7266 7.48862V1.42195C16.7266 0.853196 17.0678 0.322362 17.5986 0.11382C18.1295 -0.11368 18.7361 0.0190283 19.1532 0.417154L31.2866 12.5505C31.6847 12.9486 31.8174 13.5743 31.5899 14.1051C31.3814 14.6359 30.8505 14.9772 30.2818 14.9772ZM19.5703 4.85341V7.48862C19.5703 11.2613 20.4424 12.1334 24.2151 12.1334H26.8503L19.5703 4.85341Z" fill="#1560BD"/>
</svg>
