<svg width="39" height="39" viewBox="0 0 39 39" fill="none" xmlns="http://www.w3.org/2000/svg">
<path d="M18.4061 36.7318H12.2707C5.18265 36.7318 2.01807 33.5672 2.01807 26.4791V20.3437C2.01807 13.2557 5.18265 10.0911 12.2707 10.0911H17.1144C17.7764 10.0911 18.3254 10.6401 18.3254 11.3021C18.3254 11.964 17.7764 12.513 17.1144 12.513H12.2707C6.49046 12.513 4.43994 14.5635 4.43994 20.3437V26.4791C4.43994 32.2594 6.49046 34.3099 12.2707 34.3099H18.4061C24.1863 34.3099 26.2368 32.2594 26.2368 26.4791V21.6354C26.2368 20.9734 26.7858 20.4245 27.4478 20.4245C28.1097 20.4245 28.6587 20.9734 28.6587 21.6354V26.4791C28.6587 33.5672 25.4941 36.7318 18.4061 36.7318Z" fill="#1560BD"/>
<path d="M27.4481 22.8463H22.2814C17.7444 22.8463 15.9038 21.0057 15.9038 16.4687V11.3021C15.9038 10.8177 16.1944 10.3656 16.6465 10.188C17.0986 9.99425 17.6153 10.1073 17.9705 10.4463L28.3038 20.7797C28.6429 21.1187 28.7559 21.6515 28.5621 22.1036C28.3845 22.5557 27.9325 22.8463 27.4481 22.8463ZM18.3257 14.2245V16.4687C18.3257 19.6817 19.0684 20.4245 22.2814 20.4245H24.5257L18.3257 14.2245Z" fill="#1560BD"/>
<path d="M25.1873 4.44012H18.729C18.067 4.44012 17.5181 3.89117 17.5181 3.22919C17.5181 2.56721 18.067 2.01825 18.729 2.01825H25.1873C25.8493 2.01825 26.3983 2.56721 26.3983 3.22919C26.3983 3.89117 25.8493 4.44012 25.1873 4.44012Z" fill="#1560BD"/>
<path d="M11.3022 9.28387C10.6403 9.28387 10.0913 8.73492 10.0913 8.07294C10.0913 4.73075 12.8038 2.01825 16.146 2.01825H20.3762C21.0382 2.01825 21.5871 2.56721 21.5871 3.22919C21.5871 3.89117 21.0382 4.44012 20.3762 4.44012H16.146C14.1439 4.44012 12.5132 6.07085 12.5132 8.07294C12.5132 8.73492 11.9642 9.28387 11.3022 9.28387Z" fill="#1560BD"/>
<path d="M30.9839 28.6589C30.3219 28.6589 29.7729 28.1099 29.7729 27.4479C29.7729 26.786 30.3219 26.237 30.9839 26.237C32.8245 26.237 34.3099 24.7354 34.3099 22.911V12.9167C34.3099 12.2547 34.8589 11.7057 35.5209 11.7057C36.1828 11.7057 36.7318 12.2547 36.7318 12.9167V22.911C36.7318 26.0755 34.1485 28.6589 30.9839 28.6589Z" fill="#1560BD"/>
<path d="M35.521 14.1276H30.6772C26.3825 14.1276 24.6226 12.3677 24.6226 8.07293V3.22918C24.6226 2.74481 24.9132 2.29273 25.3653 2.11512C25.8174 1.92137 26.334 2.03439 26.6892 2.37345L36.3767 12.061C36.7158 12.4 36.8288 12.9328 36.6351 13.3849C36.4575 13.837 36.0054 14.1276 35.521 14.1276ZM27.0444 6.15158V8.07293C27.0444 11.0276 27.7226 11.7057 30.6772 11.7057H32.5986L27.0444 6.15158Z" fill="#1560BD"/>
</svg>
