<svg width="38" height="38" viewBox="0 0 38 38" fill="none" xmlns="http://www.w3.org/2000/svg">
<path d="M8.65611 30.5C7.70298 30.5 6.81236 30.1719 6.17173 29.5625C5.35923 28.7969 4.96861 27.6406 5.10923 26.3906L5.68736 21.3281C5.79673 20.375 6.37486 19.1094 7.04673 18.4219L19.8749 4.84374C23.078 1.45311 26.4217 1.35936 29.8124 4.56249C33.203 7.76561 33.2967 11.1094 30.0936 14.5L17.2655 28.0781C16.6092 28.7812 15.3905 29.4375 14.4374 29.5937L9.40611 30.4531C9.14048 30.4687 8.90611 30.5 8.65611 30.5ZM24.8905 4.54686C23.6874 4.54686 22.6405 5.29686 21.578 6.42186L8.74986 20.0156C8.43736 20.3437 8.07798 21.125 8.01548 21.5781L7.43736 26.6406C7.37486 27.1562 7.49986 27.5781 7.78111 27.8437C8.06236 28.1094 8.48423 28.2031 8.99986 28.125L14.0311 27.2656C14.4842 27.1875 15.2342 26.7812 15.5467 26.4531L28.3749 12.875C30.3124 10.8125 31.0155 8.90624 28.1874 6.24999C26.9374 5.04686 25.8592 4.54686 24.8905 4.54686Z" fill="#1560BD"/>
<path d="M27.0937 17.1094C27.0624 17.1094 27.0156 17.1094 26.9843 17.1094C22.1093 16.625 18.1874 12.9219 17.4374 8.07813C17.3437 7.43751 17.7812 6.84376 18.4218 6.73438C19.0624 6.64063 19.6562 7.07813 19.7656 7.71876C20.3593 11.5 23.4218 14.4063 27.2343 14.7813C27.8749 14.8438 28.3437 15.4219 28.2812 16.0625C28.2031 16.6563 27.6874 17.1094 27.0937 17.1094Z" fill="#1560BD"/>
<path d="M32.8125 35.5469H4.6875C4.04688 35.5469 3.51562 35.0156 3.51562 34.375C3.51562 33.7344 4.04688 33.2031 4.6875 33.2031H32.8125C33.4531 33.2031 33.9844 33.7344 33.9844 34.375C33.9844 35.0156 33.4531 35.5469 32.8125 35.5469Z" fill="#1560BD"/>
</svg>
