<svg width="29" height="30" viewBox="0 0 29 30" fill="none" xmlns="http://www.w3.org/2000/svg">
<path fill-rule="evenodd" clip-rule="evenodd" d="M0 14.8219C0 6.81398 6.49172 0.322266 14.4997 0.322266C22.5076 0.322266 28.9993 6.81398 28.9993 14.8219C28.9993 22.8299 22.5076 29.3216 14.4997 29.3216C6.49172 29.3216 0 22.8299 0 14.8219ZM14.4156 15.4906C13.7713 15.4906 13.1193 15.2911 12.6207 14.8846L10.2197 12.9668C9.9742 12.7674 9.92818 12.4069 10.1276 12.1614C10.3271 11.9159 10.6876 11.8699 10.9331 12.0693L13.334 13.9871C13.917 14.455 14.9066 14.455 15.4896 13.9871L17.8906 12.0693C18.136 11.8699 18.5042 11.9083 18.696 12.1614C18.8954 12.4069 18.8571 12.7751 18.604 12.9668L16.203 14.8846C15.712 15.2911 15.06 15.4906 14.4156 15.4906ZM10.5797 21.9171H18.2506C21.0505 21.9171 22.6614 20.3062 22.6614 17.5063V12.1367C22.6614 9.33684 21.0505 7.72595 18.2506 7.72595H10.5797C7.77983 7.72595 6.16895 9.33684 6.16895 12.1367V17.5063C6.16895 20.3062 7.77983 21.9171 10.5797 21.9171ZM7.31958 12.1367C7.31958 9.94284 8.38583 8.87659 10.5797 8.87659H18.2506C20.4445 8.87659 21.5107 9.94284 21.5107 12.1367V17.5063C21.5107 19.7002 20.4445 20.7665 18.2506 20.7665H10.5797C8.38583 20.7665 7.31958 19.7002 7.31958 17.5063V12.1367Z" fill="#FAFAFA"/>
</svg>
