<svg xmlns="http://www.w3.org/2000/svg" width="30" height="29" fill="none"><rect id="backgroundrect" width="100%" height="100%" x="0" y="0" fill="none" stroke="none"/>

<g class="currentLayer" style=""><title>Layer 1</title><path d="M15 28.1875C14.5674 28.1875 14.1488 28.1295 13.8 27.9989C8.46977 26.0984 0 19.3523 0 9.38543C0 4.30771 3.94884 0.1875 8.80465 0.1875C11.1628 0.1875 13.3674 1.14501 15 2.85693C16.6326 1.14501 18.8372 0.1875 21.1953 0.1875C26.0512 0.1875 30 4.32221 30 9.38543C30 19.3668 21.5302 26.0984 16.2 27.9989C15.8512 28.1295 15.4326 28.1875 15 28.1875ZM8.80465 2.36367C5.10698 2.36367 2.09302 5.51185 2.09302 9.38543C2.09302 19.2942 11.2605 24.8072 14.4837 25.9533C14.7349 26.0404 15.2791 26.0404 15.5302 25.9533C18.7395 24.8072 27.9209 19.3087 27.9209 9.38543C27.9209 5.51185 24.907 2.36367 21.2093 2.36367C19.0884 2.36367 17.1209 3.39372 15.8512 5.17817C15.4605 5.72947 14.5674 5.72947 14.1767 5.17817C12.8791 3.37921 10.9256 2.36367 8.80465 2.36367Z" fill="#E31E24" id="svg_1"/><polyline fill="#e31e24" stroke="#222222" stroke-width="2" stroke-linejoin="round" stroke-dashoffset="" fill-rule="nonzero" marker-start="" marker-mid="" marker-end="" id="svg_2" points="118.5897406898464,-17.551284752105204 119.10256119012683,-17.551284752105204 " style="color: rgb(227, 30, 36);"/><polyline fill="#e31e24" stroke="#e31e24" stroke-width="2" stroke-linejoin="round" stroke-dashoffset="" fill-rule="nonzero" marker-start="" marker-mid="" marker-end="" id="svg_3" points="15.266666666666652,5.033333333333331 15.266666666666652,4.766666666666666 15,4.5 14.73333333333332,4.5 14.466666666666669,4.233333333333334 14.199999999999989,3.9666666666666686 13.933333333333337,3.9666666666666686 13.666666666666657,3.9666666666666686 13.400000000000006,3.9666666666666686 13.133333333333326,3.700000000000003 12.866666666666674,3.700000000000003 12.599999999999994,3.700000000000003 12.333333333333343,3.700000000000003 12.066666666666663,3.433333333333337 11.799999999999983,3.433333333333337 11.799999999999983,3.1666666666666714 11.533333333333331,3.1666666666666714 11.266666666666652,2.9000000000000057 11,2.9000000000000057 10.73333333333332,2.6333333333333258 10.466666666666669,2.36666666666666 9.933333333333337,2.36666666666666 9.666666666666657,2.36666666666666 8.866666666666674,1.8333333333333286 8.333333333333343,1.2999999999999972 8.066666666666663,1.2999999999999972 7.799999999999983,1.2999999999999972 7.533333333333331,1.2999999999999972 7.2666666666666515,1.2999999999999972 7,1.2999999999999972 6.466666666666669,1.5666666666666629 6.466666666666669,2.0999999999999943 6.199999999999989,2.0999999999999943 5.933333333333337,2.0999999999999943 5.666666666666657,2.36666666666666 5.400000000000006,2.36666666666666 5.400000000000006,2.6333333333333258 5.133333333333326,2.6333333333333258 4.866666666666674,2.9000000000000057 4.866666666666674,3.1666666666666714 4.599999999999994,3.433333333333337 4.599999999999994,3.700000000000003 4.599999999999994,3.9666666666666686 4.333333333333343,3.9666666666666686 4.333333333333343,4.5 4.066666666666663,4.5 4.066666666666663,5.033333333333331 3.5333333333333314,5.033333333333331 3.5333333333333314,5.299999999999997 3,5.566666666666663 2.73333333333332,5.566666666666663 2.73333333333332,5.833333333333329 2.4666666666666686,5.833333333333329 2.4666666666666686,6.099999999999994 2.1999999999999886,6.099999999999994 2.1999999999999886,6.36666666666666 1.9333333333333371,6.36666666666666 1.9333333333333371,6.633333333333326 1.9333333333333371,6.900000000000006 1.6666666666666572,6.900000000000006 1.6666666666666572,7.166666666666671 1.4000000000000057,7.166666666666671 1.4000000000000057,7.433333333333337 1.4000000000000057,7.966666666666669 1.4000000000000057,8.233333333333334 1.4000000000000057,8.5 1.4000000000000057,8.766666666666667 1.6666666666666572,9.033333333333331 1.6666666666666572,9.299999999999995 1.6666666666666572,9.566666666666663 2.1999999999999886,10.099999999999994 2.4666666666666686,10.366666666666658 2.4666666666666686,10.633333333333326 2.4666666666666686,10.900000000000006 2.4666666666666686,11.16666666666667 2.73333333333332,11.433333333333337 2.73333333333332,11.700000000000005 2.73333333333332,11.966666666666669 3,12.233333333333333 3,12.5 3,12.766666666666667 3,13.033333333333331 3,13.566666666666663 2.73333333333332,13.566666666666663 2.73333333333332,13.83333333333333 2.73333333333332,14.099999999999994 2.4666666666666686,14.366666666666658 2.4666666666666686,14.633333333333326 2.4666666666666686,14.900000000000006 2.4666666666666686,15.16666666666667 2.4666666666666686,15.433333333333337 2.73333333333332,15.966666666666669 3,15.966666666666669 3,16.499999999999986 3.5333333333333314,16.766666666666666 3.799999999999983,17.299999999999997 4.066666666666663,17.299999999999997 4.333333333333343,17.566666666666677 4.866666666666674,17.83333333333333 5.133333333333326,18.36666666666666 5.400000000000006,18.63333333333334 5.666666666666657,19.16666666666667 5.933333333333337,19.700000000000003 5.933333333333337,19.966666666666654 6.466666666666669,19.966666666666654 6.466666666666669,20.233333333333334 6.73333333333332,20.499999999999986 7,20.766666666666666 7.2666666666666515,21.033333333333346 7.2666666666666515,21.299999999999997 7.799999999999983,21.566666666666677 8.066666666666663,22.10000000000001 8.333333333333343,22.10000000000001 9.400000000000006,22.63333333333334 9.400000000000006,22.89999999999999 9.933333333333337,22.89999999999999 9.933333333333337,23.16666666666667 10.199999999999989,23.433333333333323 10.466666666666669,23.433333333333323 10.466666666666669,23.700000000000003 10.73333333333332,23.700000000000003 10.73333333333332,23.966666666666654 11.266666666666652,23.966666666666654 11.266666666666652,24.499999999999986 11.533333333333331,25.033333333333346 11.799999999999983,25.033333333333346 12.066666666666663,25.033333333333346 12.333333333333343,25.299999999999997 12.866666666666674,25.299999999999997 13.133333333333326,25.299999999999997 13.400000000000006,25.299999999999997 13.666666666666657,25.299999999999997 14.199999999999989,25.83333333333333 14.466666666666669,25.83333333333333 15,25.83333333333333 15.266666666666652,25.83333333333333 15.533333333333331,25.83333333333333 15.799999999999983,25.83333333333333 16.066666666666663,25.83333333333333 16.333333333333343,25.83333333333333 16.599999999999994,25.83333333333333 16.866666666666674,25.83333333333333 16.866666666666674,25.566666666666677 17.40000000000001,25.566666666666677 17.66666666666666,25.566666666666677 17.933333333333337,25.566666666666677 18.19999999999999,25.566666666666677 18.466666666666665,25.566666666666677 18.733333333333317,25.566666666666677 18.733333333333317,25.299999999999997 19,25.299999999999997 19.26666666666665,25.299999999999997 19.533333333333335,25.299999999999997 19.533333333333335,25.033333333333346 19.799999999999986,25.033333333333346 20.066666666666663,24.766666666666666 20.066666666666663,24.499999999999986 20.59999999999999,24.499999999999986 20.59999999999999,24.233333333333334 20.59999999999999,23.966666666666654 20.866666666666674,23.700000000000003 21.40000000000001,23.16666666666667 21.40000000000001,22.89999999999999 21.933333333333337,22.63333333333334 21.933333333333337,22.36666666666666 22.19999999999999,22.36666666666666 22.466666666666665,22.10000000000001 22.733333333333317,22.10000000000001 22.733333333333317,21.83333333333333 23,21.83333333333333 23,21.83333333333333 23.26666666666665,21.566666666666677 23.533333333333335,21.299999999999997 23.533333333333335,21.033333333333346 23.799999999999986,21.033333333333346 23.799999999999986,20.766666666666666 23.799999999999986,20.233333333333334 24.33333333333334,19.700000000000003 24.33333333333334,19.433333333333323 24.866666666666674,19.433333333333323 24.866666666666674,19.16666666666667 25.133333333333326,19.16666666666667 25.133333333333326,18.89999999999999 25.66666666666666,18.89999999999999 25.66666666666666,18.63333333333334 25.66666666666666,18.36666666666666 25.66666666666666,18.10000000000001 25.933333333333337,18.10000000000001 25.933333333333337,17.83333333333333 26.19999999999999,17.83333333333333 26.19999999999999,17.566666666666677 26.19999999999999,17.299999999999997 26.466666666666665,17.299999999999997 26.466666666666665,17.033333333333346 26.466666666666665,16.766666666666666 26.733333333333317,16.766666666666666 26.733333333333317,16.499999999999986 27,16.499999999999986 27,16.233333333333334 27,15.966666666666669 27,15.433333333333337 27,15.16666666666667 27,14.900000000000006 27,14.633333333333326 27,14.366666666666658 27.26666666666665,14.366666666666658 27.26666666666665,14.099999999999994 27.26666666666665,13.83333333333333 27.26666666666665,13.566666666666663 27.533333333333335,13.566666666666663 27.533333333333335,13.299999999999995 27.799999999999986,13.299999999999995 28.066666666666663,13.299999999999995 28.066666666666663,12.766666666666667 28.066666666666663,12.5 28.33333333333334,12.5 28.33333333333334,12.233333333333333 28.59999999999999,11.966666666666669 28.59999999999999,11.700000000000005 28.59999999999999,11.433333333333337 28.59999999999999,11.16666666666667 28.59999999999999,10.900000000000006 28.59999999999999,10.366666666666658 28.59999999999999,10.099999999999994 28.59999999999999,9.83333333333333 28.33333333333334,9.566666666666663 28.066666666666663,9.299999999999995 27.799999999999986,9.033333333333331 27.799999999999986,8.766666666666667 27.533333333333335,8.5 27.533333333333335,8.233333333333334 27.533333333333335,7.966666666666669 27.26666666666665,7.700000000000003 27.26666666666665,7.433333333333337 27.26666666666665,7.166666666666671 27,6.900000000000006 26.733333333333317,6.633333333333326 26.733333333333317,6.099999999999994 26.466666666666665,5.566666666666663 26.466666666666665,5.299999999999997 26.466666666666665,5.033333333333331 26.466666666666665,4.766666666666666 26.19999999999999,4.5 25.933333333333337,4.233333333333334 25.66666666666666,4.233333333333334 25.66666666666666,3.9666666666666686 25.40000000000001,3.9666666666666686 25.133333333333326,3.9666666666666686 24.866666666666674,3.700000000000003 24.59999999999999,3.433333333333337 24.33333333333334,3.433333333333337 24.33333333333334,3.1666666666666714 24.066666666666663,3.1666666666666714 23.799999999999986,2.9000000000000057 23.799999999999986,2.6333333333333258 23.533333333333335,2.6333333333333258 23.26666666666665,2.36666666666666 23,2.36666666666666 22.733333333333317,2.36666666666666 22.733333333333317,2.0999999999999943 22.19999999999999,2.0999999999999943 21.933333333333337,2.0999999999999943 21.66666666666666,2.0999999999999943 21.40000000000001,2.0999999999999943 21.133333333333326,2.0999999999999943 20.866666666666674,2.0999999999999943 20.33333333333334,2.0999999999999943 20.066666666666663,2.0999999999999943 19.799999999999986,2.0999999999999943 19.533333333333335,2.0999999999999943 19.26666666666665,2.0999999999999943 19,2.0999999999999943 18.733333333333317,2.36666666666666 18.466666666666665,2.36666666666666 " style="color: rgb(227, 30, 36);"/></g></svg>