<svg width="30" height="29" viewBox="0 0 30 29" fill="none" xmlns="http://www.w3.org/2000/svg">
<path  d="M15 28.1875C14.5674 28.1875 14.1488 28.1295 13.8 27.9989C8.46977 26.0984 0 19.3523 0 9.38543C0 4.30771 3.94884 0.1875 8.80465 0.1875C11.1628 0.1875 13.3674 1.14501 15 2.85693C16.6326 1.14501 18.8372 0.1875 21.1953 0.1875C26.0512 0.1875 30 4.32221 30 9.38543C30 19.3668 21.5302 26.0984 16.2 27.9989C15.8512 28.1295 15.4326 28.1875 15 28.1875ZM8.80465 2.36367C5.10698 2.36367 2.09302 5.51185 2.09302 9.38543C2.09302 19.2942 11.2605 24.8072 14.4837 25.9533C14.7349 26.0404 15.2791 26.0404 15.5302 25.9533C18.7395 24.8072 27.9209 19.3087 27.9209 9.38543C27.9209 5.51185 24.907 2.36367 21.2093 2.36367C19.0884 2.36367 17.1209 3.39372 15.8512 5.17817C15.4605 5.72947 14.5674 5.72947 14.1767 5.17817C12.8791 3.37921 10.9256 2.36367 8.80465 2.36367Z" fill="#E31E24"/>
</svg>
