<svg width="38" height="39" viewBox="0 0 38 39" fill="none" xmlns="http://www.w3.org/2000/svg">
<path d="M14.0625 17.459C11.6875 17.459 9.76562 15.5371 9.76562 13.1621C9.76562 10.7871 11.6875 8.86523 14.0625 8.86523C16.4375 8.86523 18.3594 10.7871 18.3594 13.1621C18.3594 15.5371 16.4375 17.459 14.0625 17.459ZM14.0625 11.209C12.9844 11.209 12.1094 12.084 12.1094 13.1621C12.1094 14.2402 12.9844 15.1152 14.0625 15.1152C15.1406 15.1152 16.0156 14.2402 16.0156 13.1621C16.0156 12.084 15.1406 11.209 14.0625 11.209Z" fill="#1560BD"/>
<path d="M23.4375 36.209H14.0625C5.57813 36.209 1.95312 32.584 1.95312 24.0996V14.7246C1.95312 6.24023 5.57813 2.61523 14.0625 2.61523H20.3125C20.9531 2.61523 21.4844 3.14648 21.4844 3.78711C21.4844 4.42773 20.9531 4.95898 20.3125 4.95898H14.0625C6.85938 4.95898 4.29688 7.52148 4.29688 14.7246V24.0996C4.29688 31.3027 6.85938 33.8652 14.0625 33.8652H23.4375C30.6406 33.8652 33.2031 31.3027 33.2031 24.0996V16.2871C33.2031 15.6465 33.7344 15.1152 34.375 15.1152C35.0156 15.1152 35.5469 15.6465 35.5469 16.2871V24.0996C35.5469 32.584 31.9219 36.209 23.4375 36.209Z" fill="#1560BD"/>
<path d="M33.2031 9.64648H24.6094C23.9688 9.64648 23.4375 9.11523 23.4375 8.47461C23.4375 7.83398 23.9688 7.30273 24.6094 7.30273H33.2031C33.8438 7.30273 34.375 7.83398 34.375 8.47461C34.375 9.11523 33.8438 9.64648 33.2031 9.64648Z" fill="#1560BD"/>
<path d="M28.9062 13.9434C28.2656 13.9434 27.7344 13.4121 27.7344 12.7715V4.17773C27.7344 3.53711 28.2656 3.00586 28.9062 3.00586C29.5469 3.00586 30.0781 3.53711 30.0781 4.17773V12.7715C30.0781 13.4121 29.5469 13.9434 28.9062 13.9434Z" fill="#1560BD"/>
<path d="M4.17178 31.4434C3.79678 31.4434 3.42178 31.2559 3.20303 30.9277C2.84366 30.3965 2.98428 29.6621 3.51553 29.3027L11.2187 24.1309C12.9062 23.0059 15.2343 23.1309 16.7655 24.4277L17.2812 24.8809C18.0624 25.5527 19.3905 25.5527 20.1562 24.8809L26.6562 19.3027C28.328 17.8809 30.9218 17.8809 32.5937 19.3027L35.1405 21.4902C35.6249 21.9121 35.6874 22.6465 35.2655 23.1465C34.8437 23.6309 34.1093 23.6934 33.6093 23.2715L31.0624 21.084C30.2812 20.4121 28.953 20.4121 28.1874 21.084L21.6874 26.6621C20.0312 28.084 17.4218 28.084 15.7499 26.6621L15.2343 26.209C14.5155 25.5996 13.328 25.5371 12.5312 26.084L4.84366 31.2559C4.62491 31.3809 4.39053 31.4434 4.17178 31.4434Z" fill="#1560BD"/>
</svg>
