<svg width="88" height="89" viewBox="0 0 88 89" fill="none" xmlns="http://www.w3.org/2000/svg">
<path d="M33.1562 39.9668C27.5988 39.9668 23.1016 35.4696 23.1016 29.9121C23.1016 24.3546 27.5988 19.8574 33.1562 19.8574C38.7137 19.8574 43.2109 24.3546 43.2109 29.9121C43.2109 35.4696 38.7137 39.9668 33.1562 39.9668ZM33.1562 25.3418C30.6334 25.3418 28.5859 27.3893 28.5859 29.9121C28.5859 32.4349 30.6334 34.4824 33.1562 34.4824C35.6791 34.4824 37.7266 32.4349 37.7266 29.9121C37.7266 27.3893 35.6791 25.3418 33.1562 25.3418Z" fill="#D9D9D9"/>
<path d="M55.0938 83.8418H33.1562C13.3028 83.8418 4.82031 75.3593 4.82031 55.5059V33.5684C4.82031 13.7149 13.3028 5.23242 33.1562 5.23242H47.7812C49.2803 5.23242 50.5234 6.47555 50.5234 7.97461C50.5234 9.47367 49.2803 10.7168 47.7812 10.7168H33.1562C16.3009 10.7168 10.3047 16.713 10.3047 33.5684V55.5059C10.3047 72.3612 16.3009 78.3574 33.1562 78.3574H55.0938C71.9491 78.3574 77.9453 72.3612 77.9453 55.5059V37.2246C77.9453 35.7255 79.1884 34.4824 80.6875 34.4824C82.1866 34.4824 83.4297 35.7255 83.4297 37.2246V55.5059C83.4297 75.3593 74.9472 83.8418 55.0938 83.8418Z" fill="#D9D9D9"/>
<path d="M77.9453 21.6855H57.8359C56.3369 21.6855 55.0938 20.4424 55.0938 18.9434C55.0938 17.4443 56.3369 16.2012 57.8359 16.2012H77.9453C79.4444 16.2012 80.6875 17.4443 80.6875 18.9434C80.6875 20.4424 79.4444 21.6855 77.9453 21.6855Z" fill="#D9D9D9"/>
<path d="M67.8906 31.7402C66.3916 31.7402 65.1484 30.4971 65.1484 28.998V8.88867C65.1484 7.38961 66.3916 6.14648 67.8906 6.14648C69.3897 6.14648 70.6328 7.38961 70.6328 8.88867V28.998C70.6328 30.4971 69.3897 31.7402 67.8906 31.7402Z" fill="#D9D9D9"/>
<path d="M10.0141 72.6896C9.13658 72.6896 8.25908 72.2509 7.74721 71.483C6.90627 70.2399 7.23533 68.5215 8.47846 67.6805L26.5038 55.5784C30.4525 52.9459 35.9003 53.2384 39.4835 56.273L40.69 57.3334C42.5181 58.9055 45.626 58.9055 47.4175 57.3334L62.6275 44.2805C66.5397 40.9534 72.6091 40.9534 76.5213 44.2805L82.481 49.3993C83.6144 50.3865 83.7606 52.1049 82.7735 53.2749C81.7863 54.4084 80.0678 54.5546 78.8978 53.5674L72.9381 48.4487C71.11 46.8765 68.0022 46.8765 66.2106 48.4487L51.0006 61.5015C47.125 64.8287 41.0191 64.8287 37.1069 61.5015L35.9003 60.4412C34.2185 59.0152 31.4397 58.869 29.575 60.1487L11.5863 72.2509C11.0744 72.5434 10.526 72.6896 10.0141 72.6896Z" fill="#D9D9D9"/>
</svg>
