<svg width="17" height="17" viewBox="0 0 17 17" fill="none" xmlns="http://www.w3.org/2000/svg">
<path fill-rule="evenodd" clip-rule="evenodd" d="M0.82771 14.2029C1.07201 14.2599 1.26184 14.3318 1.54653 14.378C3.26437 14.6572 4.88643 14.6615 6.61843 14.4979C6.9877 14.463 7.88764 14.3261 8.14436 14.2029V15.5272C8.0585 15.5472 8.0426 15.5631 7.97101 15.5856C7.88956 15.6112 7.84709 15.6229 7.76627 15.6457C6.76411 15.9281 5.52843 15.9535 4.49953 15.9841L3.04536 15.925C2.61448 15.9215 1.66865 15.7723 1.23156 15.6531C1.10212 15.6178 0.968224 15.5599 0.82771 15.5272V14.2029ZM0.82771 7.714C1.41048 7.99364 3.17938 8.11303 3.97292 8.11123C4.31184 8.11048 4.33714 8.13891 4.47139 8.1428C4.59276 8.14628 4.74708 8.11007 4.93279 8.11106C5.10857 8.11199 5.28865 8.11477 5.46404 8.11263C6.07094 8.10514 7.74487 7.90574 8.14436 7.714V13.3091C6.96409 13.9336 2.00804 13.9336 0.82771 13.3091V7.714ZM1.62229 5.16479H7.34978C8.36099 5.16479 8.14436 6.2353 8.14436 6.85322C7.87795 6.9153 7.77324 6.98393 7.33609 7.0713C5.84027 7.37032 3.17723 7.38064 1.66348 7.07687C1.22013 6.98788 1.1117 6.91942 0.827652 6.85328C0.827652 6.52717 0.774046 5.91319 0.863158 5.66378C0.963177 5.38357 1.23614 5.16485 1.62224 5.16485L1.62229 5.16479ZM3.5425 3.14526C3.5425 2.41374 4.5511 1.91678 5.1576 2.52334C5.54387 2.90966 5.42957 3.6489 5.42957 4.33708H3.5425V3.14521V3.14526ZM3.01276 0.331212V0.529858C3.01276 0.632661 3.20792 0.827826 3.31072 0.827826H4.07218V1.48996C3.72281 1.51903 3.30429 1.84496 3.12136 2.06205C2.60206 2.67835 2.71479 3.47862 2.71479 4.33714C1.74842 4.33714 1.15445 4.21078 0.51518 4.753C0.275459 4.95634 0 5.40179 0 5.82698V15.6928C0 16.0205 0.460761 16.2653 0.724036 16.3593C1.51821 16.6429 2.54416 16.7118 3.41173 16.7836L4.13965 16.784C4.313 16.7862 4.3278 16.8163 4.47034 16.8197C4.62466 16.8234 4.61811 16.7933 4.76721 16.7852L5.79357 16.7521C6.46133 16.7177 8.97196 16.5529 8.97196 15.6928V5.7938C8.97196 5.30258 8.56167 4.75566 8.23353 4.57889C7.60772 4.24182 7.07838 4.33708 6.25717 4.33708C6.25717 3.46128 6.38602 2.66281 5.8351 2.04436C5.64006 1.82541 5.26226 1.52001 4.89978 1.48984V0.82771H6.81998C7.24912 0.82771 7.40356 0 6.62133 0H3.54238C3.24842 0 3.01264 0.16929 3.01264 0.331096L3.01276 0.331212Z" fill="#1560BD"/>
<path fill-rule="evenodd" clip-rule="evenodd" d="M9.67099 7.153C9.67099 7.73513 10.1635 7.61851 10.5666 7.5851C11.2716 7.52673 13.465 7.63644 14.0473 7.70966C14.4362 7.75851 15.1167 7.85185 15.4914 7.95396C15.6214 7.98941 15.7878 8.04725 15.9283 8.07997V8.14617C15.7919 8.15754 15.6396 8.22727 15.485 8.2658C14.0822 8.61505 12.2872 8.66251 10.7953 8.64412C10.3398 8.63849 9.67099 8.40718 9.67099 9.0732C9.67099 9.20408 9.76346 9.30265 9.84451 9.36316C9.96263 9.45129 10.5225 9.46121 10.6972 9.47061C11.6613 9.52271 13.2818 9.40783 14.1707 9.3352C15.0511 9.26326 15.3975 9.11068 16.1269 8.94075V9.60288C16.0257 9.62986 16.0601 9.63491 15.9405 9.68132L15.2469 9.88165C13.609 10.2044 12.6944 10.1988 10.9953 10.1988C10.5718 10.1988 10.0142 10.1029 9.82223 10.2507C9.55687 10.455 9.61436 10.9894 10.0997 10.995C10.3866 10.9983 10.5831 11.0265 10.8959 11.0265C12.1885 11.0265 13.473 11.0265 14.7267 10.8181C15.1205 10.7527 15.2578 10.7424 15.6705 10.6364C15.7814 10.6079 16.0461 10.5355 16.1269 10.4968V14.3703C15.7702 14.6092 14.5132 14.8328 14.0069 14.8658C13.6266 14.8906 13.2025 14.9456 12.8163 14.9664C12.6021 14.978 12.368 14.9545 12.1538 14.9661C11.298 15.0124 11.1959 14.9662 10.4324 14.9663C10.2289 14.9664 9.68247 14.8684 9.65677 15.3345C9.64923 15.4714 9.72401 15.625 9.82879 15.7024C9.93983 15.7844 10.1112 15.7958 10.2992 15.7948C10.9072 15.7914 11.5918 15.8699 12.225 15.7988C12.583 15.7586 13.3999 15.7726 13.8565 15.7088C14.1371 15.6696 14.361 15.6644 14.6276 15.6192C15.087 15.5412 16.9545 15.2929 16.9545 14.536V8.08015C16.9545 7.66469 16.5096 7.43936 16.1982 7.31347C15.8706 7.18102 15.3511 7.05391 14.9584 6.99722C13.2394 6.74897 12.5819 6.75588 10.8959 6.75588C10.5978 6.75588 10.3951 6.7886 10.1333 6.7879C9.89963 6.78727 9.67093 6.89297 9.67093 7.15317L9.67099 7.153Z" fill="#1560BD"/>
<path fill-rule="evenodd" clip-rule="evenodd" d="M8.17933 2.35338C8.17933 1.72676 8.67322 1.16336 8.70901 1.02912C9.16368 1.33358 9.6936 3.04864 8.74214 3.04864C8.37154 3.04864 8.17933 2.71906 8.17933 2.35338ZM7.35162 2.28719C7.35162 2.8048 7.52758 3.23841 7.83518 3.52518L8.10582 3.71803C9.27066 4.39571 11.0461 2.92785 9.53075 0.703938C9.42406 0.547354 9.06163 0.119256 8.88933 0.0518415C8.37473 -0.149647 7.7622 0.948532 7.62534 1.26977C7.50826 1.54459 7.35156 1.98162 7.35156 2.28719H7.35162Z" fill="#1560BD"/>
<path fill-rule="evenodd" clip-rule="evenodd" d="M4.50321 10.6627C3.92427 10.6627 3.71403 9.66951 4.56941 9.66951C4.90172 9.66951 5.15311 10.1912 4.84342 10.5064C4.77844 10.5725 4.61524 10.6627 4.50316 10.6627H4.50321ZM4.6356 8.84185C4.18726 8.84185 3.78005 8.91072 3.48997 9.28538C3.28059 9.5558 3.14831 9.82064 3.17036 10.2111C3.23888 11.4251 4.64628 11.8521 5.38952 11.1187C5.62605 10.8853 5.75983 10.6724 5.8106 10.2464C5.89658 9.52499 5.20654 8.8418 4.63555 8.8418L4.6356 8.84185Z" fill="#1560BD"/>
<path fill-rule="evenodd" clip-rule="evenodd" d="M12.1841 12.451C12.8419 12.451 12.8632 13.4443 12.1841 13.4443C11.5193 13.4443 11.5637 12.451 12.1841 12.451ZM12.0517 14.2719C12.4996 14.2719 12.768 14.2301 13.1159 13.9125C13.296 13.748 13.5084 13.3572 13.5084 13.1132V12.8483C13.5084 11.8836 12.1539 11.1554 11.2933 11.9906C11.0187 12.257 10.9312 12.4723 10.8765 12.8676C10.8211 13.267 11.0242 13.5884 11.1901 13.8092C11.3265 13.991 11.7424 14.2719 12.0516 14.2719H12.0517Z" fill="#1560BD"/>
<path fill-rule="evenodd" clip-rule="evenodd" d="M2.91406 12.482C2.91406 12.8695 3.17711 12.9488 3.50919 12.9463C3.86964 12.9435 4.10489 12.9786 4.4701 12.9786C4.67693 12.9786 5.69812 12.961 5.83927 12.891C6.2303 12.6973 6.05892 12.1178 5.69505 12.1178L4.80288 12.1195C4.18055 12.1711 4.46007 12.1178 3.87416 12.1178C3.58472 12.1178 2.91406 12.0212 2.91406 12.482Z" fill="#1560BD"/>
</svg>
