<svg width="17" height="17" viewBox="0 0 17 17" fill="none" xmlns="http://www.w3.org/2000/svg">
<path d="M9.97246 11.2902H8.58481C8.26243 11.2902 7.79286 11.192 7.51954 10.9187L6.44026 10.0847L7.08503 9.25071L8.21337 10.1267C8.29747 10.1898 8.45165 10.2319 8.58481 10.2319H9.97246C10.1827 10.2319 10.435 10.0497 10.4841 9.86744L11.3671 7.16925C11.3881 7.11318 11.4092 7.03608 11.3741 6.98001C11.3461 6.93796 11.269 6.90995 11.1779 6.90995H9.72016C9.46085 6.90995 9.21555 6.79785 9.04035 6.60162C8.87215 6.40539 8.79506 6.13904 8.8301 5.87273L9.01232 4.7023C9.03334 4.6112 8.97027 4.50611 8.89318 4.47808C8.8301 4.45705 8.72498 4.49205 8.69694 4.5271L7.20417 6.74877L6.32812 6.16009L7.8209 3.93842C8.11525 3.4969 8.73899 3.29364 9.24359 3.48286C9.81127 3.67209 10.1757 4.30284 10.0495 4.89154L9.90238 5.85168H11.1779C11.6194 5.85168 12.0049 6.0409 12.2362 6.37029C12.4604 6.69267 12.5095 7.10616 12.3693 7.50564L11.5003 10.1548C11.3391 10.7785 10.6663 11.2902 9.97246 11.2902Z" fill="#1560BD"/>
<path d="M5.99978 10.891H5.63535C4.54205 10.891 4.38086 10.1271 4.38086 9.67151V6.10421C4.38086 5.64867 4.54205 4.88477 5.63535 4.88477H5.99978C7.09308 4.88477 7.25428 5.64867 7.25428 6.10421V9.67151C7.25428 10.1271 7.09308 10.891 5.99978 10.891ZM5.45313 9.83269C5.47416 9.83269 5.53022 9.8397 5.63535 9.8397H5.99978C6.11192 9.8397 6.17499 9.82567 6.19602 9.81866C6.19602 9.80464 6.20303 9.76262 6.20303 9.67151V6.10421C6.20303 6.0131 6.19602 5.96406 6.18901 5.95005C6.17499 5.95005 6.11892 5.94303 5.99978 5.94303H5.63535C5.52321 5.94303 5.46014 5.95707 5.43911 5.96408C5.43911 5.97809 5.43211 6.02012 5.43211 6.11122V9.67853C5.43211 9.76964 5.43912 9.81868 5.44613 9.8397C5.44613 9.8327 5.45313 9.83269 5.45313 9.83269Z" fill="#1560BD"/>
<path d="M8.4093 15.9437C7.91871 15.9437 7.42112 15.7545 7.04968 15.383L5.85126 14.1986C5.5499 13.9043 5.15743 13.7431 4.73693 13.7431H4.2043C2.75357 13.7431 1.57617 12.5727 1.57617 11.136V3.48989C1.57617 2.05318 2.75357 0.882812 4.2043 0.882812H12.6143C14.065 0.882812 15.2424 2.05318 15.2424 3.48989V11.136C15.2424 12.5727 14.065 13.7431 12.6143 13.7431H12.0817C11.6612 13.7431 11.2617 13.9043 10.9673 14.1986L9.76892 15.383C9.39747 15.7545 8.89988 15.9437 8.4093 15.9437ZM4.2043 1.92705C3.33526 1.92705 2.62742 2.62786 2.62742 3.48288V11.129C2.62742 11.991 3.33526 12.6848 4.2043 12.6848H4.73693C5.43776 12.6848 6.09655 12.9581 6.59414 13.4487L7.79256 14.6332C8.13597 14.9696 8.68963 14.9696 9.03304 14.6332L10.2315 13.4487C10.7291 12.9581 11.3878 12.6848 12.0887 12.6848H12.6143C13.4833 12.6848 14.1912 11.984 14.1912 11.129V3.48288C14.1912 2.62085 13.4833 1.92705 12.6143 1.92705H4.2043Z" fill="#1560BD"/>
</svg>
