<svg width="20" height="25" viewBox="0 0 20 25" fill="none" xmlns="http://www.w3.org/2000/svg">
<path d="M10 0.359375C6.52265 0.359375 3.7037 2.96892 3.7037 6.18795C3.7037 9.40698 6.52265 12.0165 10 12.0165C13.4773 12.0165 16.2963 9.40698 16.2963 6.18795C16.2963 2.96892 13.4773 0.359375 10 0.359375Z" fill="#FAFAFA"/>
<path d="M13.7157 14.6096C11.2541 14.2459 8.74587 14.2459 6.28434 14.6096L6.0205 14.6486C2.55211 15.161 0 17.9305 0 21.1818C0 22.9367 1.5368 24.3594 3.43254 24.3594H16.5675C18.4632 24.3594 20 22.9367 20 21.1818C20 17.9305 17.4479 15.161 13.9795 14.6486L13.7157 14.6096Z" fill="#FAFAFA"/>
</svg>
