<svg width="23" height="14" viewBox="0 0 23 14" fill="none" xmlns="http://www.w3.org/2000/svg">
<path d="M17.074 9.44298C18.4287 9.44298 19.527 8.34476 19.527 6.99005C19.527 5.63533 18.4287 4.53711 17.074 4.53711C15.7193 4.53711 14.6211 5.63533 14.6211 6.99005C14.6211 8.34476 15.7193 9.44298 17.074 9.44298Z" fill="#E31E24"/>
<path fill-rule="evenodd" clip-rule="evenodd" d="M22.6932 1.42578L21.5142 4.78408C21.2739 4.30052 20.9556 3.86067 20.5775 3.48256C20.2231 3.12821 19.8146 2.82705 19.3672 2.5924L22.6932 1.42578Z" fill="#E31E24"/>
<path d="M17.1247 13.696C15.1563 13.696 13.5384 13.05 12.2721 11.7589C11.0048 10.4792 10.3711 8.8927 10.3711 6.99838C10.3711 5.10405 11.0048 3.51658 12.2721 2.23786C13.5394 0.945842 15.1573 0.300781 17.1247 0.300781C18.0035 0.300781 18.8338 0.460382 19.6147 0.780537L15.9249 2.07541C14.9606 2.26921 14.1426 2.71097 13.471 3.40068C12.5362 4.34784 12.0688 5.54771 12.0688 6.99933C12.0688 8.4386 12.5362 9.63182 13.471 10.579C14.4058 11.5385 15.6237 12.0182 17.1247 12.0182C18.0102 12.0182 18.8196 11.8064 19.5511 11.3817C20.2826 10.9571 20.8336 10.3947 21.2022 9.69357L22.6966 10.5429C22.1551 11.5024 21.3865 12.271 20.3899 12.8495C19.4057 13.4157 18.317 13.6979 17.1238 13.6979L17.1247 13.696Z" fill="#FAFAFA"/>
<path d="M7.533 6.75785C8.13531 7.0533 8.60936 7.46561 8.95422 7.99382C9.29907 8.52297 9.47103 9.12529 9.47103 9.8017C9.47103 10.8353 9.10812 11.7027 8.38231 12.4038C7.6565 13.1049 6.77109 13.4554 5.72512 13.4554H0.152344V0.539062H5.31852C6.33978 0.539062 7.1948 0.877267 7.88356 1.55368C8.58467 2.23009 8.93522 3.06705 8.93522 4.06361C8.93522 5.21978 8.46782 6.11754 7.533 6.75785ZM5.31852 2.14458H1.86807V6.09379H5.31852C5.86003 6.09379 6.31508 5.90284 6.68369 5.52189C7.05229 5.14093 7.23754 4.67352 7.23754 4.11966C7.23754 3.57816 7.04659 3.1174 6.66564 2.73549C6.29608 2.34219 5.84768 2.14458 5.31852 2.14458ZM1.86807 11.8509H5.72512C6.30368 11.8509 6.78914 11.6476 7.18245 11.2419C7.57575 10.8363 7.7724 10.3375 7.7724 9.74754C7.7724 9.16899 7.5691 8.67688 7.16344 8.27123C6.78249 7.86557 6.30273 7.66226 5.72417 7.66226H1.86712V11.8509H1.86807Z" fill="#FAFAFA"/>
</svg>
