<svg width="277" height="25" viewBox="0 0 277 25" fill="none" xmlns="http://www.w3.org/2000/svg">
<path d="M13.2807 12.0856C14.3645 12.6156 15.2175 13.3553 15.8381 14.3029C16.4586 15.2521 16.768 16.3326 16.768 17.5461C16.768 19.4003 16.115 20.9563 14.809 22.2141C13.503 23.4718 11.9098 24.1007 10.0276 24.1007H0V0.927772H9.29771C11.1354 0.927772 12.6739 1.53449 13.9132 2.74793C15.1748 3.96136 15.8056 5.46283 15.8056 7.2506C15.8056 9.32469 14.9645 10.9352 13.2824 12.0839L13.2807 12.0856ZM9.296 3.80969H3.08727V10.8943H9.296C10.2704 10.8943 11.0892 10.5518 11.7525 9.86835C12.4157 9.18494 12.7491 8.34644 12.7491 7.35285C12.7491 6.38142 12.4055 5.55486 11.72 4.86974C11.055 4.16417 10.2482 3.81139 9.296 3.81139V3.80969ZM3.08727 21.2222H10.0276C11.0687 21.2222 11.9422 20.8575 12.6499 20.1297C13.3577 19.402 13.7132 18.5073 13.7132 17.4489C13.7132 16.411 13.3474 15.5282 12.6175 14.8005C11.932 14.0728 11.0687 13.7081 10.0276 13.7081H3.08727V21.2222ZM23.5067 13.841V21.1898H34.2984V24.1024H20.4194V0.929478H34.1326V3.84207H23.5084V10.9591H33.3035V13.8393H23.5084L23.5067 13.841ZM56.976 24.1024H53.6888L51.7964 18.9044H41.338L39.4456 24.1024H36.1583L44.8252 0.929478H48.3125L56.9795 24.1024H56.976ZM46.5501 4.60558L42.3995 16.0259H50.7331L46.5501 4.60558ZM58.7692 16.3241V0.931179H61.8565V16.1912C61.8565 17.846 62.3488 19.1481 63.3335 20.0974C64.3181 21.0466 65.7079 21.5204 67.5011 21.5204C69.2943 21.5204 70.6824 21.0466 71.6688 20.0974C72.6534 19.1481 73.1457 17.846 73.1457 16.1912V0.931179H76.2005V16.3241C76.2005 18.8396 75.392 20.837 73.7765 22.3163C72.1611 23.7956 70.0687 24.5336 67.5011 24.5336C64.9113 24.5336 62.8087 23.7939 61.1915 22.3163C59.5761 20.837 58.7675 18.8396 58.7675 16.3241H58.7692ZM79.0228 0.931179H95.7908V3.84377H88.9171V24.1024H85.8624V3.84377H79.0228V0.931179ZM112.69 0.931179H116.144L107.909 14.7357V24.1041H104.822V14.7034L96.6199 0.932885H100.073L106.381 11.7908L112.689 0.932885L112.69 0.931179ZM138.124 24.5336C134.582 24.5336 131.671 23.3747 129.392 21.0586C127.111 18.7629 125.971 15.9168 125.971 12.5185C125.971 9.12018 127.111 6.27235 129.392 3.97841C131.672 1.66061 134.583 0.503412 138.124 0.503412C139.705 0.503412 141.199 0.789727 142.604 1.36406L135.965 3.68698C134.23 4.03465 132.758 4.82713 131.549 6.06443C129.867 7.76358 129.026 9.91607 129.026 12.5202C129.026 15.1022 129.867 17.2427 131.549 18.9419C133.231 20.6632 135.423 21.5238 138.124 21.5238C139.717 21.5238 141.173 21.1438 142.49 20.382C143.806 19.6202 144.797 18.6112 145.461 17.3535L148.15 18.8771C147.175 20.5984 145.792 21.9772 143.999 23.0151C142.228 24.0308 140.269 24.537 138.122 24.537L138.124 24.5336ZM150.343 12.5168C150.343 9.16279 151.505 6.32689 153.828 4.00908C156.153 1.66913 158.998 0.5 162.362 0.5C165.726 0.5 168.571 1.66913 170.896 4.00908C173.243 6.32689 174.415 9.16279 174.415 12.5168C174.415 15.8486 173.243 18.6845 170.896 21.0245C168.571 23.3644 165.726 24.5336 162.362 24.5336C158.998 24.5336 156.153 23.3644 153.828 21.0245C151.504 18.6624 150.343 15.8265 150.343 12.5168ZM171.328 12.5168C171.328 9.95697 170.465 7.81642 168.738 6.09511C167.056 4.35164 164.931 3.48077 162.364 3.48077C159.818 3.48077 157.682 4.35164 155.955 6.09511C154.251 7.83857 153.398 9.97913 153.398 12.5168C153.398 15.0323 154.251 17.1728 155.955 18.9385C157.682 20.6598 159.818 21.5204 162.364 21.5204C164.931 21.5204 167.056 20.6598 168.738 18.9385C170.465 17.1728 171.328 15.0323 171.328 12.5168ZM196.397 0.931179H199.883V24.1041H196.828V5.99626L189.224 18.6078H188.826L181.222 6.02864V24.1024H178.135V0.929478H181.621L189.024 13.178L196.395 0.929478L196.397 0.931179ZM204.864 0.931179H213.299C215.423 0.931179 217.205 1.64868 218.644 3.08367C220.083 4.51866 220.803 6.28428 220.803 8.38053C220.803 10.4768 220.083 12.2424 218.644 13.6774C217.205 15.1124 215.423 15.8299 213.299 15.8299H207.953V24.1058H204.866V0.932885L204.864 0.931179ZM207.951 12.948H213.297C214.603 12.948 215.664 12.5168 216.485 11.6561C217.326 10.7512 217.747 9.65873 217.747 8.37882C217.747 7.05461 217.326 5.96217 216.485 5.10152C215.644 4.24086 214.581 3.81139 213.297 3.81139H207.951V12.948ZM240.691 24.1041H237.404L235.511 18.9061H225.053L223.16 24.1041H219.873L228.538 0.931179H232.026L240.691 24.1041ZM230.265 4.60728L226.114 16.0276H234.448L230.265 4.60728ZM250.32 24.5353C248.151 24.5353 246.298 24.0325 244.759 23.0287C243.221 22.0249 242.142 20.6291 241.522 18.8413L244.178 17.3194C245.064 20.1229 247.134 21.5238 250.387 21.5238C251.958 21.5238 253.17 21.2034 254.023 20.5643C254.876 19.9235 255.302 19.0526 255.302 17.95C255.302 16.8695 254.881 16.0412 254.04 15.4669C253.288 14.959 251.881 14.3744 249.823 13.7132L247.599 12.9855C247.112 12.7861 246.47 12.4997 245.672 12.1248C244.898 11.7277 244.334 11.3306 243.978 10.9335C243.004 9.87346 242.517 8.58334 242.517 7.05972C242.517 5.02994 243.224 3.43986 244.641 2.29289C246.059 1.10161 247.785 0.505113 249.821 0.505113C251.636 0.505113 253.23 0.956747 254.602 1.86171C255.975 2.76668 257.004 4.00227 257.69 5.56849L255.1 7.05802C254.103 4.67545 252.344 3.48247 249.821 3.48247C248.559 3.48247 247.541 3.79094 246.766 4.40959C245.992 5.02824 245.604 5.86674 245.604 6.92509C245.604 7.94083 245.97 8.71286 246.7 9.24289C247.452 9.79507 248.713 10.3455 250.484 10.8977L251.845 11.3289C252.597 11.6152 253.007 11.7703 253.074 11.7925C253.782 12.0566 254.558 12.4213 255.399 12.8849C255.997 13.2155 256.594 13.7234 257.192 14.4068C257.967 15.1788 258.355 16.3377 258.355 17.8818C258.355 19.9116 257.613 21.5341 256.131 22.7475C254.626 23.9388 252.688 24.5353 250.32 24.5353ZM268.716 24.5353C266.546 24.5353 264.692 24.0325 263.155 23.0287C261.616 22.0249 260.538 20.6291 259.917 18.8413L262.574 17.3194C263.459 20.1229 265.529 21.5238 268.782 21.5238C270.353 21.5238 271.565 21.2034 272.418 20.5643C273.271 19.9235 273.697 19.0526 273.697 17.95C273.697 16.8695 273.276 16.0412 272.435 15.4669C271.683 14.959 270.276 14.3744 268.218 13.7132L265.994 12.9855C265.507 12.7861 264.866 12.4997 264.068 12.1248C263.293 11.7277 262.729 11.3306 262.374 10.9335C261.399 9.87346 260.912 8.58334 260.912 7.05972C260.912 5.02994 261.62 3.43986 263.037 2.29289C264.454 1.10161 266.18 0.505113 268.216 0.505113C270.032 0.505113 271.625 0.956747 272.998 1.86171C274.37 2.76668 275.4 4.00227 276.085 5.56849L273.495 7.05802C272.499 4.67545 270.74 3.48247 268.216 3.48247C266.955 3.48247 265.936 3.79094 265.162 4.40959C264.387 5.02824 263.999 5.86674 263.999 6.92509C263.999 7.94083 264.365 8.71286 265.095 9.24289C265.847 9.79507 267.109 10.3455 268.88 10.8977L270.24 11.3289C270.993 11.6152 271.403 11.7703 271.47 11.7925C272.177 12.0566 272.953 12.4213 273.794 12.8849C274.393 13.2155 274.989 13.7234 275.588 14.4068C276.362 15.1788 276.75 16.3377 276.75 17.8818C276.75 19.9116 276.008 21.5341 274.526 22.7475C273.022 23.9388 271.083 24.5353 268.716 24.5353Z" fill="#1560BD"/>
<path d="M138.376 16.7396C140.887 16.7396 142.923 14.7036 142.923 12.1921C142.923 9.68053 140.887 7.64453 138.376 7.64453C135.864 7.64453 133.828 9.68053 133.828 12.1921C133.828 14.7036 135.864 16.7396 138.376 16.7396Z" fill="#E31E24"/>
<path fill-rule="evenodd" clip-rule="evenodd" d="M148.77 1.80078L146.467 8.29726C145.998 7.36184 145.378 6.51096 144.637 5.77953C143.945 5.09404 143.147 4.51148 142.273 4.05755L148.77 1.80078Z" fill="#E31E24"/>
</svg>
