<svg width="426" height="38" viewBox="0 0 426 38" fill="none" xmlns="http://www.w3.org/2000/svg">
<path d="M20.443 18.4743C22.1112 19.2902 23.4243 20.4287 24.3795 21.8873C25.3347 23.3485 25.8109 25.0117 25.8109 26.8796C25.8109 29.7338 24.8057 32.1289 22.7954 34.065C20.785 36.001 18.3326 36.969 15.4355 36.969H0V1.29909H14.3119C17.1406 1.29909 19.5088 2.23301 21.4166 4.10085C23.3585 5.96869 24.3295 8.27988 24.3295 11.0318C24.3295 14.2244 23.0348 16.7035 20.4456 18.4717L20.443 18.4743ZM14.3093 5.73521H4.75222V16.6406H14.3093C15.8092 16.6406 17.0696 16.1133 18.0905 15.0613C19.1115 14.0093 19.6246 12.7186 19.6246 11.1892C19.6246 9.69387 19.0957 8.42154 18.0405 7.36695C17.0169 6.28087 15.775 5.73783 14.3093 5.73783V5.73521ZM4.75222 32.5382H15.4355C17.038 32.5382 18.3826 31.9768 19.472 30.8566C20.5614 29.7364 21.1087 28.3591 21.1087 26.73C21.1087 25.1324 20.5456 23.7735 19.422 22.6533C18.3668 21.5331 17.038 20.9717 15.4355 20.9717H4.75222V32.5382ZM36.1837 21.1764V32.4883H52.7954V36.9717H31.4315V1.30172H52.5402V5.78506H36.1863V16.7402H51.264V21.1737H36.1863L36.1837 21.1764ZM87.7029 36.9717H82.6429L79.7299 28.9704H63.6313L60.7184 36.9717H55.6583L68.9993 1.30172H74.3672L87.7082 36.9717H87.7029ZM71.6543 6.96032L65.2654 24.5395H78.0932L71.6543 6.96032ZM90.4632 24.9986V1.30434H95.2154V24.794C95.2154 27.3413 95.9733 29.3455 97.4889 30.8068C99.0046 32.268 101.144 32.9973 103.904 32.9973C106.664 32.9973 108.801 32.268 110.319 30.8068C111.835 29.3455 112.593 27.3413 112.593 24.794V1.30434H117.295V24.9986C117.295 28.8707 116.05 31.9453 113.564 34.2224C111.077 36.4995 107.856 37.6354 103.904 37.6354C99.9177 37.6354 96.6811 36.4968 94.1918 34.2224C91.7052 31.9453 90.4606 28.8707 90.4606 24.9986H90.4632ZM121.639 1.30434H147.45V5.78767H136.87V36.9717H132.168V5.78767H121.639V1.30434ZM173.464 1.30434H178.779L166.104 22.5536V36.9743H161.352V22.5038L148.727 1.30696H154.042L163.752 18.0204L173.461 1.30696L173.464 1.30434ZM212.613 37.6354C207.161 37.6354 202.68 35.8515 199.172 32.2863C195.662 28.7526 193.907 24.3716 193.907 19.1406C193.907 13.9096 195.662 9.52598 199.172 5.99492C202.682 2.42714 207.164 0.645877 212.613 0.645877C215.047 0.645877 217.347 1.0866 219.51 1.97068L209.29 5.54633C206.619 6.0815 204.353 7.30136 202.493 9.20592C199.904 11.8214 198.609 15.1347 198.609 19.1432C198.609 23.1177 199.904 26.4126 202.493 29.0281C205.082 31.6777 208.456 33.0025 212.613 33.0025C215.066 33.0025 217.308 32.4175 219.334 31.2449C221.36 30.0722 222.886 28.5192 223.907 26.5831L228.046 28.9284C226.546 31.578 224.417 33.7003 221.657 35.298C218.931 36.8615 215.916 37.6406 212.611 37.6406L212.613 37.6354ZM231.422 19.138C231.422 13.9752 233.211 9.60992 236.787 6.04214C240.366 2.44026 244.745 0.640625 249.923 0.640625C255.102 0.640625 259.48 2.44026 263.059 6.04214C266.672 9.60992 268.477 13.9752 268.477 19.138C268.477 24.2667 266.672 28.632 263.059 32.2339C259.48 35.8357 255.102 37.6354 249.923 37.6354C244.745 37.6354 240.366 35.8357 236.787 32.2339C233.209 28.5979 231.422 24.2326 231.422 19.138ZM263.725 19.138C263.725 15.1977 262.396 11.9028 259.738 9.25315C257.149 6.56944 253.878 5.2289 249.926 5.2289C246.008 5.2289 242.718 6.56944 240.061 9.25315C237.437 11.9369 236.124 15.2318 236.124 19.138C236.124 23.0101 237.437 26.305 240.061 29.0229C242.718 31.6725 246.008 32.9973 249.926 32.9973C253.878 32.9973 257.149 31.6725 259.738 29.0229C262.396 26.305 263.725 23.0101 263.725 19.138ZM302.313 1.30434H307.679V36.9743H302.976V9.10099L291.272 28.5139H290.659L278.955 9.15084V36.9717H274.203V1.30172H279.568L290.964 20.1559L302.311 1.30172L302.313 1.30434ZM315.346 1.30434H328.329C331.6 1.30434 334.342 2.40878 336.558 4.61765C338.773 6.82653 339.881 9.54434 339.881 12.7711C339.881 15.9978 338.773 18.7156 336.558 20.9245C334.342 23.1334 331.6 24.2378 328.329 24.2378H320.101V36.9769H315.349V1.30696L315.346 1.30434ZM320.099 19.8017H328.327C330.337 19.8017 331.971 19.138 333.234 17.8132C334.529 16.4202 335.176 14.7386 335.176 12.7685C335.176 10.7301 334.529 9.04852 333.234 7.72372C331.94 6.39892 330.303 5.73783 328.327 5.73783H320.099V19.8017ZM370.494 36.9743H365.434L362.521 28.973H346.423L343.51 36.9743H338.45L351.788 1.30434H357.156L370.494 36.9743ZM354.446 6.96295L348.057 24.5421H360.885L354.446 6.96295ZM385.317 37.638C381.978 37.638 379.125 36.8641 376.757 35.3189C374.389 33.7738 372.728 31.6252 371.773 28.8733L375.862 26.5307C377.225 30.8461 380.412 33.0025 385.419 33.0025C387.837 33.0025 389.703 32.5093 391.016 31.5256C392.329 30.5392 392.984 29.1986 392.984 27.5013C392.984 25.8381 392.337 24.5631 391.043 23.6791C389.885 22.8973 387.719 21.9975 384.551 20.9796L381.128 19.8594C380.378 19.5525 379.391 19.1118 378.162 18.5346C376.97 17.9234 376.102 17.3121 375.554 16.7009C374.054 15.0692 373.305 13.0833 373.305 10.738C373.305 7.61355 374.394 5.16594 376.575 3.40041C378.757 1.56668 381.414 0.648495 384.548 0.648495C387.343 0.648495 389.795 1.34369 391.908 2.7367C394.021 4.12971 395.605 6.03165 396.66 8.44253L392.674 10.7354C391.14 7.06788 388.432 5.23152 384.548 5.23152C382.606 5.23152 381.038 5.70635 379.846 6.65863C378.654 7.61092 378.057 8.90162 378.057 10.5307C378.057 12.0943 378.62 13.2826 379.743 14.0985C380.901 14.9485 382.843 15.7958 385.569 16.6458L387.664 17.3095C388.822 17.7502 389.453 17.989 389.556 18.0231C390.645 18.4297 391.84 18.9911 393.134 19.7047C394.055 20.2136 394.974 20.9953 395.895 22.0473C397.087 23.2357 397.684 25.0196 397.684 27.3964C397.684 30.5208 396.542 33.0182 394.261 34.8861C391.945 36.7198 388.961 37.638 385.317 37.638ZM413.633 37.638C410.293 37.638 407.438 36.8641 405.073 35.3189C402.705 33.7738 401.044 31.6252 400.089 28.8733L404.178 26.5307C405.541 30.8461 408.728 33.0025 413.735 33.0025C416.154 33.0025 418.019 32.5093 419.332 31.5256C420.645 30.5392 421.3 29.1986 421.3 27.5013C421.3 25.8381 420.653 24.5631 419.358 23.6791C418.201 22.8973 416.035 21.9975 412.867 20.9796L409.444 19.8594C408.694 19.5525 407.707 19.1118 406.478 18.5346C405.286 17.9234 404.418 17.3121 403.87 16.7009C402.37 15.0692 401.621 13.0833 401.621 10.738C401.621 7.61355 402.71 5.16594 404.891 3.40041C407.073 1.56668 409.73 0.648495 412.864 0.648495C415.659 0.648495 418.111 1.34369 420.224 2.7367C422.337 4.12971 423.921 6.03165 424.976 8.44253L420.99 10.7354C419.456 7.06788 416.748 5.23152 412.864 5.23152C410.922 5.23152 409.354 5.70635 408.162 6.65863C406.97 7.61092 406.373 8.90162 406.373 10.5307C406.373 12.0943 406.936 13.2826 408.059 14.0985C409.217 14.9485 411.159 15.7958 413.885 16.6458L415.98 17.3095C417.138 17.7502 417.769 17.989 417.872 18.0231C418.961 18.4297 420.156 18.9911 421.45 19.7047C422.371 20.2136 423.29 20.9953 424.211 22.0473C425.403 23.2357 426 25.0196 426 27.3964C426 30.5208 424.858 33.0182 422.577 34.8861C420.261 36.7198 417.277 37.638 413.633 37.638Z" fill="#FAFAFA"/>
<path d="M213 25.6406C216.866 25.6406 220 22.5066 220 18.6406C220 14.7746 216.866 11.6406 213 11.6406C209.134 11.6406 206 14.7746 206 18.6406C206 22.5066 209.134 25.6406 213 25.6406Z" fill="#E31E24"/>
<path fill-rule="evenodd" clip-rule="evenodd" d="M229 2.64062L225.455 12.6406C224.733 11.2007 223.779 9.89098 222.639 8.76509C221.574 7.70993 220.345 6.81318 219 6.11446L229 2.64062Z" fill="#E31E24"/>
</svg>
