<svg width="38" height="38" viewBox="0 0 38 38" fill="none" xmlns="http://www.w3.org/2000/svg">
<path d="M14.0625 27.7344C13.9063 27.7344 13.7656 27.7031 13.6094 27.6406C13.1719 27.4688 12.8906 27.0312 12.8906 26.5625V17.1875C12.8906 16.5469 13.4219 16.0156 14.0625 16.0156C14.7031 16.0156 15.2344 16.5469 15.2344 17.1875V23.7344L16.3594 22.6094C16.8125 22.1563 17.5625 22.1563 18.0156 22.6094C18.4688 23.0625 18.4688 23.8125 18.0156 24.2656L14.8906 27.3906C14.6719 27.6094 14.3594 27.7344 14.0625 27.7344Z" fill="#1560BD"/>
<path d="M14.0625 27.7344C13.7656 27.7344 13.4688 27.625 13.2344 27.3906L10.1094 24.2656C9.65625 23.8125 9.65625 23.0625 10.1094 22.6094C10.5625 22.1563 11.3125 22.1563 11.7656 22.6094L14.8906 25.7344C15.3438 26.1875 15.3438 26.9375 14.8906 27.3906C14.6562 27.625 14.3594 27.7344 14.0625 27.7344Z" fill="#1560BD"/>
<path d="M23.4375 35.5469H14.0625C5.57813 35.5469 1.95312 31.9219 1.95312 23.4375V14.0625C1.95312 5.57813 5.57813 1.95312 14.0625 1.95312H21.875C22.5156 1.95312 23.0469 2.48438 23.0469 3.125C23.0469 3.76562 22.5156 4.29688 21.875 4.29688H14.0625C6.85938 4.29688 4.29688 6.85938 4.29688 14.0625V23.4375C4.29688 30.6406 6.85938 33.2031 14.0625 33.2031H23.4375C30.6406 33.2031 33.2031 30.6406 33.2031 23.4375V15.625C33.2031 14.9844 33.7344 14.4531 34.375 14.4531C35.0156 14.4531 35.5469 14.9844 35.5469 15.625V23.4375C35.5469 31.9219 31.9219 35.5469 23.4375 35.5469Z" fill="#1560BD"/>
<path d="M34.375 16.7965H28.125C22.7812 16.7965 20.7031 14.7184 20.7031 9.37465V3.12465C20.7031 2.6559 20.9844 2.2184 21.4219 2.04652C21.8594 1.85902 22.3594 1.9684 22.7031 2.29652L35.2031 14.7965C35.5313 15.1246 35.6406 15.6403 35.4531 16.0778C35.2656 16.5153 34.8438 16.7965 34.375 16.7965ZM23.0469 5.95277V9.37465C23.0469 13.4059 24.0938 14.4528 28.125 14.4528H31.5469L23.0469 5.95277Z" fill="#1560BD"/>
</svg>
