<svg width="30" height="26" viewBox="0 0 30 26" fill="none" xmlns="http://www.w3.org/2000/svg">
<path d="M21.9767 25.814H8.02326C2.93023 25.814 0 22.8837 0 17.7907V8.02326C0 2.93023 2.93023 0 8.02326 0H21.9767C27.0698 0 30 2.93023 30 8.02326V17.7907C30 22.8837 27.0698 25.814 21.9767 25.814ZM8.02326 2.09302C4.03256 2.09302 2.09302 4.03256 2.09302 8.02326V17.7907C2.09302 21.7814 4.03256 23.7209 8.02326 23.7209H21.9767C25.9674 23.7209 27.907 21.7814 27.907 17.7907V8.02326C27.907 4.03256 25.9674 2.09302 21.9767 2.09302H8.02326Z" fill="#292D32"/>
<path d="M14.9997 14.1207C13.8276 14.1207 12.6416 13.7579 11.7346 13.0183L7.36713 9.52997C6.92062 9.16718 6.8369 8.51136 7.1997 8.06485C7.56249 7.61833 8.2183 7.53462 8.66482 7.89741L13.0322 11.3858C14.0927 12.2369 15.8927 12.2369 16.9532 11.3858L21.3206 7.89741C21.7671 7.53462 22.4369 7.60438 22.7857 8.06485C23.1485 8.51136 23.0788 9.18113 22.6183 9.52997L18.2509 13.0183C17.3578 13.7579 16.1718 14.1207 14.9997 14.1207Z" fill="#292D32"/>
</svg>
