<svg width="48" height="48" viewBox="0 0 48 48" fill="none" xmlns="http://www.w3.org/2000/svg">
<path d="M15.75 44.582C15.1987 44.582 14.6278 44.4443 14.1159 44.1686C12.9937 43.578 12.3047 42.3967 12.3047 41.1367V38.3412C6.35906 37.7309 2.46094 33.3601 2.46094 27.0995V15.2871C2.46094 8.51461 7.00875 3.9668 13.7812 3.9668H33.4688C40.2412 3.9668 44.7891 8.51461 44.7891 15.2871V27.0995C44.7891 33.872 40.2412 38.4198 33.4688 38.4198H26.0465L17.6596 44.0112C17.0887 44.3853 16.4194 44.582 15.75 44.582ZM13.7812 6.90022C8.70188 6.90022 5.41406 10.188 5.41406 15.2674V27.08C5.41406 32.1594 8.70188 35.4472 13.7812 35.4472C14.5884 35.4472 15.2578 36.1166 15.2578 36.9238V41.1172C15.2578 41.3732 15.4153 41.4912 15.5138 41.5503C15.6122 41.6094 15.8091 41.6684 16.0257 41.5306L24.7866 35.7032C25.0229 35.5457 25.3181 35.4472 25.6135 35.4472H33.4885C38.5678 35.4472 41.8556 32.1594 41.8556 27.08V15.2674C41.8556 10.188 38.5678 6.90022 33.4885 6.90022H13.7812Z" fill="#1560BD"/>
<path d="M23.6245 24.4824C22.8173 24.4824 22.148 23.813 22.148 23.0059V22.5925C22.148 20.3087 23.8214 19.1865 24.4514 18.7534C25.1798 18.2612 25.416 17.9266 25.416 17.4147C25.416 16.4303 24.6089 15.623 23.6245 15.623C22.6401 15.623 21.833 16.4303 21.833 17.4147C21.833 18.2219 21.1636 18.8912 20.3564 18.8912C19.5493 18.8912 18.8799 18.2219 18.8799 17.4147C18.8799 14.7962 21.0061 12.6699 23.6245 12.6699C26.243 12.6699 28.3692 14.7962 28.3692 17.4147C28.3692 19.6591 26.7155 20.7812 26.1052 21.1946C25.3373 21.7065 25.1011 22.0412 25.1011 22.5925V23.0059C25.1011 23.8327 24.4317 24.4824 23.6245 24.4824Z" fill="#1560BD"/>
<path d="M23.625 29.3848C22.7981 29.3848 22.1484 28.7154 22.1484 27.9082C22.1484 27.101 22.8178 26.4316 23.625 26.4316C24.4322 26.4316 25.1016 27.101 25.1016 27.9082C25.1016 28.7154 24.4519 29.3848 23.625 29.3848Z" fill="#1560BD"/>
</svg>
