<svg width="38" height="38" viewBox="0 0 38 38" fill="none" xmlns="http://www.w3.org/2000/svg">
<path d="M27.9219 34.1716C27.4375 34.1716 26.9531 34.0466 26.5156 33.781L20.25 30.0622C19.5938 30.0466 18.9375 29.9998 18.3125 29.906C17.8906 29.8435 17.5312 29.5622 17.375 29.1559C17.2187 28.7497 17.2969 28.3122 17.5781 27.9841C18.6094 26.7809 19.1406 25.3435 19.1406 23.8122C19.1406 20.031 15.8125 16.9528 11.7187 16.9528C10.1875 16.9528 8.71874 17.3748 7.48436 18.1873C7.14061 18.406 6.71874 18.4372 6.34374 18.2654C5.98437 18.0935 5.71875 17.7497 5.67188 17.3435C5.625 16.906 5.59375 16.4685 5.59375 16.0154C5.59375 8.26537 12.3125 1.96851 20.5625 1.96851C28.8125 1.96851 35.5313 8.26537 35.5313 16.0154C35.5313 20.2654 33.5625 24.1716 30.0937 26.8435L30.625 31.0935C30.75 32.156 30.2812 33.156 29.3906 33.7342C28.9531 34.0154 28.4375 34.1716 27.9219 34.1716ZM20.5469 27.7028C20.7656 27.6872 20.9844 27.7498 21.1719 27.8748L27.7188 31.7654C27.8906 31.8748 28.0312 31.8279 28.125 31.7654C28.2031 31.7185 28.3281 31.5935 28.2969 31.3748L27.6875 26.4372C27.6406 25.9997 27.8281 25.5779 28.1719 25.3279C31.3594 23.0935 33.1875 19.6872 33.1875 15.9841C33.1875 9.53096 27.5313 4.28098 20.5625 4.28098C13.8594 4.28098 8.35937 9.15604 7.95312 15.281C9.12499 14.8279 10.3906 14.5779 11.7031 14.5779C17.0938 14.5779 21.4688 18.7028 21.4688 23.7809C21.4844 25.1559 21.1562 26.4841 20.5469 27.7028Z" fill="#1560BD"/>
<path d="M7.15577 35.5467C6.74952 35.5467 6.35889 35.4374 5.99951 35.203C5.29639 34.7499 4.92141 33.9686 5.01516 33.1405L5.32765 30.7342C3.21828 29.0154 1.96826 26.4686 1.96826 23.7967C1.96826 20.7498 3.56203 17.9061 6.2339 16.203C7.84328 15.1561 9.74951 14.5936 11.7339 14.5936C17.1245 14.5936 21.4995 18.7186 21.4995 23.7967C21.4995 25.8592 20.7495 27.8905 19.3745 29.4998C17.6089 31.6405 14.9683 32.8904 12.062 32.9842L8.24952 35.2498C7.90577 35.453 7.53077 35.5467 7.15577 35.5467ZM11.7183 16.9374C10.187 16.9374 8.71826 17.3592 7.48388 18.1717C5.48388 19.453 4.2964 21.5467 4.2964 23.7967C4.2964 25.9686 5.3589 27.953 7.2339 29.2342C7.59328 29.4842 7.78077 29.9061 7.73389 30.3436L7.39014 33.0155L11.1245 30.7967C11.312 30.6874 11.5151 30.6248 11.7183 30.6248C14.0151 30.6248 16.187 29.6405 17.562 27.9686C18.5933 26.7499 19.1401 25.3123 19.1401 23.781C19.1401 20.0154 15.812 16.9374 11.7183 16.9374Z" fill="#1560BD"/>
</svg>
