<svg width="37" height="37" viewBox="0 0 37 37" fill="none" xmlns="http://www.w3.org/2000/svg">
<path d="M19.3767 20.626H17.1447V21.616H21.1587V23.2H17.1447V25H14.6787V23.2H13.3287V21.616H14.6787V20.626H13.3287V18.448H14.6787V12.4H19.3767C20.5647 12.4 21.5667 12.808 22.3827 13.624C23.2107 14.44 23.6247 15.424 23.6247 16.576C23.6247 17.728 23.2167 18.694 22.4007 19.474C21.5967 20.242 20.5887 20.626 19.3767 20.626ZM19.3767 14.722H17.1447V18.448H19.3767C19.8807 18.448 20.3007 18.268 20.6367 17.908C20.9847 17.548 21.1587 17.104 21.1587 16.576C21.1587 16.048 20.9847 15.61 20.6367 15.262C20.3007 14.902 19.8807 14.722 19.3767 14.722Z" fill="#1560BD"/>
<circle cx="18.5" cy="18.5" r="17.5" stroke="#1560BD" stroke-width="2"/>
</svg>
