<svg width="17" height="17" viewBox="0 0 17 17" fill="none" xmlns="http://www.w3.org/2000/svg">
<path d="M8.41044 15.9449C7.86379 15.9449 7.33116 15.6645 6.96673 15.174L6.25888 14.2278C6.11171 14.0316 5.91548 13.9195 5.70523 13.9054C5.49498 13.8984 5.28473 13.9895 5.11653 14.1648L4.71705 13.8073L5.10251 14.1648C4.09331 15.244 3.31538 15.1599 2.94394 15.0128C2.56549 14.8656 1.92773 14.382 1.92773 12.8262V4.93478C1.92773 1.82308 2.8248 0.876953 5.76129 0.876953H11.0596C13.9961 0.876953 14.8932 1.82308 14.8932 4.93478V12.8262C14.8932 14.375 14.2554 14.8586 13.8769 15.0128C13.5055 15.1599 12.7346 15.244 11.7184 14.1648C11.5502 13.9825 11.3399 13.8844 11.1227 13.9054C10.9124 13.9195 10.7092 14.0316 10.562 14.2278L9.85416 15.174C9.48973 15.6645 8.95709 15.9449 8.41044 15.9449ZM5.66318 12.8472C5.69121 12.8472 5.72625 12.8472 5.75428 12.8472C6.2729 12.8752 6.76348 13.1485 7.09288 13.5901L7.80072 14.5362C8.14413 14.9917 8.66975 14.9917 9.01316 14.5362L9.721 13.5901C10.0574 13.1485 10.541 12.8752 11.0666 12.8472C11.5852 12.8192 12.1038 13.0364 12.4823 13.4429C13.0149 14.0106 13.3583 14.0807 13.4845 14.0316C13.6527 13.9615 13.8349 13.555 13.8349 12.8262V4.93478C13.8349 2.40477 13.3934 1.9282 11.0526 1.9282H5.76129C3.42051 1.9282 2.97898 2.40477 2.97898 4.93478V12.8262C2.97898 13.562 3.1612 13.9685 3.3294 14.0316C3.44854 14.0807 3.79896 14.0106 4.33159 13.4429C4.71004 13.0574 5.1796 12.8472 5.66318 12.8472Z" fill="#1560BD"/>
<path d="M11.3743 8.23484H7.51977C7.23242 8.23484 6.99414 7.99656 6.99414 7.70922C6.99414 7.42188 7.23242 7.18359 7.51977 7.18359H11.3743C11.6617 7.18359 11.9 7.42188 11.9 7.70922C11.9 7.99656 11.6617 8.23484 11.3743 8.23484Z" fill="#1560BD"/>
<path d="M11.3743 5.43211H7.51977C7.23242 5.43211 6.99414 5.19383 6.99414 4.90648C6.99414 4.61914 7.23242 4.38086 7.51977 4.38086H11.3743C11.6617 4.38086 11.9 4.61914 11.9 4.90648C11.9 5.19383 11.6617 5.43211 11.3743 5.43211Z" fill="#1560BD"/>
<path d="M5.45279 5.60674C5.06733 5.60674 4.75195 5.29137 4.75195 4.90591C4.75195 4.52045 5.06733 4.20508 5.45279 4.20508C5.83825 4.20508 6.15362 4.52045 6.15362 4.90591C6.15362 5.29137 5.83825 5.60674 5.45279 5.60674Z" fill="#1560BD"/>
<path d="M5.45279 8.40948C5.06733 8.40948 4.75195 8.0941 4.75195 7.70865C4.75195 7.32319 5.06733 7.00781 5.45279 7.00781C5.83825 7.00781 6.15362 7.32319 6.15362 7.70865C6.15362 8.0941 5.83825 8.40948 5.45279 8.40948Z" fill="#1560BD"/>
</svg>
