<svg width="52" height="316" viewBox="0 0 52 316" fill="none" xmlns="http://www.w3.org/2000/svg">
<path d="M36.6 112.28C36.6 116.493 35.2133 119.987 32.44 122.76C29.6667 125.507 26.1867 126.88 22 126.88C17.8133 126.88 14.3467 125.507 11.6 122.76C8.8 120.013 7.4 116.52 7.4 112.28C7.4 109.747 8 107.4 9.2 105.24C10.4 103.08 12.0133 101.387 14.04 100.16L17.6 106.36C16.6133 106.893 15.84 107.693 15.28 108.76C14.6933 109.8 14.4 110.973 14.4 112.28C14.4 114.493 15.1067 116.307 16.52 117.72C17.9333 119.08 19.76 119.76 22 119.76C24.2933 119.76 26.1333 119.08 27.52 117.72C28.9067 116.333 29.6 114.52 29.6 112.28C29.6 110.973 29.32 109.8 28.76 108.76C28.1733 107.693 27.3733 106.893 26.36 106.36L29.96 100.16C32.0133 101.387 33.64 103.08 34.84 105.24C36.0133 107.373 36.6 109.72 36.6 112.28ZM25.16 89.9369H29.28L29.28 79.0969L36 79.0969L36 97.0969L8 97.0969L8 79.2969H14.68L14.68 89.9369H18.56L18.56 80.2969H25.16L25.16 89.9369ZM8 75.1906L8 64.3106C8 61.484 8.92 59.1106 10.76 57.1906C12.6 55.2706 14.9467 54.3106 17.8 54.3106C20.6533 54.3106 23 55.2706 24.84 57.1906C26.68 59.1106 27.6 61.484 27.6 64.3106V68.0306L36 68.0306L36 75.1906L8 75.1906ZM20.8 68.0306V64.3106C20.8 63.5106 20.52 62.844 19.96 62.3106C19.4 61.7506 18.68 61.4706 17.8 61.4706C16.92 61.4706 16.2133 61.7506 15.68 62.3106C15.12 62.844 14.84 63.5106 14.84 64.3106L14.84 68.0306H20.8ZM36 28.4587V35.5787L21.92 35.5787L36 45.4587L36 51.0187L8 51.0187L8 43.8587H22.08L8 33.9787L8 28.4587L36 28.4587ZM8 13.9666L8 2.76656L36 2.76656V9.88656H26.96V11.4066L36 17.0466L36 25.0066L25.96 18.6066C25.1867 20.2866 24.0667 21.6066 22.6 22.5666C21.1333 23.5266 19.4933 24.0066 17.68 24.0066C14.8533 24.0066 12.5467 23.0466 10.76 21.1266C8.92 19.2066 8 16.8199 8 13.9666ZM20.88 13.8866V9.88656H14.6V13.8866C14.6 14.7399 14.9067 15.4599 15.52 16.0466C16.1067 16.6066 16.8533 16.8866 17.76 16.8866C18.6933 16.8866 19.4533 16.6066 20.04 16.0466C20.6267 15.4599 20.9067 14.7399 20.88 13.8866Z" fill="#D9D9D9" fill-opacity="0.75"/>
<path d="M38.6 299.796C38.6 304.009 37.2133 307.502 34.44 310.276C31.6667 313.022 28.1867 314.396 24 314.396C19.8133 314.396 16.3467 313.022 13.6 310.276C10.8 307.529 9.4 304.036 9.4 299.796C9.4 297.262 10 294.916 11.2 292.756C12.4 290.596 14.0133 288.902 16.04 287.676L19.6 293.876C18.6133 294.409 17.84 295.209 17.28 296.276C16.6933 297.316 16.4 298.489 16.4 299.796C16.4 302.009 17.1067 303.822 18.52 305.236C19.9333 306.596 21.76 307.276 24 307.276C26.2933 307.276 28.1333 306.596 29.52 305.236C30.9067 303.849 31.6 302.036 31.6 299.796C31.6 298.489 31.32 297.316 30.76 296.276C30.1733 295.209 29.3733 294.409 28.36 293.876L31.96 287.676C34.0133 288.902 35.64 290.596 36.84 292.756C38.0133 294.889 38.6 297.236 38.6 299.796ZM27.16 277.452H31.28L31.28 266.613H38L38 284.612H10L10 266.812H16.68V277.452H20.56L20.56 267.812H27.16L27.16 277.452ZM10 262.706L10 251.826C10 249 10.92 246.626 12.76 244.706C14.6 242.786 16.9467 241.826 19.8 241.826C22.6533 241.826 25 242.786 26.84 244.706C28.68 246.626 29.6 249 29.6 251.826V255.546H38L38 262.706H10ZM22.8 255.546V251.826C22.8 251.026 22.52 250.36 21.96 249.826C21.4 249.266 20.68 248.986 19.8 248.986C18.92 248.986 18.2133 249.266 17.68 249.826C17.12 250.36 16.84 251.026 16.84 251.826L16.84 255.546H22.8ZM38 215.974V223.094H23.92L38 232.974L38 238.534H10L10 231.374H24.08L10 221.494L10 215.974H38ZM10 201.482L10 190.282H38V197.402H28.96V198.922L38 204.562L38 212.522L27.96 206.122C27.1867 207.802 26.0667 209.122 24.6 210.082C23.1333 211.042 21.4933 211.522 19.68 211.522C16.8533 211.522 14.5467 210.562 12.76 208.642C10.92 206.722 10 204.336 10 201.482ZM22.88 201.402V197.402H16.6V201.402C16.6 202.256 16.9067 202.976 17.52 203.562C18.1067 204.122 18.8533 204.402 19.76 204.402C20.6933 204.402 21.4533 204.122 22.04 203.562C22.6267 202.976 22.9067 202.256 22.88 201.402Z" fill="#D9D9D9" fill-opacity="0.75"/>
<path d="M25 150L26.7961 155.528H32.6085L27.9062 158.944L29.7023 164.472L25 161.056L20.2977 164.472L22.0938 158.944L17.3915 155.528H23.2039L25 150Z" fill="#D9D9D9" fill-opacity="0.75"/>
</svg>
