<svg width="48" height="48" viewBox="0 0 48 48" fill="none" xmlns="http://www.w3.org/2000/svg">
<path d="M10.9069 38.4307C9.70597 38.4307 8.58378 38.0173 7.7766 37.2495C6.75285 36.2848 6.26066 34.8279 6.43785 33.2529L7.16628 26.8742C7.3041 25.6732 8.03253 24.0785 8.8791 23.2123L25.0425 6.10385C29.0785 1.83166 33.2916 1.71354 37.5638 5.74947C41.836 9.78541 41.9541 13.9985 37.9182 18.2707L21.7547 35.3792C20.9278 36.2651 19.3922 37.092 18.1913 37.2888L11.8519 38.3717C11.5172 38.3913 11.2219 38.4307 10.9069 38.4307ZM31.3622 5.72978C29.8463 5.72978 28.5272 6.67478 27.1885 8.09228L11.025 25.2204C10.6313 25.6338 10.1785 26.6182 10.0997 27.1892L9.37128 33.5679C9.29254 34.2176 9.45003 34.7492 9.80441 35.0838C10.1588 35.4185 10.6903 35.5367 11.34 35.4382L17.6794 34.3554C18.2503 34.257 19.1953 33.7451 19.5891 33.3317L35.7525 16.2232C38.1938 13.6245 39.0797 11.2226 35.5163 7.87572C33.9413 6.35978 32.5828 5.72978 31.3622 5.72978Z" fill="#1560BD"/>
<path d="M34.1381 21.5572C34.0988 21.5572 34.0397 21.5572 34.0003 21.5572C27.8578 20.9469 22.9163 16.2809 21.9713 10.1778C21.8531 9.37062 22.4044 8.62249 23.2116 8.48468C24.0188 8.36656 24.7669 8.91781 24.9047 9.72499C25.6528 14.4894 29.5116 18.1512 34.3153 18.6237C35.1225 18.7025 35.7131 19.4309 35.6344 20.2381C35.5359 20.9862 34.8863 21.5572 34.1381 21.5572Z" fill="#1560BD"/>
<path d="M41.3438 44.7891H5.90625C5.09906 44.7891 4.42969 44.1197 4.42969 43.3125C4.42969 42.5053 5.09906 41.8359 5.90625 41.8359H41.3438C42.1509 41.8359 42.8203 42.5053 42.8203 43.3125C42.8203 44.1197 42.1509 44.7891 41.3438 44.7891Z" fill="#1560BD"/>
</svg>
