<svg width="52" height="482" viewBox="0 0 52 482" fill="none" xmlns="http://www.w3.org/2000/svg">
<path d="M36.6 195.28C36.6 199.493 35.2133 202.987 32.44 205.76C29.6667 208.507 26.1867 209.88 22 209.88C17.8133 209.88 14.3467 208.507 11.6 205.76C8.8 203.013 7.4 199.52 7.4 195.28C7.4 192.747 8 190.4 9.2 188.24C10.4 186.08 12.0133 184.387 14.04 183.16L17.6 189.36C16.6133 189.893 15.84 190.693 15.28 191.76C14.6933 192.8 14.4 193.973 14.4 195.28C14.4 197.493 15.1067 199.307 16.52 200.72C17.9333 202.08 19.76 202.76 22 202.76C24.2933 202.76 26.1333 202.08 27.52 200.72C28.9067 199.333 29.6 197.52 29.6 195.28C29.6 193.973 29.32 192.8 28.76 191.76C28.1733 190.693 27.3733 189.893 26.36 189.36L29.96 183.16C32.0133 184.387 33.64 186.08 34.84 188.24C36.0133 190.373 36.6 192.72 36.6 195.28ZM8 180.097L8 169.217C8 166.39 8.92 164.017 10.76 162.097C12.6 160.177 14.9467 159.217 17.8 159.217C20.6533 159.217 23 160.177 24.84 162.097C26.68 164.017 27.6 166.39 27.6 169.217L27.6 172.937H36L36 180.097H8ZM20.8 172.937L20.8 169.217C20.8 168.417 20.52 167.75 19.96 167.217C19.4 166.657 18.68 166.377 17.8 166.377C16.92 166.377 16.2133 166.657 15.68 167.217C15.12 167.75 14.84 168.417 14.84 169.217V172.937H20.8ZM25.16 148.765H29.28L29.28 137.925H36L36 155.925H8L8 138.125H14.68L14.68 148.765H18.56L18.56 139.125H25.16L25.16 148.765ZM8 111.459L29.08 111.459V108.459H41.36V115.579H36V128.659H41.36L41.36 135.819H29.08L29.08 132.859C27.0267 131.579 24.0667 130.939 20.2 130.939H8L8 111.459ZM29.08 125.419L29.08 118.579L14.64 118.579L14.64 123.819H20.28C24.04 123.819 26.9733 124.352 29.08 125.419ZM36.6 91.9128C36.6 96.1261 35.2133 99.6195 32.44 102.393C29.6667 105.139 26.1867 106.513 22 106.513C17.8133 106.513 14.3467 105.139 11.6 102.393C8.8 99.6461 7.4 96.1528 7.4 91.9128C7.4 89.3795 8 87.0328 9.2 84.8728C10.4 82.7128 12.0133 81.0195 14.04 79.7928L17.6 85.9928C16.6133 86.5261 15.84 87.3261 15.28 88.3928C14.6933 89.4328 14.4 90.6061 14.4 91.9128C14.4 94.1261 15.1067 95.9395 16.52 97.3528C17.9333 98.7128 19.76 99.3928 22 99.3928C24.2933 99.3928 26.1333 98.7128 27.52 97.3528C28.9067 95.9661 29.6 94.1528 29.6 91.9128C29.6 90.6061 29.32 89.4328 28.76 88.3928C28.1733 87.3261 27.3733 86.5261 26.36 85.9928L29.96 79.7928C32.0133 81.0195 33.64 82.7128 34.84 84.8728C36.0133 87.0061 36.6 89.3528 36.6 91.9128ZM8 78.3734L8 57.3734H14.92L14.92 64.2934H36V71.4534H14.92L14.92 78.3734H8ZM21.52 36.5966C22.9067 34.2499 25 33.0766 27.8 33.0766C30.3067 33.0766 32.2933 33.9299 33.76 35.6366C35.2533 37.3699 36 39.6499 36 42.4766V54.2766H8L8 43.2366C8 40.4099 8.72 38.1699 10.16 36.5166C11.5733 34.8366 13.5067 33.9966 15.96 33.9966C18.3067 33.9966 20.16 34.8632 21.52 36.5966ZM14.4 43.4366L14.4 47.1166H18.8V43.4366C18.8 42.7699 18.6133 42.2232 18.24 41.7966C17.84 41.3699 17.2933 41.1566 16.6 41.1566C15.9333 41.1566 15.4 41.3699 15 41.7966C14.6 42.2232 14.4 42.7699 14.4 43.4366ZM29.6 47.1166V42.6766C29.6 41.9566 29.3867 41.3699 28.96 40.9166C28.5067 40.4632 27.9333 40.2366 27.24 40.2366C26.52 40.2366 25.9467 40.4632 25.52 40.9166C25.0933 41.3699 24.88 41.9566 24.88 42.6766V47.1166H29.6ZM32.4 5.71406C35.2 8.56739 36.6 12.0341 36.6 16.1141C36.6 20.2474 35.2 23.7274 32.4 26.5541C29.5733 29.3807 26.1067 30.7941 22 30.7941C17.8933 30.7941 14.44 29.3807 11.64 26.5541C8.81333 23.7274 7.4 20.2474 7.4 16.1141C7.4 12.0074 8.81333 8.54073 11.64 5.71406C14.44 2.86073 17.8933 1.43406 22 1.43406C26.08 1.43406 29.5467 2.86073 32.4 5.71406ZM27.48 21.5141C28.8933 20.0474 29.6 18.2474 29.6 16.1141C29.6 13.9807 28.8933 12.1807 27.48 10.7141C26.04 9.27406 24.2133 8.55406 22 8.55406C19.76 8.55406 17.9467 9.27406 16.56 10.7141C15.12 12.1541 14.4 13.9541 14.4 16.1141C14.4 18.2741 15.12 20.0741 16.56 21.5141C17.9467 22.9541 19.76 23.6741 22 23.6741C24.2133 23.6741 26.04 22.9541 27.48 21.5141Z" fill="#D9D9D9" fill-opacity="0.75"/>
<path d="M38.6 466.28C38.6 470.493 37.2133 473.987 34.44 476.76C31.6667 479.507 28.1867 480.88 24 480.88C19.8133 480.88 16.3467 479.507 13.6 476.76C10.8 474.013 9.4 470.52 9.4 466.28C9.4 463.747 10 461.4 11.2 459.24C12.4 457.08 14.0133 455.387 16.04 454.16L19.6 460.36C18.6133 460.893 17.84 461.693 17.28 462.76C16.6933 463.8 16.4 464.973 16.4 466.28C16.4 468.493 17.1067 470.307 18.52 471.72C19.9333 473.08 21.76 473.76 24 473.76C26.2933 473.76 28.1333 473.08 29.52 471.72C30.9067 470.333 31.6 468.52 31.6 466.28C31.6 464.973 31.32 463.8 30.76 462.76C30.1733 461.693 29.3733 460.893 28.36 460.36L31.96 454.16C34.0133 455.387 35.64 457.08 36.84 459.24C38.0133 461.373 38.6 463.72 38.6 466.28ZM10 451.097L10 440.217C10 437.39 10.92 435.017 12.76 433.097C14.6 431.177 16.9467 430.217 19.8 430.217C22.6533 430.217 25 431.177 26.84 433.097C28.68 435.017 29.6 437.39 29.6 440.217L29.6 443.937H38L38 451.097H10ZM22.8 443.937L22.8 440.217C22.8 439.417 22.52 438.75 21.96 438.217C21.4 437.657 20.68 437.377 19.8 437.377C18.92 437.377 18.2133 437.657 17.68 438.217C17.12 438.75 16.84 439.417 16.84 440.217V443.937H22.8ZM27.16 419.765H31.28L31.28 408.925H38L38 426.925H10L10 409.125H16.68V419.765H20.56L20.56 410.125H27.16L27.16 419.765ZM10 382.459H31.08V379.459H43.36V386.579H38V399.659H43.36L43.36 406.819H31.08L31.08 403.859C29.0267 402.579 26.0667 401.939 22.2 401.939H10L10 382.459ZM31.08 396.419L31.08 389.579H16.64V394.819H22.28C26.04 394.819 28.9733 395.352 31.08 396.419ZM38.6 362.913C38.6 367.126 37.2133 370.619 34.44 373.393C31.6667 376.139 28.1867 377.513 24 377.513C19.8133 377.513 16.3467 376.139 13.6 373.393C10.8 370.646 9.4 367.153 9.4 362.913C9.4 360.379 10 358.033 11.2 355.873C12.4 353.713 14.0133 352.019 16.04 350.793L19.6 356.993C18.6133 357.526 17.84 358.326 17.28 359.393C16.6933 360.433 16.4 361.606 16.4 362.913C16.4 365.126 17.1067 366.939 18.52 368.353C19.9333 369.713 21.76 370.393 24 370.393C26.2933 370.393 28.1333 369.713 29.52 368.353C30.9067 366.966 31.6 365.153 31.6 362.913C31.6 361.606 31.32 360.433 30.76 359.393C30.1733 358.326 29.3733 357.526 28.36 356.993L31.96 350.793C34.0133 352.019 35.64 353.713 36.84 355.873C38.0133 358.006 38.6 360.353 38.6 362.913ZM10 349.373L10 328.373H16.92L16.92 335.293H38V342.453H16.92V349.373H10ZM23.52 307.597C24.9067 305.25 27 304.077 29.8 304.077C32.3067 304.077 34.2933 304.93 35.76 306.637C37.2533 308.37 38 310.65 38 313.477V325.277H10L10 314.237C10 311.41 10.72 309.17 12.16 307.517C13.5733 305.837 15.5067 304.997 17.96 304.997C20.3067 304.997 22.16 305.863 23.52 307.597ZM16.4 314.437V318.117H20.8V314.437C20.8 313.77 20.6133 313.223 20.24 312.797C19.84 312.37 19.2933 312.157 18.6 312.157C17.9333 312.157 17.4 312.37 17 312.797C16.6 313.223 16.4 313.77 16.4 314.437ZM31.6 318.117V313.677C31.6 312.957 31.3867 312.37 30.96 311.917C30.5067 311.463 29.9333 311.237 29.24 311.237C28.52 311.237 27.9467 311.463 27.52 311.917C27.0933 312.37 26.88 312.957 26.88 313.677V318.117H31.6ZM34.4 276.714C37.2 279.567 38.6 283.034 38.6 287.114C38.6 291.247 37.2 294.727 34.4 297.554C31.5733 300.381 28.1067 301.794 24 301.794C19.8933 301.794 16.44 300.381 13.64 297.554C10.8133 294.727 9.4 291.247 9.4 287.114C9.4 283.007 10.8133 279.541 13.64 276.714C16.44 273.861 19.8933 272.434 24 272.434C28.08 272.434 31.5467 273.861 34.4 276.714ZM29.48 292.514C30.8933 291.047 31.6 289.247 31.6 287.114C31.6 284.981 30.8933 283.181 29.48 281.714C28.04 280.274 26.2133 279.554 24 279.554C21.76 279.554 19.9467 280.274 18.56 281.714C17.12 283.154 16.4 284.954 16.4 287.114C16.4 289.274 17.12 291.074 18.56 292.514C19.9467 293.954 21.76 294.674 24 294.674C26.2133 294.674 28.04 293.954 29.48 292.514Z" fill="#D9D9D9" fill-opacity="0.75"/>
<path d="M25 233L26.7961 238.528H32.6085L27.9062 241.944L29.7023 247.472L25 244.056L20.2977 247.472L22.0938 241.944L17.3915 238.528H23.2039L25 233Z" fill="#D9D9D9" fill-opacity="0.75"/>
</svg>
