<svg width="52" height="466" viewBox="0 0 52 466" fill="none" xmlns="http://www.w3.org/2000/svg">
<path d="M21.52 183.12C22.9067 180.773 25 179.6 27.8 179.6C30.3067 179.6 32.2933 180.453 33.76 182.16C35.2533 183.893 36 186.173 36 189L36 200.8H8L8 189.76C8 186.933 8.72 184.693 10.16 183.04C11.5733 181.36 13.5067 180.52 15.96 180.52C18.3067 180.52 20.16 181.387 21.52 183.12ZM14.4 189.96V193.64H18.8V189.96C18.8 189.293 18.6133 188.747 18.24 188.32C17.84 187.893 17.2933 187.68 16.6 187.68C15.9333 187.68 15.4 187.893 15 188.32C14.6 188.747 14.4 189.293 14.4 189.96ZM29.6 193.64V189.2C29.6 188.48 29.3867 187.893 28.96 187.44C28.5067 186.987 27.9333 186.76 27.24 186.76C26.52 186.76 25.9467 186.987 25.52 187.44C25.0933 187.893 24.88 188.48 24.88 189.2V193.64H29.6ZM32.4 152.237C35.2 155.091 36.6 158.557 36.6 162.637C36.6 166.771 35.2 170.251 32.4 173.077C29.5733 175.904 26.1067 177.317 22 177.317C17.8933 177.317 14.44 175.904 11.64 173.077C8.81333 170.251 7.4 166.771 7.4 162.637C7.4 158.531 8.81333 155.064 11.64 152.237C14.44 149.384 17.8933 147.957 22 147.957C26.08 147.957 29.5467 149.384 32.4 152.237ZM27.48 168.037C28.8933 166.571 29.6 164.771 29.6 162.637C29.6 160.504 28.8933 158.704 27.48 157.237C26.04 155.797 24.2133 155.077 22 155.077C19.76 155.077 17.9467 155.797 16.56 157.237C15.12 158.677 14.4 160.477 14.4 162.637C14.4 164.797 15.12 166.597 16.56 168.037C17.9467 169.477 19.76 170.197 22 170.197C24.2133 170.197 26.04 169.477 27.48 168.037ZM8 144.136L8 122.536L36 122.536V129.696H14.92L14.92 136.976H36V144.136H8ZM8 117.62L8 106.74C8 103.914 8.92 101.54 10.76 99.6203C12.6 97.7003 14.9467 96.7403 17.8 96.7403C20.6533 96.7403 23 97.7003 24.84 99.6203C26.68 101.54 27.6 103.914 27.6 106.74V110.46H36V117.62L8 117.62ZM20.8 110.46V106.74C20.8 105.94 20.52 105.274 19.96 104.74C19.4 104.18 18.68 103.9 17.8 103.9C16.92 103.9 16.2133 104.18 15.68 104.74C15.12 105.274 14.84 105.94 14.84 106.74L14.84 110.46H20.8ZM32.4 69.4875C35.2 72.3408 36.6 75.8075 36.6 79.8875C36.6 84.0208 35.2 87.5008 32.4 90.3275C29.5733 93.1542 26.1067 94.5675 22 94.5675C17.8933 94.5675 14.44 93.1542 11.64 90.3275C8.81333 87.5008 7.4 84.0208 7.4 79.8875C7.4 75.7808 8.81333 72.3142 11.64 69.4875C14.44 66.6342 17.8933 65.2075 22 65.2075C26.08 65.2075 29.5467 66.6342 32.4 69.4875ZM27.48 85.2875C28.8933 83.8208 29.6 82.0208 29.6 79.8875C29.6 77.7542 28.8933 75.9542 27.48 74.4875C26.04 73.0475 24.2133 72.3275 22 72.3275C19.76 72.3275 17.9467 73.0475 16.56 74.4875C15.12 75.9275 14.4 77.7275 14.4 79.8875C14.4 82.0475 15.12 83.8475 16.56 85.2875C17.9467 86.7275 19.76 87.4475 22 87.4475C24.2133 87.4475 26.04 86.7275 27.48 85.2875ZM36.6 47.8659C36.6 52.0793 35.2133 55.5726 32.44 58.3459C29.6667 61.0926 26.1867 62.4659 22 62.4659C17.8133 62.4659 14.3467 61.0926 11.6 58.3459C8.8 55.5993 7.4 52.1059 7.4 47.8659C7.4 45.3326 8 42.9859 9.2 40.8259C10.4 38.6659 12.0133 36.9726 14.04 35.7459L17.6 41.9459C16.6133 42.4793 15.84 43.2793 15.28 44.3459C14.6933 45.3859 14.4 46.5593 14.4 47.8659C14.4 50.0793 15.1067 51.8926 16.52 53.3059C17.9333 54.6659 19.76 55.3459 22 55.3459C24.2933 55.3459 26.1333 54.6659 27.52 53.3059C28.9067 51.9193 29.6 50.1059 29.6 47.8659C29.6 46.5593 29.32 45.3859 28.76 44.3459C28.1733 43.2793 27.3733 42.4793 26.36 41.9459L29.96 35.7459C32.0133 36.9726 33.64 38.6659 34.84 40.8259C36.0133 42.9593 36.6 45.3059 36.6 47.8659ZM36 21.8028L36 32.6828H8L8 25.5228H16.4L16.4 21.8028C16.4 18.9495 17.3333 16.5761 19.2 14.6828C21.04 12.7628 23.3733 11.8028 26.2 11.8028C29.0533 11.8028 31.4 12.7628 33.24 14.6828C35.08 16.6028 36 18.9761 36 21.8028ZM36 2.36281L36 9.48281H8L8 2.36281H36ZM23.24 25.5228H29.2L29.2 21.8028C29.2 21.0028 28.92 20.3361 28.36 19.8028C27.8 19.2428 27.08 18.9628 26.2 18.9628C25.32 18.9628 24.6133 19.2428 24.08 19.8028C23.52 20.3361 23.24 21.0028 23.24 21.8028L23.24 25.5228Z" fill="#D9D9D9" fill-opacity="0.75"/>
<path d="M23.52 446.12C24.9067 443.773 27 442.6 29.8 442.6C32.3067 442.6 34.2933 443.453 35.76 445.16C37.2533 446.893 38 449.173 38 452L38 463.8H10L10 452.76C10 449.933 10.72 447.693 12.16 446.04C13.5733 444.36 15.5067 443.52 17.96 443.52C20.3067 443.52 22.16 444.387 23.52 446.12ZM16.4 452.96V456.64H20.8V452.96C20.8 452.293 20.6133 451.747 20.24 451.32C19.84 450.893 19.2933 450.68 18.6 450.68C17.9333 450.68 17.4 450.893 17 451.32C16.6 451.747 16.4 452.293 16.4 452.96ZM31.6 456.64V452.2C31.6 451.48 31.3867 450.893 30.96 450.44C30.5067 449.987 29.9333 449.76 29.24 449.76C28.52 449.76 27.9467 449.987 27.52 450.44C27.0933 450.893 26.88 451.48 26.88 452.2V456.64H31.6ZM34.4 415.237C37.2 418.091 38.6 421.557 38.6 425.637C38.6 429.771 37.2 433.251 34.4 436.077C31.5733 438.904 28.1067 440.317 24 440.317C19.8933 440.317 16.44 438.904 13.64 436.077C10.8133 433.251 9.4 429.771 9.4 425.637C9.4 421.531 10.8133 418.064 13.64 415.237C16.44 412.384 19.8933 410.957 24 410.957C28.08 410.957 31.5467 412.384 34.4 415.237ZM29.48 431.037C30.8933 429.571 31.6 427.771 31.6 425.637C31.6 423.504 30.8933 421.704 29.48 420.237C28.04 418.797 26.2133 418.077 24 418.077C21.76 418.077 19.9467 418.797 18.56 420.237C17.12 421.677 16.4 423.477 16.4 425.637C16.4 427.797 17.12 429.597 18.56 431.037C19.9467 432.477 21.76 433.197 24 433.197C26.2133 433.197 28.04 432.477 29.48 431.037ZM10 407.136L10 385.536H38V392.696H16.92V399.976H38V407.136H10ZM10 380.62L10 369.74C10 366.914 10.92 364.54 12.76 362.62C14.6 360.7 16.9467 359.74 19.8 359.74C22.6533 359.74 25 360.7 26.84 362.62C28.68 364.54 29.6 366.914 29.6 369.74V373.46H38V380.62H10ZM22.8 373.46V369.74C22.8 368.94 22.52 368.274 21.96 367.74C21.4 367.18 20.68 366.9 19.8 366.9C18.92 366.9 18.2133 367.18 17.68 367.74C17.12 368.274 16.84 368.94 16.84 369.74V373.46H22.8ZM34.4 332.487C37.2 335.341 38.6 338.807 38.6 342.887C38.6 347.021 37.2 350.501 34.4 353.327C31.5733 356.154 28.1067 357.567 24 357.567C19.8933 357.567 16.44 356.154 13.64 353.327C10.8133 350.501 9.4 347.021 9.4 342.887C9.4 338.781 10.8133 335.314 13.64 332.487C16.44 329.634 19.8933 328.207 24 328.207C28.08 328.207 31.5467 329.634 34.4 332.487ZM29.48 348.287C30.8933 346.821 31.6 345.021 31.6 342.887C31.6 340.754 30.8933 338.954 29.48 337.487C28.04 336.047 26.2133 335.327 24 335.327C21.76 335.327 19.9467 336.047 18.56 337.487C17.12 338.927 16.4 340.727 16.4 342.887C16.4 345.047 17.12 346.847 18.56 348.287C19.9467 349.727 21.76 350.447 24 350.447C26.2133 350.447 28.04 349.727 29.48 348.287ZM38.6 310.866C38.6 315.079 37.2133 318.573 34.44 321.346C31.6667 324.093 28.1867 325.466 24 325.466C19.8133 325.466 16.3467 324.093 13.6 321.346C10.8 318.599 9.4 315.106 9.4 310.866C9.4 308.333 10 305.986 11.2 303.826C12.4 301.666 14.0133 299.973 16.04 298.746L19.6 304.946C18.6133 305.479 17.84 306.279 17.28 307.346C16.6933 308.386 16.4 309.559 16.4 310.866C16.4 313.079 17.1067 314.893 18.52 316.306C19.9333 317.666 21.76 318.346 24 318.346C26.2933 318.346 28.1333 317.666 29.52 316.306C30.9067 314.919 31.6 313.106 31.6 310.866C31.6 309.559 31.32 308.386 30.76 307.346C30.1733 306.279 29.3733 305.479 28.36 304.946L31.96 298.746C34.0133 299.973 35.64 301.666 36.84 303.826C38.0133 305.959 38.6 308.306 38.6 310.866ZM38 284.803L38 295.683H10V288.523H18.4L18.4 284.803C18.4 281.949 19.3333 279.576 21.2 277.683C23.04 275.763 25.3733 274.803 28.2 274.803C31.0533 274.803 33.4 275.763 35.24 277.683C37.08 279.603 38 281.976 38 284.803ZM38 265.363L38 272.483H10V265.363H38ZM25.24 288.523H31.2L31.2 284.803C31.2 284.003 30.92 283.336 30.36 282.803C29.8 282.243 29.08 281.963 28.2 281.963C27.32 281.963 26.6133 282.243 26.08 282.803C25.52 283.336 25.24 284.003 25.24 284.803L25.24 288.523Z" fill="#D9D9D9" fill-opacity="0.75"/>
<path d="M25 225L26.7961 230.528H32.6085L27.9062 233.944L29.7023 239.472L25 236.056L20.2977 239.472L22.0938 233.944L17.3915 230.528H23.2039L25 225Z" fill="#D9D9D9" fill-opacity="0.75"/>
</svg>
