<svg width="30" height="31" viewBox="0 0 30 31" fill="none" xmlns="http://www.w3.org/2000/svg">
<path d="M14.9896 30.3171C6.72091 30.3171 0 23.5962 0 15.3275C0 7.0588 6.72091 0.337891 14.9896 0.337891C23.2583 0.337891 29.9792 7.0588 29.9792 15.3275C29.9792 23.5962 23.2583 30.3171 14.9896 30.3171ZM14.9896 2.42946C7.87825 2.42946 2.09157 8.21614 2.09157 15.3275C2.09157 22.4388 7.87825 28.2255 14.9896 28.2255C22.1009 28.2255 27.8876 22.4388 27.8876 15.3275C27.8876 8.21614 22.1009 2.42946 14.9896 2.42946Z" fill="#D9D9D9"/>
<path d="M15.3892 19.4745C15.1104 19.4745 14.8733 19.3839 14.6781 19.2026C14.4968 19.0213 14.4062 18.7843 14.4062 18.4915C14.4062 17.9476 14.5456 17.355 14.8245 16.7136C15.1034 16.0583 15.5147 15.4866 16.0585 14.9985C16.4629 14.6499 16.8394 14.3013 17.188 13.9527C17.5505 13.6041 17.8364 13.2137 18.0455 12.7815C18.2686 12.3353 18.3802 11.7915 18.3802 11.15C18.3802 10.662 18.2617 10.2088 18.0246 9.79052C17.8015 9.3722 17.4808 9.03755 17.0625 8.78656C16.6442 8.53557 16.1352 8.41008 15.5356 8.41008C14.8524 8.41008 14.2737 8.54255 13.7996 8.80748C13.3395 9.07241 12.9909 9.44192 12.7539 9.91601C12.5168 10.3762 12.3983 10.92 12.3983 11.5474C12.3983 11.8263 12.3077 12.0564 12.1264 12.2377C11.9451 12.4189 11.715 12.5096 11.4362 12.5096C11.1573 12.5096 10.9202 12.4189 10.725 12.2377C10.5438 12.0564 10.4531 11.8263 10.4531 11.5474C10.4531 10.5714 10.6623 9.7208 11.0806 8.99572C11.5129 8.2567 12.1055 7.67803 12.8584 7.25972C13.6253 6.82746 14.5177 6.61133 15.5356 6.61133C16.4559 6.61133 17.2716 6.80654 17.9828 7.19697C18.6939 7.58739 19.2517 8.12423 19.656 8.80748C20.0744 9.49072 20.2835 10.2785 20.2835 11.171C20.2835 11.9518 20.151 12.6281 19.8861 13.1998C19.6351 13.7575 19.2865 14.2665 18.8403 14.7266C18.4081 15.1728 17.9131 15.626 17.3553 16.0861C16.9649 16.4208 16.6999 16.8252 16.5605 17.2993C16.4211 17.7733 16.3514 18.1707 16.3514 18.4915C16.3514 18.7843 16.2607 19.0213 16.0795 19.2026C15.8982 19.3839 15.6681 19.4745 15.3892 19.4745ZM15.3892 23.2811C15.0127 23.2811 14.692 23.1487 14.4271 22.8838C14.1622 22.6188 14.0297 22.2981 14.0297 21.9216C14.0297 21.5451 14.1622 21.2244 14.4271 20.9595C14.692 20.6806 15.0127 20.5412 15.3892 20.5412C15.7657 20.5412 16.0864 20.6806 16.3514 20.9595C16.6163 21.2244 16.7488 21.5451 16.7488 21.9216C16.7488 22.2981 16.6163 22.6188 16.3514 22.8838C16.0864 23.1487 15.7657 23.2811 15.3892 23.2811Z" fill="#D9D9D9"/>
</svg>
