<svg width="104" height="19" xmlns="http://www.w3.org/2000/svg" fill="none">

 <g>
  <title>Layer 1</title>
  <path id="svg_5" fill="#1560BD" d="m99.1855,17.5671c-0.403,0 -0.9201,-0.1274 -1.5665,-0.5023l-2.2736,-1.3268c-0.2357,-0.1349 -0.692,-0.1349 -0.9201,0l-2.2812,1.3268c-1.346,0.7872 -2.1368,0.4723 -2.4942,0.2174c-0.3498,-0.2548 -0.8973,-0.907 -0.5399,-2.4063l0.5399,-2.3013c0.0608,-0.2399 -0.0608,-0.6522 -0.2433,-0.8321l-1.8858,-1.85911c-0.9429,-0.92954 -0.8669,-1.72415 -0.7376,-2.11396c0.1292,-0.3898 0.5399,-1.07946 1.8478,-1.29686l2.4257,-0.3973c0.2281,-0.03748 0.5551,-0.27736 0.6539,-0.47976l1.346,-2.64619c0.6083,-1.20691 1.4067,-1.38682 1.8249,-1.38682c0.4183,0 1.2167,0.17991 1.825,1.38682l1.3384,2.63869c0.1064,0.2024 0.4334,0.44228 0.6615,0.47976l2.4256,0.39731c1.316,0.21739 1.726,0.90705 1.848,1.29686c0.122,0.38981 0.198,1.18441 -0.738,2.11395l-1.885,1.86661c-0.183,0.1799 -0.297,0.5847 -0.244,0.8321l0.54,2.3013c0.35,1.4993 -0.19,2.1515 -0.54,2.4063c-0.1899,0.135 -0.4941,0.2849 -0.9275,0.2849zm-4.304,-3.0585c0.3727,0 0.7453,0.09 1.0418,0.2624l2.2736,1.3268c0.6616,0.3898 1.0798,0.3898 1.2395,0.2774c0.1597,-0.1125 0.2738,-0.5098 0.1065,-1.2444l-0.5399,-2.3014c-0.1445,-0.6222 0.0912,-1.4243 0.5475,-1.8815l1.8855,-1.85912c0.373,-0.36732 0.54,-0.72714 0.464,-0.97452c-0.083,-0.24737 -0.433,-0.44977 -0.95,-0.53223l-2.4261,-0.39731c-0.5855,-0.09745 -1.2242,-0.56222 -1.4904,-1.08696l-1.3383,-2.6387c-0.2433,-0.47976 -0.5475,-0.76462 -0.8137,-0.76462c-0.2661,0 -0.5703,0.28486 -0.806,0.76462l-1.3459,2.6387c-0.2662,0.52474 -0.9049,0.98951 -1.4904,1.08696l-2.4181,0.39731c-0.5171,0.08246 -0.8669,0.28486 -0.9505,0.53223c-0.0837,0.24738 0.0912,0.6147 0.4638,0.97452l1.8858,1.85912c0.4563,0.4497 0.692,1.2593 0.5475,1.8815l-0.5399,2.3014c-0.1749,0.7421 -0.0532,1.1319 0.1065,1.2444c0.1597,0.1124 0.5703,0.1049 1.2395,-0.2774l2.2736,-1.3268c0.2889,-0.1724 0.6615,-0.2624 1.0341,-0.2624z"/>
  <path id="svg_6" fill="#1560BD" d="m77.79309,17.44052c-0.403,0 -0.9201,-0.1274 -1.5665,-0.5023l-2.2736,-1.3268c-0.2357,-0.1349 -0.692,-0.1349 -0.9201,0l-2.2812,1.3268c-1.346,0.7872 -2.1368,0.4723 -2.4942,0.2174c-0.3498,-0.2548 -0.8973,-0.907 -0.5399,-2.4063l0.5399,-2.3013c0.0608,-0.2399 -0.0608,-0.6522 -0.2433,-0.8321l-1.8858,-1.85911c-0.9429,-0.92954 -0.8669,-1.72415 -0.7376,-2.11396c0.1292,-0.3898 0.5399,-1.07946 1.8478,-1.29686l2.4257,-0.3973c0.2281,-0.03748 0.5551,-0.27736 0.6539,-0.47976l1.346,-2.64619c0.6083,-1.20691 1.4067,-1.38682 1.8249,-1.38682c0.4183,0 1.2167,0.17991 1.825,1.38682l1.3384,2.63869c0.1064,0.2024 0.4334,0.44228 0.6615,0.47976l2.4256,0.39731c1.316,0.21739 1.726,0.90705 1.848,1.29686c0.122,0.38981 0.198,1.18441 -0.738,2.11395l-1.885,1.86661c-0.183,0.1799 -0.297,0.5847 -0.244,0.8321l0.54,2.3013c0.35,1.4993 -0.19,2.1515 -0.54,2.4063c-0.1899,0.135 -0.4941,0.2849 -0.9275,0.2849zm-4.304,-3.0585c0.3727,0 0.7453,0.09 1.0418,0.2624l2.2736,1.3268c0.6616,0.3898 1.0798,0.3898 1.2395,0.2774c0.1597,-0.1125 0.2738,-0.5098 0.1065,-1.2444l-0.5399,-2.3014c-0.1445,-0.6222 0.0912,-1.4243 0.5475,-1.8815l1.8855,-1.85912c0.373,-0.36732 0.54,-0.72714 0.464,-0.97452c-0.083,-0.24737 -0.433,-0.44977 -0.95,-0.53223l-2.4261,-0.39731c-0.5855,-0.09745 -1.2242,-0.56222 -1.4904,-1.08696l-1.3383,-2.6387c-0.2433,-0.47976 -0.5475,-0.76462 -0.8137,-0.76462c-0.2661,0 -0.5703,0.28486 -0.806,0.76462l-1.3459,2.6387c-0.2662,0.52474 -0.9049,0.98951 -1.4904,1.08696l-2.4181,0.39731c-0.5171,0.08246 -0.8669,0.28486 -0.9505,0.53223c-0.0837,0.24738 0.0912,0.6147 0.4638,0.97452l1.8858,1.85912c0.4563,0.4497 0.692,1.2593 0.5475,1.8815l-0.5399,2.3014c-0.1749,0.7421 -0.0532,1.1319 0.1065,1.2444c0.1597,0.1124 0.5703,0.1049 1.2395,-0.2774l2.2736,-1.3268c0.2889,-0.1724 0.6615,-0.2624 1.0341,-0.2624z"/>
  <path id="svg_7" fill="#1560BD" d="m56.27411,17.5671c-0.403,0 -0.9201,-0.1274 -1.5665,-0.5023l-2.2736,-1.3268c-0.2357,-0.1349 -0.692,-0.1349 -0.9201,0l-2.2812,1.3268c-1.346,0.7872 -2.1368,0.4723 -2.4942,0.2174c-0.3498,-0.2548 -0.8973,-0.907 -0.5399,-2.4063l0.5399,-2.3013c0.0608,-0.2399 -0.0608,-0.6522 -0.2433,-0.8321l-1.8858,-1.85911c-0.9429,-0.92954 -0.8669,-1.72415 -0.7376,-2.11396c0.1292,-0.3898 0.5399,-1.07946 1.8478,-1.29686l2.4257,-0.3973c0.2281,-0.03748 0.5551,-0.27736 0.6539,-0.47976l1.346,-2.64619c0.6083,-1.20691 1.4067,-1.38682 1.8249,-1.38682c0.4183,0 1.2167,0.17991 1.825,1.38682l1.3384,2.63869c0.1064,0.2024 0.4334,0.44228 0.6615,0.47976l2.4256,0.39731c1.316,0.21739 1.726,0.90705 1.848,1.29686c0.122,0.38981 0.198,1.18441 -0.738,2.11395l-1.885,1.86661c-0.183,0.1799 -0.297,0.5847 -0.244,0.8321l0.54,2.3013c0.35,1.4993 -0.19,2.1515 -0.54,2.4063c-0.1899,0.135 -0.4941,0.2849 -0.9275,0.2849zm-4.304,-3.0585c0.3727,0 0.7453,0.09 1.0418,0.2624l2.2736,1.3268c0.6616,0.3898 1.0798,0.3898 1.2395,0.2774c0.1597,-0.1125 0.2738,-0.5098 0.1065,-1.2444l-0.5399,-2.3014c-0.1445,-0.6222 0.0912,-1.4243 0.5475,-1.8815l1.8855,-1.85912c0.373,-0.36732 0.54,-0.72714 0.464,-0.97452c-0.083,-0.24737 -0.433,-0.44977 -0.95,-0.53223l-2.4261,-0.39731c-0.5855,-0.09745 -1.2242,-0.56222 -1.4904,-1.08696l-1.3383,-2.6387c-0.2433,-0.47976 -0.5475,-0.76462 -0.8137,-0.76462c-0.2661,0 -0.5703,0.28486 -0.806,0.76462l-1.3459,2.6387c-0.2662,0.52474 -0.9049,0.98951 -1.4904,1.08696l-2.4181,0.39731c-0.5171,0.08246 -0.8669,0.28486 -0.9505,0.53223c-0.0837,0.24738 0.0912,0.6147 0.4638,0.97452l1.8858,1.85912c0.4563,0.4497 0.692,1.2593 0.5475,1.8815l-0.5399,2.3014c-0.1749,0.7421 -0.0532,1.1319 0.1065,1.2444c0.1597,0.1124 0.5703,0.1049 1.2395,-0.2774l2.2736,-1.3268c0.2889,-0.1724 0.6615,-0.2624 1.0341,-0.2624z"/>
  <path id="svg_8" fill="#1560BD" d="m34.8817,17.5671c-0.403,0 -0.9201,-0.1274 -1.5665,-0.5023l-2.2736,-1.3268c-0.2357,-0.1349 -0.692,-0.1349 -0.9201,0l-2.2812,1.3268c-1.346,0.7872 -2.1368,0.4723 -2.4942,0.2174c-0.3498,-0.2548 -0.8973,-0.907 -0.5399,-2.4063l0.5399,-2.3013c0.0608,-0.2399 -0.0608,-0.6522 -0.2433,-0.8321l-1.8858,-1.85911c-0.9429,-0.92954 -0.8669,-1.72415 -0.7376,-2.11396c0.1292,-0.3898 0.5399,-1.07946 1.8478,-1.29686l2.4257,-0.3973c0.2281,-0.03748 0.5551,-0.27736 0.6539,-0.47976l1.346,-2.64619c0.6083,-1.20691 1.4067,-1.38682 1.8249,-1.38682c0.4183,0 1.2167,0.17991 1.825,1.38682l1.3384,2.63869c0.1064,0.2024 0.4334,0.44228 0.6615,0.47976l2.4256,0.39731c1.316,0.21739 1.726,0.90705 1.848,1.29686c0.122,0.38981 0.198,1.18441 -0.738,2.11395l-1.885,1.86661c-0.183,0.1799 -0.297,0.5847 -0.244,0.8321l0.54,2.3013c0.35,1.4993 -0.19,2.1515 -0.54,2.4063c-0.1899,0.135 -0.4941,0.2849 -0.9275,0.2849zm-4.304,-3.0585c0.3727,0 0.7453,0.09 1.0418,0.2624l2.2736,1.3268c0.6616,0.3898 1.0798,0.3898 1.2395,0.2774c0.1597,-0.1125 0.2738,-0.5098 0.1065,-1.2444l-0.5399,-2.3014c-0.1445,-0.6222 0.0912,-1.4243 0.5475,-1.8815l1.8855,-1.85912c0.373,-0.36732 0.54,-0.72714 0.464,-0.97452c-0.083,-0.24737 -0.433,-0.44977 -0.95,-0.53223l-2.4261,-0.39731c-0.5855,-0.09745 -1.2242,-0.56222 -1.4904,-1.08696l-1.3383,-2.6387c-0.2433,-0.47976 -0.5475,-0.76462 -0.8137,-0.76462c-0.2661,0 -0.5703,0.28486 -0.806,0.76462l-1.3459,2.6387c-0.2662,0.52474 -0.9049,0.98951 -1.4904,1.08696l-2.4181,0.39731c-0.5171,0.08246 -0.8669,0.28486 -0.9505,0.53223c-0.0837,0.24738 0.0912,0.6147 0.4638,0.97452l1.8858,1.85912c0.4563,0.4497 0.692,1.2593 0.5475,1.8815l-0.5399,2.3014c-0.1749,0.7421 -0.0532,1.1319 0.1065,1.2444c0.1597,0.1124 0.5703,0.1049 1.2395,-0.2774l2.2736,-1.3268c0.2889,-0.1724 0.6615,-0.2624 1.0341,-0.2624z"/>
  <path id="svg_9" fill="#1560BD" d="m13.48929,17.5671c-0.403,0 -0.9201,-0.1274 -1.5665,-0.5023l-2.2736,-1.3268c-0.2357,-0.1349 -0.692,-0.1349 -0.9201,0l-2.2812,1.3268c-1.346,0.7872 -2.1368,0.4723 -2.4942,0.2174c-0.3498,-0.2548 -0.8973,-0.907 -0.5399,-2.4063l0.5399,-2.3013c0.0608,-0.2399 -0.0608,-0.6522 -0.2433,-0.8321l-1.8858,-1.85911c-0.9429,-0.92954 -0.8669,-1.72415 -0.7376,-2.11396c0.1292,-0.3898 0.5399,-1.07946 1.8478,-1.29686l2.4257,-0.3973c0.2281,-0.03748 0.5551,-0.27736 0.6539,-0.47976l1.346,-2.64619c0.6083,-1.20691 1.4067,-1.38682 1.8249,-1.38682c0.4183,0 1.2167,0.17991 1.825,1.38682l1.3384,2.63869c0.1064,0.2024 0.4334,0.44228 0.6615,0.47976l2.4256,0.39731c1.316,0.21739 1.726,0.90705 1.848,1.29686c0.122,0.38981 0.198,1.18441 -0.738,2.11395l-1.885,1.86661c-0.183,0.1799 -0.297,0.5847 -0.244,0.8321l0.54,2.3013c0.35,1.4993 -0.19,2.1515 -0.54,2.4063c-0.1899,0.135 -0.4941,0.2849 -0.9275,0.2849zm-4.304,-3.0585c0.3727,0 0.7453,0.09 1.0418,0.2624l2.2736,1.3268c0.6616,0.3898 1.0798,0.3898 1.2395,0.2774c0.1597,-0.1125 0.2738,-0.5098 0.1065,-1.2444l-0.5399,-2.3014c-0.1445,-0.6222 0.0912,-1.4243 0.5475,-1.8815l1.8855,-1.85912c0.373,-0.36732 0.54,-0.72714 0.464,-0.97452c-0.083,-0.24737 -0.433,-0.44977 -0.95,-0.53223l-2.4261,-0.39731c-0.5855,-0.09745 -1.2242,-0.56222 -1.4904,-1.08696l-1.3383,-2.6387c-0.2433,-0.47976 -0.5475,-0.76462 -0.8137,-0.76462c-0.2661,0 -0.5703,0.28486 -0.806,0.76462l-1.3459,2.6387c-0.2662,0.52474 -0.9049,0.98951 -1.4904,1.08696l-2.4181,0.39731c-0.5171,0.08246 -0.8669,0.28486 -0.9505,0.53223c-0.0837,0.24738 0.0912,0.6147 0.4638,0.97452l1.8858,1.85912c0.4563,0.4497 0.692,1.2593 0.5475,1.8815l-0.5399,2.3014c-0.1749,0.7421 -0.0532,1.1319 0.1065,1.2444c0.1597,0.1124 0.5703,0.1049 1.2395,-0.2774l2.2736,-1.3268c0.2889,-0.1724 0.6615,-0.2624 1.0341,-0.2624z"/>
 </g>
</svg>