<svg width="104" height="19" xmlns="http://www.w3.org/2000/svg" fill="none">

 <g>
  <title>Layer 1</title>
  <path id="svg_1" fill="#1560BD" d="m13.4355,17.5671c-0.403,0 -0.9201,-0.1274 -1.5665,-0.5023l-2.2736,-1.3268c-0.23573,-0.1349 -0.69197,-0.1349 -0.9201,0l-2.28123,1.3268c-1.34593,0.7872 -2.13676,0.4723 -2.49416,0.2174c-0.34978,-0.2548 -0.89728,-0.907 -0.53989,-2.4063l0.53989,-2.3013c0.06084,-0.2399 -0.06083,-0.6522 -0.24333,-0.8321l-1.88582,-1.85911c-0.94291,-0.92954 -0.86687,-1.72415 -0.7376,-2.11396c0.12927,-0.3898 0.53989,-1.07946 1.8478,-1.29686l2.42572,-0.3973c0.22812,-0.03748 0.5551,-0.27736 0.65395,-0.47976l1.34593,-2.64619c0.60833,-1.20691 1.40676,-1.38682 1.82499,-1.38682c0.41823,0 1.21665,0.17991 1.82495,1.38682l1.3384,2.63869c0.1064,0.2024 0.4334,0.44228 0.6615,0.47976l2.4257,0.39731c1.3155,0.21739 1.7262,0.90705 1.8478,1.29686c0.1217,0.38981 0.1977,1.18441 -0.7376,2.11395l-1.8858,1.86661c-0.1825,0.1799 -0.2965,0.5847 -0.2433,0.8321l0.5399,2.3013c0.3498,1.4993 -0.1901,2.1515 -0.5399,2.4063c-0.1901,0.135 -0.4943,0.2849 -0.9277,0.2849z"/>
  <path id="svg_2" fill="#1560BD" d="m34.8847,17.5671c-0.403,0 -0.9201,-0.1274 -1.5664,-0.5023l-2.2737,-1.3268c-0.2357,-0.1349 -0.692,-0.1349 -0.9201,0l-2.2812,1.3268c-1.3459,0.7872 -2.1368,0.4723 -2.4942,0.2174c-0.3498,-0.2548 -0.8973,-0.907 -0.5399,-2.4063l0.5399,-2.3013c0.0609,-0.2399 -0.0608,-0.6522 -0.2433,-0.8321l-1.8858,-1.85911c-0.9429,-0.92954 -0.8669,-1.72415 -0.7376,-2.11396c0.1293,-0.3898 0.5399,-1.07946 1.8478,-1.29686l2.4257,-0.3973c0.2281,-0.03748 0.5551,-0.27736 0.654,-0.47976l1.3459,-2.64619c0.6083,-1.20691 1.4067,-1.38682 1.825,-1.38682c0.4182,0 1.2166,0.17991 1.825,1.38682l1.3383,2.63869c0.1064,0.2024 0.4334,0.44228 0.6615,0.47976l2.4258,0.39731c1.3155,0.21739 1.7261,0.90705 1.8478,1.29686c0.1216,0.38981 0.1977,1.18441 -0.7376,2.11395l-1.8859,1.86661c-0.1825,0.1799 -0.2965,0.5847 -0.2433,0.8321l0.5399,2.3013c0.3498,1.4993 -0.1901,2.1515 -0.5399,2.4063c-0.1901,0.135 -0.4943,0.2849 -0.9277,0.2849z"/>
  <path id="svg_3" fill="#1560BD" d="m56.0556,17.5546c-0.3946,0 -0.9008,-0.1273 -1.5335,-0.5019l-2.2258,-1.3258c-0.2307,-0.1348 -0.6774,-0.1348 -0.9007,0l-2.2332,1.3258c-1.3176,0.7865 -2.0918,0.4719 -2.4416,0.2173c-0.3425,-0.2547 -0.8784,-0.9064 -0.5286,-2.4045l0.5286,-2.2995c0.0595,-0.2397 -0.0596,-0.6517 -0.2382,-0.8315l-1.8462,-1.8576c-0.923,-0.92882 -0.8486,-1.72281 -0.722,-2.11231c0.1265,-0.3895 0.5285,-1.07862 1.8089,-1.29585l2.3746,-0.39699c0.2233,-0.03745 0.5434,-0.27715 0.6402,-0.47939l1.3176,-2.64413c0.5955,-1.20596 1.3771,-1.38573 1.7865,-1.38573c0.4095,0 1.1911,0.17977 1.7866,1.38573l1.3102,2.63664c0.1042,0.20224 0.4243,0.44194 0.6476,0.47939l2.3746,0.39699c1.2878,0.21722 1.6898,0.90635 1.8089,1.29585c0.1191,0.3895 0.1936,1.18349 -0.7221,2.1123l-1.8461,1.8651c-0.1786,0.1798 -0.2903,0.5843 -0.2382,0.8315l0.5286,2.2995c0.3424,1.4981 -0.1862,2.1498 -0.5286,2.4045c-0.1861,0.1348 -0.4838,0.2846 -0.9081,0.2846z"/>
  <path id="svg_4" fill="#1560BD" d="m77.7519,17.5671c-0.403,0 -0.9201,-0.1274 -1.5665,-0.5023l-2.2736,-1.3268c-0.2357,-0.1349 -0.692,-0.1349 -0.9201,0l-2.2812,1.3268c-1.346,0.7872 -2.1368,0.4723 -2.4942,0.2174c-0.3498,-0.2548 -0.8973,-0.907 -0.5399,-2.4063l0.5399,-2.3013c0.0609,-0.2399 -0.0608,-0.6522 -0.2433,-0.8321l-1.8858,-1.85911c-0.9429,-0.92954 -0.8669,-1.72415 -0.7376,-2.11396c0.1292,-0.3898 0.5399,-1.07946 1.8478,-1.29686l2.4257,-0.3973c0.2281,-0.03748 0.5551,-0.27736 0.6539,-0.47976l1.346,-2.64619c0.6083,-1.20691 1.4067,-1.38682 1.825,-1.38682c0.4182,0 1.2166,0.17991 1.8249,1.38682l1.3384,2.63869c0.1064,0.2024 0.4334,0.44228 0.6615,0.47976l2.4257,0.39731c1.3156,0.21739 1.7262,0.90705 1.8478,1.29686c0.1217,0.38981 0.1978,1.18441 -0.7376,2.11395l-1.8858,1.86661c-0.1825,0.1799 -0.2965,0.5847 -0.2433,0.8321l0.5399,2.3013c0.3498,1.4993 -0.1901,2.1515 -0.5399,2.4063c-0.1901,0.135 -0.4943,0.2849 -0.9277,0.2849z"/>
  <path id="svg_5" fill="#1560BD" d="m99.1855,17.5671c-0.403,0 -0.9201,-0.1274 -1.5665,-0.5023l-2.2736,-1.3268c-0.2357,-0.1349 -0.692,-0.1349 -0.9201,0l-2.2812,1.3268c-1.346,0.7872 -2.1368,0.4723 -2.4942,0.2174c-0.3498,-0.2548 -0.8973,-0.907 -0.5399,-2.4063l0.5399,-2.3013c0.0608,-0.2399 -0.0608,-0.6522 -0.2433,-0.8321l-1.8858,-1.85911c-0.9429,-0.92954 -0.8669,-1.72415 -0.7376,-2.11396c0.1292,-0.3898 0.5399,-1.07946 1.8478,-1.29686l2.4257,-0.3973c0.2281,-0.03748 0.5551,-0.27736 0.6539,-0.47976l1.346,-2.64619c0.6083,-1.20691 1.4067,-1.38682 1.8249,-1.38682c0.4183,0 1.2167,0.17991 1.825,1.38682l1.3384,2.63869c0.1064,0.2024 0.4334,0.44228 0.6615,0.47976l2.4256,0.39731c1.316,0.21739 1.726,0.90705 1.848,1.29686c0.122,0.38981 0.198,1.18441 -0.738,2.11395l-1.885,1.86661c-0.183,0.1799 -0.297,0.5847 -0.244,0.8321l0.54,2.3013c0.35,1.4993 -0.19,2.1515 -0.54,2.4063c-0.1899,0.135 -0.4941,0.2849 -0.9275,0.2849zm-4.304,-3.0585c0.3727,0 0.7453,0.09 1.0418,0.2624l2.2736,1.3268c0.6616,0.3898 1.0798,0.3898 1.2395,0.2774c0.1597,-0.1125 0.2738,-0.5098 0.1065,-1.2444l-0.5399,-2.3014c-0.1445,-0.6222 0.0912,-1.4243 0.5475,-1.8815l1.8855,-1.85912c0.373,-0.36732 0.54,-0.72714 0.464,-0.97452c-0.083,-0.24737 -0.433,-0.44977 -0.95,-0.53223l-2.4261,-0.39731c-0.5855,-0.09745 -1.2242,-0.56222 -1.4904,-1.08696l-1.3383,-2.6387c-0.2433,-0.47976 -0.5475,-0.76462 -0.8137,-0.76462c-0.2661,0 -0.5703,0.28486 -0.806,0.76462l-1.3459,2.6387c-0.2662,0.52474 -0.9049,0.98951 -1.4904,1.08696l-2.4181,0.39731c-0.5171,0.08246 -0.8669,0.28486 -0.9505,0.53223c-0.0837,0.24738 0.0912,0.6147 0.4638,0.97452l1.8858,1.85912c0.4563,0.4497 0.692,1.2593 0.5475,1.8815l-0.5399,2.3014c-0.1749,0.7421 -0.0532,1.1319 0.1065,1.2444c0.1597,0.1124 0.5703,0.1049 1.2395,-0.2774l2.2736,-1.3268c0.2889,-0.1724 0.6615,-0.2624 1.0341,-0.2624z"/>
  <path id="svg_6" fill="#1560BD" d="m77.79309,17.69368c-0.403,0 -0.9201,-0.1274 -1.5665,-0.5023l-2.2736,-1.3268c-0.2357,-0.1349 -0.692,-0.1349 -0.9201,0l-2.2812,1.3268c-1.346,0.7872 -2.1368,0.4723 -2.4942,0.2174c-0.3498,-0.2548 -0.8973,-0.907 -0.5399,-2.4063l0.5399,-2.3013c0.0608,-0.2399 -0.0608,-0.6522 -0.2433,-0.8321l-1.8858,-1.85911c-0.9429,-0.92954 -0.8669,-1.72415 -0.7376,-2.11396c0.1292,-0.3898 0.5399,-1.07946 1.8478,-1.29686l2.4257,-0.3973c0.2281,-0.03748 0.5551,-0.27736 0.6539,-0.47976l1.346,-2.64619c0.6083,-1.20691 1.4067,-1.38682 1.8249,-1.38682c0.4183,0 1.2167,0.17991 1.825,1.38682l1.3384,2.63869c0.1064,0.2024 0.4334,0.44228 0.6615,0.47976l2.4256,0.39731c1.316,0.21739 1.726,0.90705 1.848,1.29686c0.122,0.38981 0.198,1.18441 -0.738,2.11395l-1.885,1.86661c-0.183,0.1799 -0.297,0.5847 -0.244,0.8321l0.54,2.3013c0.35,1.4993 -0.19,2.1515 -0.54,2.4063c-0.1899,0.135 -0.4941,0.2849 -0.9275,0.2849zm-4.304,-3.0585c0.3727,0 0.7453,0.09 1.0418,0.2624l2.2736,1.3268c0.6616,0.3898 1.0798,0.3898 1.2395,0.2774c0.1597,-0.1125 0.2738,-0.5098 0.1065,-1.2444l-0.5399,-2.3014c-0.1445,-0.6222 0.0912,-1.4243 0.5475,-1.8815l1.8855,-1.85912c0.373,-0.36732 0.54,-0.72714 0.464,-0.97452c-0.083,-0.24737 -0.433,-0.44977 -0.95,-0.53223l-2.4261,-0.39731c-0.5855,-0.09745 -1.2242,-0.56222 -1.4904,-1.08696l-1.3383,-2.6387c-0.2433,-0.47976 -0.5475,-0.76462 -0.8137,-0.76462c-0.2661,0 -0.5703,0.28486 -0.806,0.76462l-1.3459,2.6387c-0.2662,0.52474 -0.9049,0.98951 -1.4904,1.08696l-2.4181,0.39731c-0.5171,0.08246 -0.8669,0.28486 -0.9505,0.53223c-0.0837,0.24738 0.0912,0.6147 0.4638,0.97452l1.8858,1.85912c0.4563,0.4497 0.692,1.2593 0.5475,1.8815l-0.5399,2.3014c-0.1749,0.7421 -0.0532,1.1319 0.1065,1.2444c0.1597,0.1124 0.5703,0.1049 1.2395,-0.2774l2.2736,-1.3268c0.2889,-0.1724 0.6615,-0.2624 1.0341,-0.2624z"/>
  <path id="svg_10" d="m99.1443,17.5671c-0.403,0 -0.9201,-0.1274 -1.5665,-0.5023l-2.2736,-1.3268c-0.2357,-0.1349 -0.692,-0.1349 -0.9201,0l-2.2812,1.3268c-1.346,0.7872 -2.1368,0.4723 -2.4942,0.2174c-0.3498,-0.2548 -0.8973,-0.907 -0.5399,-2.4063l0.5399,-2.3013c0.0609,-0.2399 -0.0608,-0.6522 -0.2433,-0.8321l-1.8858,-1.85911c-0.9429,-0.92954 -0.8669,-1.72415 -0.7376,-2.11396c0.1292,-0.3898 0.5399,-1.07946 1.8478,-1.29686l2.4257,-0.3973c0.2281,-0.03748 0.5551,-0.27736 0.6539,-0.47976l1.346,-2.64619c0.6083,-1.20691 1.4067,-1.38682 1.825,-1.38682c0.4182,0 1.2166,0.17991 1.8249,1.38682l1.3384,2.63869c0.1064,0.2024 0.4334,0.44228 0.6615,0.47976l2.4257,0.39731c1.3156,0.21739 1.7262,0.90705 1.8478,1.29686c0.1217,0.38981 0.1978,1.18441 -0.7376,2.11395l-1.8858,1.86661c-0.1825,0.1799 -0.2965,0.5847 -0.2433,0.8321l0.5399,2.3013c0.3498,1.4993 -0.1901,2.1515 -0.5399,2.4063c-0.1901,0.135 -0.4943,0.2849 -0.9277,0.2849z"/>
 </g>
</svg>