<svg width="47" height="47" viewBox="0 0 47 47" fill="none" xmlns="http://www.w3.org/2000/svg">
<path d="M37.6262 22.7656H31C30.2056 22.7656 29.5469 22.1069 29.5469 21.3125V7.76937C29.5469 6.33562 30.1087 4.99875 31.1162 3.99125C32.1237 2.98375 33.4606 2.42188 34.8944 2.42188H34.9138C37.3356 2.44125 39.6219 3.39062 41.3656 5.115C43.1094 6.87812 44.0587 9.20312 44.0587 11.625V16.3137C44.0781 20.1694 41.4819 22.7656 37.6262 22.7656ZM32.4531 19.8594H37.6262C39.8737 19.8594 41.1719 18.5612 41.1719 16.3137V11.625C41.1719 9.95875 40.5131 8.37 39.3312 7.16875C38.1494 6.00625 36.5606 5.3475 34.9138 5.32812C34.9138 5.32812 34.9138 5.32812 34.8944 5.32812C34.255 5.32812 33.635 5.58 33.17 6.045C32.705 6.51 32.4531 7.11062 32.4531 7.76937V19.8594V19.8594Z" fill="#1560BD"/>
<path d="M17.4375 45.2019C16.5269 45.2019 15.6744 44.8531 15.035 44.1944L11.8187 40.9587C11.6444 40.7844 11.3731 40.765 11.1794 40.92L7.84688 43.4C6.82 44.175 5.46375 44.3106 4.30125 43.7294C3.13875 43.1481 2.42188 41.9856 2.42188 40.6875V11.625C2.42188 5.77375 5.77375 2.42188 11.625 2.42188H34.875C35.6694 2.42188 36.3281 3.08063 36.3281 3.875C36.3281 4.66937 35.6694 5.32812 34.875 5.32812C33.5381 5.32812 32.4531 6.41313 32.4531 7.75V40.6875C32.4531 41.9856 31.7362 43.1481 30.5737 43.7294C29.4112 44.3106 28.055 44.1944 27.0281 43.4194L23.715 40.9394C23.5212 40.7844 23.25 40.8231 23.095 40.9781L19.84 44.2331C19.2006 44.8531 18.3481 45.2019 17.4375 45.2019ZM11.4506 37.9169C12.3419 37.9169 13.2137 38.2462 13.8725 38.9244L17.0887 42.16C17.205 42.2763 17.36 42.2956 17.4375 42.2956C17.515 42.2956 17.67 42.2763 17.7863 42.16L21.0412 38.905C22.2425 37.7038 24.1412 37.5875 25.4781 38.6144L28.7719 41.075C28.985 41.23 29.1787 41.1719 29.2756 41.1138C29.3725 41.0556 29.5469 40.9394 29.5469 40.6875V7.75C29.5469 6.87813 29.76 6.045 30.1281 5.32812H11.625C7.32375 5.32812 5.32812 7.32375 5.32812 11.625V40.6875C5.32812 40.9588 5.5025 41.075 5.59938 41.1331C5.71563 41.1913 5.90938 41.23 6.10313 41.075L9.41625 38.595C10.0169 38.1494 10.7337 37.9169 11.4506 37.9169Z" fill="#1560BD"/>
<path d="M23.25 26.6599H17.4375C16.6431 26.6599 15.9844 26.0012 15.9844 25.2068C15.9844 24.4124 16.6431 23.7537 17.4375 23.7537H23.25C24.0444 23.7537 24.7031 24.4124 24.7031 25.2068C24.7031 26.0012 24.0444 26.6599 23.25 26.6599Z" fill="#1560BD"/>
<path d="M23.25 18.9099H17.4375C16.6431 18.9099 15.9844 18.2512 15.9844 17.4568C15.9844 16.6624 16.6431 16.0037 17.4375 16.0037H23.25C24.0444 16.0037 24.7031 16.6624 24.7031 17.4568C24.7031 18.2512 24.0444 18.9099 23.25 18.9099Z" fill="#1560BD"/>
<path d="M11.5674 19.3943C10.5018 19.3943 9.62988 18.5224 9.62988 17.4568C9.62988 16.3912 10.5018 15.5193 11.5674 15.5193C12.633 15.5193 13.5049 16.3912 13.5049 17.4568C13.5049 18.5224 12.633 19.3943 11.5674 19.3943Z" fill="#1560BD"/>
<path d="M11.5674 27.1443C10.5018 27.1443 9.62988 26.2724 9.62988 25.2068C9.62988 24.1412 10.5018 23.2693 11.5674 23.2693C12.633 23.2693 13.5049 24.1412 13.5049 25.2068C13.5049 26.2724 12.633 27.1443 11.5674 27.1443Z" fill="#1560BD"/>
</svg>
