<svg width="25" height="29" viewBox="0 0 25 29" fill="none" xmlns="http://www.w3.org/2000/svg">
<path fill-rule="evenodd" clip-rule="evenodd" d="M6.63989 1.31348C6.91989 0.837485 7.53001 0.678504 8.01001 0.958504L13.01 3.89649C13.24 4.03449 13.41 4.2645 13.47 4.5315C13.54 4.7985 13.4901 5.0785 13.3401 5.3075L10.3401 9.86952C10.0301 10.3315 9.40995 10.4595 8.94995 10.1565C8.48995 9.8525 8.35991 9.23249 8.65991 8.77149L10.52 5.94453C5.67002 6.86853 2 11.1355 2 16.2585C2 22.0575 6.7 26.7585 12.5 26.7585C18.3 26.7585 23 22.0575 23 16.2585C23 13.1835 21.6801 10.4195 19.5701 8.49751C19.1601 8.12551 19.14 7.49248 19.51 7.08448C19.88 6.67648 20.5099 6.64748 20.9199 7.01948C23.4299 9.30448 25 12.5985 25 16.2585C25 23.1615 19.4 28.7585 12.5 28.7585C5.6 28.7585 0 23.1615 0 16.2585C0 10.4035 4.01996 5.48948 9.45996 4.13148L6.98999 2.6825C6.51999 2.4025 6.35989 1.79048 6.63989 1.31348Z" fill="white"/>
</svg>
