<svg width="52" height="402" viewBox="0 0 52 402" fill="none" xmlns="http://www.w3.org/2000/svg">
<path d="M32.4 144.8C35.2 147.653 36.6 151.12 36.6 155.2C36.6 159.333 35.2 162.813 32.4 165.64C29.5733 168.467 26.1067 169.88 22 169.88C17.8933 169.88 14.44 168.467 11.64 165.64C8.81333 162.813 7.4 159.333 7.4 155.2C7.4 151.093 8.81333 147.627 11.64 144.8C14.44 141.947 17.8933 140.52 22 140.52C26.08 140.52 29.5467 141.947 32.4 144.8ZM27.48 160.6C28.8933 159.133 29.6 157.333 29.6 155.2C29.6 153.067 28.8933 151.267 27.48 149.8C26.04 148.36 24.2133 147.64 22 147.64C19.76 147.64 17.9467 148.36 16.56 149.8C15.12 151.24 14.4 153.04 14.4 155.2C14.4 157.36 15.12 159.16 16.56 160.6C17.9467 162.04 19.76 162.76 22 162.76C24.2133 162.76 26.04 162.04 27.48 160.6ZM8 139.905L8 118.905H14.92L14.92 125.825L36 125.825V132.985H14.92L14.92 139.905H8ZM21.56 100.243C22.9467 97.7365 25.1333 96.4831 28.12 96.4831C30.6533 96.4831 32.7067 97.4431 34.28 99.3631C35.8267 101.256 36.6 103.79 36.6 106.963C36.6 112.376 34.4133 115.99 30.04 117.803L26.52 111.683C28.7333 110.883 29.84 109.31 29.84 106.963C29.84 104.75 29.0133 103.643 27.36 103.643C25.92 103.643 25.12 104.536 24.96 106.323L24.92 110.563H18.72V107.803C18.72 105.643 17.9467 104.563 16.4 104.563C14.8533 104.563 14.08 105.523 14.08 107.443C14.08 109.336 15.0267 110.67 16.92 111.443L13.44 117.443C11.52 116.563 10.04 115.256 9 113.523C7.93333 111.763 7.4 109.696 7.4 107.323C7.4 104.363 8.17333 101.976 9.72 100.163C11.24 98.3231 13.2667 97.4031 15.8 97.4031C18.2267 97.4031 20.1467 98.3498 21.56 100.243ZM36 82.2403L36 93.1203L8 93.1203L8 85.9603H16.4L16.4 82.2403C16.4 79.387 17.3333 77.0136 19.2 75.1203C21.04 73.2003 23.3733 72.2403 26.2 72.2403C29.0533 72.2403 31.4 73.2003 33.24 75.1203C35.08 77.0403 36 79.4136 36 82.2403ZM36 62.8003L36 69.9203L8 69.9203L8 62.8003L36 62.8003ZM23.24 85.9603L29.2 85.9603L29.2 82.2403C29.2 81.4403 28.92 80.7736 28.36 80.2403C27.8 79.6803 27.08 79.4003 26.2 79.4003C25.32 79.4003 24.6133 79.6803 24.08 80.2403C23.52 80.7736 23.24 81.4403 23.24 82.2403L23.24 85.9603ZM21.52 40.1747C22.9067 37.828 25 36.6547 27.8 36.6547C30.3067 36.6547 32.2933 37.508 33.76 39.2147C35.2533 40.948 36 43.228 36 46.0547V57.8547L8 57.8547L8 46.8147C8 43.988 8.72 41.748 10.16 40.0947C11.5733 38.4147 13.5067 37.5747 15.96 37.5747C18.3067 37.5747 20.16 38.4414 21.52 40.1747ZM14.4 47.0147V50.6947H18.8L18.8 47.0147C18.8 46.348 18.6133 45.8014 18.24 45.3747C17.84 44.948 17.2933 44.7347 16.6 44.7347C15.9333 44.7347 15.4 44.948 15 45.3747C14.6 45.8014 14.4 46.348 14.4 47.0147ZM29.6 50.6947L29.6 46.2547C29.6 45.5347 29.3867 44.948 28.96 44.4947C28.5067 44.0414 27.9333 43.8147 27.24 43.8147C26.52 43.8147 25.9467 44.0414 25.52 44.4947C25.0933 44.948 24.88 45.5347 24.88 46.2547L24.88 50.6947H29.6ZM36 22.4122V33.2922H8L8 26.1322H16.4L16.4 22.4122C16.4 19.5589 17.3333 17.1855 19.2 15.2922C21.04 13.3722 23.3733 12.4122 26.2 12.4122C29.0533 12.4122 31.4 13.3722 33.24 15.2922C35.08 17.2122 36 19.5855 36 22.4122ZM36 2.97219V10.0922H8L8 2.97219H36ZM23.24 26.1322H29.2L29.2 22.4122C29.2 21.6122 28.92 20.9455 28.36 20.4122C27.8 19.8522 27.08 19.5722 26.2 19.5722C25.32 19.5722 24.6133 19.8522 24.08 20.4122C23.52 20.9455 23.24 21.6122 23.24 22.4122L23.24 26.1322Z" fill="#D9D9D9" fill-opacity="0.75"/>
<path d="M34.4 375.8C37.2 378.653 38.6 382.12 38.6 386.2C38.6 390.333 37.2 393.813 34.4 396.64C31.5733 399.467 28.1067 400.88 24 400.88C19.8933 400.88 16.44 399.467 13.64 396.64C10.8133 393.813 9.4 390.333 9.4 386.2C9.4 382.093 10.8133 378.627 13.64 375.8C16.44 372.947 19.8933 371.52 24 371.52C28.08 371.52 31.5467 372.947 34.4 375.8ZM29.48 391.6C30.8933 390.133 31.6 388.333 31.6 386.2C31.6 384.067 30.8933 382.267 29.48 380.8C28.04 379.36 26.2133 378.64 24 378.64C21.76 378.64 19.9467 379.36 18.56 380.8C17.12 382.24 16.4 384.04 16.4 386.2C16.4 388.36 17.12 390.16 18.56 391.6C19.9467 393.04 21.76 393.76 24 393.76C26.2133 393.76 28.04 393.04 29.48 391.6ZM10 370.905L10 349.905H16.92V356.825H38V363.985H16.92L16.92 370.905H10ZM23.56 331.243C24.9467 328.736 27.1333 327.483 30.12 327.483C32.6533 327.483 34.7067 328.443 36.28 330.363C37.8267 332.256 38.6 334.79 38.6 337.963C38.6 343.376 36.4133 346.99 32.04 348.803L28.52 342.683C30.7333 341.883 31.84 340.31 31.84 337.963C31.84 335.75 31.0133 334.643 29.36 334.643C27.92 334.643 27.12 335.536 26.96 337.323L26.92 341.563H20.72V338.803C20.72 336.643 19.9467 335.563 18.4 335.563C16.8533 335.563 16.08 336.523 16.08 338.443C16.08 340.336 17.0267 341.67 18.92 342.443L15.44 348.443C13.52 347.563 12.04 346.256 11 344.523C9.93333 342.763 9.4 340.696 9.4 338.323C9.4 335.363 10.1733 332.976 11.72 331.163C13.24 329.323 15.2667 328.403 17.8 328.403C20.2267 328.403 22.1467 329.35 23.56 331.243ZM38 313.24L38 324.12H10V316.96H18.4L18.4 313.24C18.4 310.387 19.3333 308.014 21.2 306.12C23.04 304.2 25.3733 303.24 28.2 303.24C31.0533 303.24 33.4 304.2 35.24 306.12C37.08 308.04 38 310.414 38 313.24ZM38 293.8L38 300.92H10V293.8H38ZM25.24 316.96H31.2L31.2 313.24C31.2 312.44 30.92 311.774 30.36 311.24C29.8 310.68 29.08 310.4 28.2 310.4C27.32 310.4 26.6133 310.68 26.08 311.24C25.52 311.774 25.24 312.44 25.24 313.24L25.24 316.96ZM23.52 271.175C24.9067 268.828 27 267.655 29.8 267.655C32.3067 267.655 34.2933 268.508 35.76 270.215C37.2533 271.948 38 274.228 38 277.055V288.855H10L10 277.815C10 274.988 10.72 272.748 12.16 271.095C13.5733 269.415 15.5067 268.575 17.96 268.575C20.3067 268.575 22.16 269.441 23.52 271.175ZM16.4 278.015V281.695H20.8L20.8 278.015C20.8 277.348 20.6133 276.801 20.24 276.375C19.84 275.948 19.2933 275.735 18.6 275.735C17.9333 275.735 17.4 275.948 17 276.375C16.6 276.801 16.4 277.348 16.4 278.015ZM31.6 281.695L31.6 277.255C31.6 276.535 31.3867 275.948 30.96 275.495C30.5067 275.041 29.9333 274.815 29.24 274.815C28.52 274.815 27.9467 275.041 27.52 275.495C27.0933 275.948 26.88 276.535 26.88 277.255L26.88 281.695H31.6ZM38 253.412V264.292H10L10 257.132H18.4L18.4 253.412C18.4 250.559 19.3333 248.186 21.2 246.292C23.04 244.372 25.3733 243.412 28.2 243.412C31.0533 243.412 33.4 244.372 35.24 246.292C37.08 248.212 38 250.586 38 253.412ZM38 233.972V241.092H10L10 233.972H38ZM25.24 257.132H31.2L31.2 253.412C31.2 252.612 30.92 251.946 30.36 251.412C29.8 250.852 29.08 250.572 28.2 250.572C27.32 250.572 26.6133 250.852 26.08 251.412C25.52 251.946 25.24 252.612 25.24 253.412L25.24 257.132Z" fill="#D9D9D9" fill-opacity="0.75"/>
<path d="M25 193L26.7961 198.528H32.6085L27.9062 201.944L29.7023 207.472L25 204.056L20.2977 207.472L22.0938 201.944L17.3915 198.528H23.2039L25 193Z" fill="#D9D9D9" fill-opacity="0.75"/>
</svg>
