<svg width="52" height="325" viewBox="0 0 52 325" fill="none" xmlns="http://www.w3.org/2000/svg">
<path d="M36.6 114.28C36.6 118.493 35.2133 121.987 32.44 124.76C29.6667 127.507 26.1867 128.88 22 128.88C17.8133 128.88 14.3467 127.507 11.6 124.76C8.8 122.013 7.4 118.52 7.4 114.28C7.4 111.747 8 109.4 9.2 107.24C10.4 105.08 12.0133 103.387 14.04 102.16L17.6 108.36C16.6133 108.893 15.84 109.693 15.28 110.76C14.6933 111.8 14.4 112.973 14.4 114.28C14.4 116.493 15.1067 118.307 16.52 119.72C17.9333 121.08 19.76 121.76 22 121.76C24.2933 121.76 26.1333 121.08 27.52 119.72C28.9067 118.333 29.6 116.52 29.6 114.28C29.6 112.973 29.32 111.8 28.76 110.76C28.1733 109.693 27.3733 108.893 26.36 108.36L29.96 102.16C32.0133 103.387 33.64 105.08 34.84 107.24C36.0133 109.373 36.6 111.72 36.6 114.28ZM25.16 91.9369H29.28L29.28 81.0969L36 81.0969L36 99.0969L8 99.0969L8 81.2969H14.68L14.68 91.9369H18.56L18.56 82.2969H25.16L25.16 91.9369ZM8 77.1906L8 66.3106C8 63.484 8.92 61.1106 10.76 59.1906C12.6 57.2706 14.9467 56.3106 17.8 56.3106C20.6533 56.3106 23 57.2706 24.84 59.1906C26.68 61.1106 27.6 63.484 27.6 66.3106V70.0306L36 70.0306L36 77.1906L8 77.1906ZM20.8 70.0306V66.3106C20.8 65.5106 20.52 64.844 19.96 64.3106C19.4 63.7506 18.68 63.4706 17.8 63.4706C16.92 63.4706 16.2133 63.7506 15.68 64.3106C15.12 64.844 14.84 65.5106 14.84 66.3106L14.84 70.0306H20.8ZM36 30.4587V37.5787L21.92 37.5787L36 47.4587L36 53.0187L8 53.0187L8 45.8587H22.08L8 35.9787L8 30.4587L36 30.4587ZM36 2.96656V10.0866L21.92 10.0866L36 19.9666L36 25.5266L8 25.5266L8 18.3666H22.08L8 8.48656L8 2.96656L36 2.96656Z" fill="#D9D9D9" fill-opacity="0.75"/>
<path d="M38.6 308.546C38.6 312.759 37.2133 316.252 34.44 319.026C31.6667 321.772 28.1867 323.146 24 323.146C19.8133 323.146 16.3467 321.772 13.6 319.026C10.8 316.279 9.4 312.786 9.4 308.546C9.4 306.012 10 303.666 11.2 301.506C12.4 299.346 14.0133 297.652 16.04 296.426L19.6 302.626C18.6133 303.159 17.84 303.959 17.28 305.026C16.6933 306.066 16.4 307.239 16.4 308.546C16.4 310.759 17.1067 312.572 18.52 313.986C19.9333 315.346 21.76 316.026 24 316.026C26.2933 316.026 28.1333 315.346 29.52 313.986C30.9067 312.599 31.6 310.786 31.6 308.546C31.6 307.239 31.32 306.066 30.76 305.026C30.1733 303.959 29.3733 303.159 28.36 302.626L31.96 296.426C34.0133 297.652 35.64 299.346 36.84 301.506C38.0133 303.639 38.6 305.986 38.6 308.546ZM27.16 286.202H31.28L31.28 275.363H38L38 293.362H10L10 275.562H16.68V286.202H20.56L20.56 276.562H27.16L27.16 286.202ZM10 271.456L10 260.576C10 257.75 10.92 255.376 12.76 253.456C14.6 251.536 16.9467 250.576 19.8 250.576C22.6533 250.576 25 251.536 26.84 253.456C28.68 255.376 29.6 257.75 29.6 260.576L29.6 264.296H38L38 271.456H10ZM22.8 264.296L22.8 260.576C22.8 259.776 22.52 259.11 21.96 258.576C21.4 258.016 20.68 257.736 19.8 257.736C18.92 257.736 18.2133 258.016 17.68 258.576C17.12 259.11 16.84 259.776 16.84 260.576L16.84 264.296H22.8ZM38 224.724V231.844H23.92L38 241.724L38 247.284H10V240.124H24.08L10 230.244L10 224.724H38ZM38 197.232V204.352H23.92L38 214.232V219.792H10L10 212.632H24.08L10 202.752L10 197.232H38Z" fill="#D9D9D9" fill-opacity="0.75"/>
<path d="M25 154.5L26.7961 160.028H32.6085L27.9062 163.444L29.7023 168.972L25 165.556L20.2977 168.972L22.0938 163.444L17.3915 160.028H23.2039L25 154.5Z" fill="#D9D9D9" fill-opacity="0.75"/>
</svg>
