<svg width="17" height="17" viewBox="0 0 17 17" fill="none" xmlns="http://www.w3.org/2000/svg">
<path d="M13.3159 15.944C13.0286 15.944 12.7903 15.7057 12.7903 15.4184V7.70922C12.7903 7.42188 13.0286 7.18359 13.3159 7.18359C13.6033 7.18359 13.8415 7.42188 13.8415 7.70922V15.4184C13.8415 15.7057 13.6033 15.944 13.3159 15.944Z" fill="#1560BD"/>
<path d="M13.3159 5.43139C13.0286 5.43139 12.7903 5.19311 12.7903 4.90577V1.4016C12.7903 1.11426 13.0286 0.875977 13.3159 0.875977C13.6033 0.875977 13.8415 1.11426 13.8415 1.4016V4.90577C13.8415 5.19311 13.6033 5.43139 13.3159 5.43139Z" fill="#1560BD"/>
<path d="M8.4099 15.9441C8.12256 15.9441 7.88428 15.7058 7.88428 15.4185V11.9143C7.88428 11.627 8.12256 11.3887 8.4099 11.3887C8.69724 11.3887 8.93553 11.627 8.93553 11.9143V15.4185C8.93553 15.7058 8.69724 15.9441 8.4099 15.9441Z" fill="#1560BD"/>
<path d="M8.4099 9.63639C8.12256 9.63639 7.88428 9.39811 7.88428 9.11077V1.4016C7.88428 1.11426 8.12256 0.875977 8.4099 0.875977C8.69724 0.875977 8.93553 1.11426 8.93553 1.4016V9.11077C8.93553 9.39811 8.69724 9.63639 8.4099 9.63639Z" fill="#1560BD"/>
<path d="M3.50414 15.944C3.2168 15.944 2.97852 15.7057 2.97852 15.4184V7.70922C2.97852 7.42188 3.2168 7.18359 3.50414 7.18359C3.79148 7.18359 4.02977 7.42188 4.02977 7.70922V15.4184C4.02977 15.7057 3.79148 15.944 3.50414 15.944Z" fill="#1560BD"/>
<path d="M3.50414 5.43139C3.2168 5.43139 2.97852 5.19311 2.97852 4.90577V1.4016C2.97852 1.11426 3.2168 0.875977 3.50414 0.875977C3.79148 0.875977 4.02977 1.11426 4.02977 1.4016V4.90577C4.02977 5.19311 3.79148 5.43139 3.50414 5.43139Z" fill="#1560BD"/>
<path d="M4.90586 8.23484H2.10253C1.81519 8.23484 1.5769 7.99656 1.5769 7.70922C1.5769 7.42188 1.81519 7.18359 2.10253 7.18359H4.90586C5.1932 7.18359 5.43149 7.42188 5.43149 7.70922C5.43149 7.99656 5.1932 8.23484 4.90586 8.23484Z" fill="#1560BD"/>
<path d="M14.7174 8.23484H11.9141C11.6267 8.23484 11.3884 7.99656 11.3884 7.70922C11.3884 7.42188 11.6267 7.18359 11.9141 7.18359H14.7174C15.0047 7.18359 15.243 7.42188 15.243 7.70922C15.243 7.99656 15.0047 8.23484 14.7174 8.23484Z" fill="#1560BD"/>
<path d="M9.81162 9.6367H7.00829C6.72095 9.6367 6.48267 9.39842 6.48267 9.11107C6.48267 8.82373 6.72095 8.58545 7.00829 8.58545H9.81162C10.099 8.58545 10.3372 8.82373 10.3372 9.11107C10.3372 9.39842 10.099 9.6367 9.81162 9.6367Z" fill="#1560BD"/>
</svg>
