<svg width="47" height="47" viewBox="0 0 47 47" fill="none" xmlns="http://www.w3.org/2000/svg">
<path d="M23.25 30.5156C19.2394 30.5156 15.9844 27.2606 15.9844 23.25C15.9844 19.2394 19.2394 15.9844 23.25 15.9844C27.2606 15.9844 30.5156 19.2394 30.5156 23.25C30.5156 27.2606 27.2606 30.5156 23.25 30.5156ZM23.25 18.8906C20.8475 18.8906 18.8906 20.8475 18.8906 23.25C18.8906 25.6525 20.8475 27.6094 23.25 27.6094C25.6525 27.6094 27.6094 25.6525 27.6094 23.25C27.6094 20.8475 25.6525 18.8906 23.25 18.8906Z" fill="#1560BD"/>
<path d="M29.4694 42.9937C29.0625 42.9937 28.6556 42.9356 28.2488 42.8387C27.0475 42.5093 26.04 41.7537 25.4006 40.6881L25.1681 40.3006C24.025 38.3243 22.4556 38.3243 21.3125 40.3006L21.0994 40.6687C20.46 41.7537 19.4525 42.5287 18.2513 42.8387C17.0306 43.1681 15.7713 42.9937 14.7056 42.3543L11.3731 40.4362C10.1912 39.7581 9.33875 38.6537 8.97063 37.3168C8.62188 35.9799 8.79625 34.6043 9.47437 33.4224C10.0362 32.4343 10.1913 31.5431 9.86188 30.9812C9.5325 30.4193 8.69938 30.0899 7.55625 30.0899C4.7275 30.0899 2.42188 27.7843 2.42188 24.9556V21.5456C2.42188 18.7168 4.7275 16.4112 7.55625 16.4112C8.69938 16.4112 9.5325 16.0818 9.86188 15.5199C10.1913 14.9581 10.0556 14.0668 9.47437 13.0787C8.79625 11.8968 8.62188 10.5018 8.97063 9.1843C9.31938 7.84743 10.1719 6.74305 11.3731 6.06493L14.725 4.1468C16.9144 2.84868 19.8012 3.6043 21.1187 5.83243L21.3513 6.21993C22.4944 8.19618 24.0638 8.19618 25.2069 6.21993L25.42 5.8518C26.7375 3.6043 29.6244 2.84868 31.8331 4.16618L35.1656 6.0843C36.3475 6.76243 37.2 7.8668 37.5681 9.20368C37.9169 10.5406 37.7425 11.9162 37.0644 13.0981C36.5025 14.0862 36.3475 14.9774 36.6769 15.5393C37.0063 16.1012 37.8394 16.4306 38.9825 16.4306C41.8113 16.4306 44.1169 18.7362 44.1169 21.5649V24.9749C44.1169 27.8037 41.8113 30.1093 38.9825 30.1093C37.8394 30.1093 37.0063 30.4387 36.6769 31.0006C36.3475 31.5624 36.4831 32.4537 37.0644 33.4418C37.7425 34.6237 37.9362 36.0187 37.5681 37.3362C37.2194 38.6731 36.3669 39.7774 35.1656 40.4556L31.8137 42.3737C31.0775 42.7806 30.2831 42.9937 29.4694 42.9937ZM23.25 35.8249C24.9744 35.8249 26.5825 36.9099 27.6869 38.8281L27.9 39.1962C28.1325 39.6031 28.52 39.8937 28.985 40.0099C29.45 40.1262 29.915 40.0681 30.3025 39.8356L33.6544 37.8981C34.1581 37.6074 34.5456 37.1231 34.7006 36.5418C34.8556 35.9606 34.7781 35.3599 34.4875 34.8562C33.3831 32.9574 33.2475 31.0006 34.1 29.5087C34.9525 28.0168 36.7156 27.1643 38.9244 27.1643C40.1644 27.1643 41.1525 26.1762 41.1525 24.9362V21.5262C41.1525 20.3056 40.1644 19.2981 38.9244 19.2981C36.7156 19.2981 34.9525 18.4456 34.1 16.9537C33.2475 15.4618 33.3831 13.5049 34.4875 11.6062C34.7781 11.1024 34.8556 10.5018 34.7006 9.92055C34.5456 9.3393 34.1775 8.8743 33.6737 8.5643L30.3219 6.64618C29.4887 6.14243 28.3844 6.43305 27.8806 7.28555L27.6675 7.65368C26.5631 9.5718 24.955 10.6568 23.2306 10.6568C21.5063 10.6568 19.8981 9.5718 18.7937 7.65368L18.5806 7.26618C18.0963 6.45243 17.0113 6.1618 16.1781 6.64618L12.8263 8.58368C12.3225 8.8743 11.935 9.35868 11.78 9.93993C11.625 10.5212 11.7025 11.1218 11.9931 11.6256C13.0975 13.5243 13.2331 15.4812 12.3806 16.9731C11.5281 18.4649 9.765 19.3174 7.55625 19.3174C6.31625 19.3174 5.32812 20.3056 5.32812 21.5456V24.9556C5.32812 26.1762 6.31625 27.1837 7.55625 27.1837C9.765 27.1837 11.5281 28.0362 12.3806 29.5281C13.2331 31.0199 13.0975 32.9768 11.9931 34.8756C11.7025 35.3793 11.625 35.9799 11.78 36.5612C11.935 37.1424 12.3031 37.6074 12.8069 37.9174L16.1588 39.8356C16.5656 40.0874 17.05 40.1456 17.4956 40.0293C17.9606 39.9131 18.3481 39.6031 18.6 39.1962L18.8131 38.8281C19.9175 36.9293 21.5256 35.8249 23.25 35.8249Z" fill="#1560BD"/>
</svg>
