<svg width="206" height="122" viewBox="0 0 206 122" fill="none" xmlns="http://www.w3.org/2000/svg">
<path d="M154.155 83.1481C166.456 83.1481 176.427 73.1764 176.427 60.8758C176.427 48.5751 166.456 38.6035 154.155 38.6035C141.854 38.6035 131.883 48.5751 131.883 60.8758C131.883 73.1764 141.854 83.1481 154.155 83.1481Z" fill="#E31E24"/>
<path fill-rule="evenodd" clip-rule="evenodd" d="M205.196 10.3652L194.491 40.8581C192.308 36.4674 189.419 32.4736 185.986 29.0405C182.768 25.823 179.059 23.0885 174.996 20.9579L205.196 10.3652Z" fill="#E31E24"/>
<path d="M154.596 121.761C136.723 121.761 122.032 115.895 110.534 104.173C99.027 92.5535 93.2734 78.1481 93.2734 60.9479C93.2734 43.7477 99.027 29.3337 110.534 17.7231C122.041 5.9918 136.731 0.134766 154.596 0.134766C162.575 0.134766 170.114 1.58393 177.204 4.49089L143.701 16.2481C134.946 18.0078 127.519 22.0189 121.42 28.2813C112.932 36.8814 108.688 47.776 108.688 60.9565C108.688 74.0249 112.932 84.8591 121.42 93.4592C129.908 102.171 140.966 106.528 154.596 106.528C162.635 106.528 169.984 104.604 176.626 100.748C183.268 96.8924 188.271 91.7858 191.618 85.4198L205.187 93.1314C200.27 101.844 193.292 108.822 184.243 114.075C175.306 119.216 165.421 121.778 154.587 121.778L154.596 121.761Z" fill="#FAFAFA"/>
<path d="M67.4918 58.7567C72.9606 61.4393 77.265 65.183 80.3962 69.9791C83.5274 74.7837 85.0887 80.2526 85.0887 86.3943C85.0887 95.7794 81.7936 103.655 75.2034 110.021C68.6132 116.387 60.5737 119.57 51.0765 119.57H0.476562V2.29102H47.3846C56.6576 2.29102 64.4209 5.36187 70.6748 11.5036C77.0407 17.6453 80.2237 25.2447 80.2237 34.2934C80.2237 44.7912 75.9797 52.9428 67.4918 58.7567ZM47.3846 16.8689H16.0551V52.7271H47.3846C52.3014 52.7271 56.4333 50.9933 59.7802 47.5343C63.127 44.0753 64.8091 39.8313 64.8091 34.8023C64.8091 29.8855 63.0753 25.7019 59.6163 22.2343C56.2607 18.6631 52.1893 16.8689 47.3846 16.8689ZM16.0551 105.001H51.0765C56.3297 105.001 60.7376 103.155 64.3088 99.4713C67.8799 95.788 69.6655 91.2593 69.6655 85.9026C69.6655 80.6494 67.8195 76.1811 64.1363 72.4978C60.6772 68.8145 56.3211 66.9686 51.0679 66.9686H16.0464V105.001H16.0551Z" fill="#FAFAFA"/>
</svg>
