<svg width="18" height="18" viewBox="0 0 18 18" fill="none" xmlns="http://www.w3.org/2000/svg">
<path d="M12.75 15.9375H5.25C2.5125 15.9375 0.9375 14.3625 0.9375 11.625V6.375C0.9375 3.6375 2.5125 2.0625 5.25 2.0625H12.75C15.4875 2.0625 17.0625 3.6375 17.0625 6.375V11.625C17.0625 14.3625 15.4875 15.9375 12.75 15.9375ZM5.25 3.1875C3.105 3.1875 2.0625 4.23 2.0625 6.375V11.625C2.0625 13.77 3.105 14.8125 5.25 14.8125H12.75C14.895 14.8125 15.9375 13.77 15.9375 11.625V6.375C15.9375 4.23 14.895 3.1875 12.75 3.1875H5.25Z" fill="#292D32"/>
<path d="M8.99812 9.65296C8.36812 9.65296 7.73063 9.45797 7.24313 9.06047L4.89562 7.18547C4.65562 6.99047 4.61063 6.63796 4.80563 6.39796C5.00063 6.15796 5.35313 6.11297 5.59313 6.30797L7.94062 8.18297C8.51062 8.64047 9.47812 8.64047 10.0481 8.18297L12.3956 6.30797C12.6356 6.11297 12.9956 6.15046 13.1831 6.39796C13.3781 6.63796 13.3406 6.99797 13.0931 7.18547L10.7456 9.06047C10.2656 9.45797 9.62812 9.65296 8.99812 9.65296Z" fill="#292D32"/>
</svg>
