<svg width="17" height="17" viewBox="0 0 17 17" fill="none" xmlns="http://www.w3.org/2000/svg">
<path d="M8.45831 15.4047C7.47014 15.4047 6.47495 15.0263 5.72506 14.2764L2.55029 11.1016C1.77937 10.3307 1.37289 9.26542 1.42195 8.17913L1.59015 4.66795C1.66724 2.99296 2.99181 1.66839 4.67381 1.58429L8.17798 1.41609C9.27128 1.36703 10.3295 1.77351 11.1005 2.54443L14.2752 5.7192C15.782 7.22599 15.782 9.68592 14.2752 11.1927L11.1986 14.2694C10.4417 15.0263 9.4535 15.4047 8.45831 15.4047ZM3.29317 10.3517L6.46795 13.5265C7.56825 14.6268 9.35538 14.6268 10.4557 13.5265L13.5323 10.4498C14.6327 9.34952 14.6327 7.56239 13.5323 6.46209L10.3506 3.29432C9.7899 2.73365 9.02599 2.4393 8.22003 2.47434L4.71586 2.64254C3.58051 2.6916 2.69045 3.58166 2.63439 4.71701L2.46619 8.22819C2.43115 9.01312 2.7325 9.79104 3.29317 10.3517Z" fill="#1560BD"/>
<path d="M6.65857 8.93628C5.40408 8.93628 4.38086 7.91306 4.38086 6.65857C4.38086 5.40408 5.40408 4.38086 6.65857 4.38086C7.91306 4.38086 8.93628 5.40408 8.93628 6.65857C8.93628 7.91306 7.91306 8.93628 6.65857 8.93628ZM6.65857 5.43211C5.98577 5.43211 5.43211 5.98577 5.43211 6.65857C5.43211 7.33137 5.98577 7.88503 6.65857 7.88503C7.33137 7.88503 7.88503 7.33137 7.88503 6.65857C7.88503 5.98577 7.33137 5.43211 6.65857 5.43211Z" fill="#1560BD"/>
<path d="M9.11176 12.4407C8.9786 12.4407 8.84545 12.3917 8.74032 12.2865C8.53708 12.0833 8.53708 11.7469 8.74032 11.5437L11.5437 8.74032C11.7469 8.53708 12.0833 8.53708 12.2865 8.74032C12.4898 8.94356 12.4898 9.27996 12.2865 9.4832L9.4832 12.2865C9.37808 12.3917 9.24492 12.4407 9.11176 12.4407Z" fill="#1560BD"/>
</svg>
