<svg width="38" height="38" viewBox="0 0 38 38" fill="none" xmlns="http://www.w3.org/2000/svg">
<path d="M27.5313 15.0312H19.3281C18.6875 15.0312 18.1562 14.5 18.1562 13.8594C18.1562 13.2188 18.6875 12.6875 19.3281 12.6875H27.5313C28.1719 12.6875 28.7031 13.2188 28.7031 13.8594C28.7031 14.5 28.1875 15.0312 27.5313 15.0312Z" fill="#1560BD"/>
<path d="M11.125 16.2187C10.8281 16.2187 10.5312 16.1094 10.2969 15.875L9.125 14.7031C8.67188 14.25 8.67188 13.5 9.125 13.0469C9.57812 12.5938 10.3281 12.5938 10.7812 13.0469L11.125 13.3906L13.8125 10.7031C14.2656 10.25 15.0156 10.25 15.4687 10.7031C15.9219 11.1562 15.9219 11.9062 15.4687 12.3594L11.9531 15.875C11.7344 16.0937 11.4375 16.2187 11.125 16.2187Z" fill="#1560BD"/>
<path d="M27.5313 25.9688H19.3281C18.6875 25.9688 18.1562 25.4375 18.1562 24.7969C18.1562 24.1563 18.6875 23.625 19.3281 23.625H27.5313C28.1719 23.625 28.7031 24.1563 28.7031 24.7969C28.7031 25.4375 28.1875 25.9688 27.5313 25.9688Z" fill="#1560BD"/>
<path d="M11.125 27.1562C10.8281 27.1562 10.5312 27.0469 10.2969 26.8125L9.125 25.6406C8.67188 25.1875 8.67188 24.4375 9.125 23.9844C9.57812 23.5312 10.3281 23.5312 10.7812 23.9844L11.125 24.3281L13.8125 21.6406C14.2656 21.1875 15.0156 21.1875 15.4687 21.6406C15.9219 22.0937 15.9219 22.8437 15.4687 23.2969L11.9531 26.8125C11.7344 27.0312 11.4375 27.1562 11.125 27.1562Z" fill="#1560BD"/>
<path d="M23.4375 35.5469H14.0625C5.57813 35.5469 1.95312 31.9219 1.95312 23.4375V14.0625C1.95312 5.57813 5.57813 1.95312 14.0625 1.95312H23.4375C31.9219 1.95312 35.5469 5.57813 35.5469 14.0625V23.4375C35.5469 31.9219 31.9219 35.5469 23.4375 35.5469ZM14.0625 4.29688C6.85937 4.29688 4.29688 6.85937 4.29688 14.0625V23.4375C4.29688 30.6406 6.85937 33.2031 14.0625 33.2031H23.4375C30.6406 33.2031 33.2031 30.6406 33.2031 23.4375V14.0625C33.2031 6.85937 30.6406 4.29688 23.4375 4.29688H14.0625Z" fill="#1560BD"/>
</svg>
