<svg width="17" height="17" viewBox="0 0 17 17" fill="none" xmlns="http://www.w3.org/2000/svg">
<path d="M14.7176 14.1919H7.70922C7.42188 14.1919 7.18359 13.9536 7.18359 13.6662C7.18359 13.3789 7.42188 13.1406 7.70922 13.1406H14.7176C15.0049 13.1406 15.2432 13.3789 15.2432 13.6662C15.2432 13.9536 15.0049 14.1919 14.7176 14.1919Z" fill="#1560BD"/>
<path d="M14.7176 9.28562H7.70922C7.42188 9.28562 7.18359 9.04734 7.18359 8.76C7.18359 8.47266 7.42188 8.23438 7.70922 8.23438H14.7176C15.0049 8.23438 15.2432 8.47266 15.2432 8.76C15.2432 9.04734 15.0049 9.28562 14.7176 9.28562Z" fill="#1560BD"/>
<path d="M14.7176 4.37937H7.70922C7.42188 4.37937 7.18359 4.14109 7.18359 3.85375C7.18359 3.56641 7.42188 3.32812 7.70922 3.32812H14.7176C15.0049 3.32812 15.2432 3.56641 15.2432 3.85375C15.2432 4.14109 15.0049 4.37937 14.7176 4.37937Z" fill="#1560BD"/>
<path d="M2.80283 5.08169C2.66967 5.08169 2.53651 5.03263 2.43139 4.9275L1.73056 4.22667C1.52731 4.02343 1.52731 3.68703 1.73056 3.48379C1.9338 3.28054 2.2702 3.28054 2.47344 3.48379L2.80283 3.81318L4.53389 2.08212C4.73713 1.87888 5.07353 1.87888 5.27677 2.08212C5.48001 2.28536 5.48001 2.62176 5.27677 2.825L3.17427 4.9275C3.06915 5.03263 2.93599 5.08169 2.80283 5.08169Z" fill="#1560BD"/>
<path d="M2.80283 9.98598C2.66967 9.98598 2.53651 9.93692 2.43139 9.8318L1.73056 9.13097C1.52731 8.92772 1.52731 8.59132 1.73056 8.38808C1.9338 8.18484 2.2702 8.18484 2.47344 8.38808L2.80283 8.71747L4.53389 6.98642C4.73713 6.78317 5.07353 6.78317 5.27677 6.98642C5.48001 7.18966 5.48001 7.52606 5.27677 7.7293L3.17427 9.8318C3.06915 9.93692 2.93599 9.98598 2.80283 9.98598Z" fill="#1560BD"/>
<path d="M2.80283 14.8922C2.66967 14.8922 2.53651 14.8432 2.43139 14.738L1.73056 14.0372C1.52731 13.834 1.52731 13.4976 1.73056 13.2943C1.9338 13.0911 2.2702 13.0911 2.47344 13.2943L2.80283 13.6237L4.53389 11.8927C4.73713 11.6894 5.07353 11.6894 5.27677 11.8927C5.48001 12.0959 5.48001 12.4323 5.27677 12.6355L3.17427 14.738C3.06915 14.8432 2.93599 14.8922 2.80283 14.8922Z" fill="#1560BD"/>
</svg>
