<svg width="30" height="30" viewBox="0 0 30 30" fill="none" xmlns="http://www.w3.org/2000/svg">
<path fill-rule="evenodd" clip-rule="evenodd" d="M15.0171 29.3036C7.01892 29.3036 0.535156 22.8199 0.535156 14.8217C0.535156 6.82361 7.01892 0.339844 15.0171 0.339844C23.0152 0.339844 29.499 6.82361 29.499 14.8217C29.499 22.8199 23.0152 29.3036 15.0171 29.3036ZM15.6433 11.2079C14.3462 11.7474 11.754 12.864 7.86654 14.5577C7.23528 14.8087 6.9046 15.0543 6.8745 15.2945C6.82362 15.7003 7.33182 15.8601 8.02387 16.0777C8.11801 16.1073 8.21554 16.138 8.31554 16.1705C8.99641 16.3918 9.91229 16.6507 10.3884 16.661C10.8203 16.6703 11.3024 16.4923 11.8346 16.1268C15.4667 13.675 17.3417 12.4358 17.4594 12.409C17.5424 12.3902 17.6575 12.3665 17.7355 12.4358C17.8134 12.5051 17.8058 12.6363 17.7975 12.6716C17.7472 12.8862 15.7523 14.7408 14.7199 15.7006C14.3981 15.9998 14.1698 16.212 14.1231 16.2605C14.0186 16.3691 13.912 16.4718 13.8096 16.5705C13.1771 17.1803 12.7028 17.6376 13.8359 18.3843C14.3804 18.7431 14.8162 19.0399 15.2509 19.3359C15.7257 19.6592 16.1992 19.9817 16.8118 20.3833C16.9679 20.4856 17.117 20.5919 17.2622 20.6954C17.8147 21.0893 18.3111 21.4432 18.9243 21.3867C19.2806 21.3539 19.6487 21.0189 19.8356 20.0196C20.2774 17.6579 21.1458 12.5409 21.3464 10.4323C21.364 10.2476 21.3419 10.0112 21.3241 9.90738C21.3064 9.80359 21.2693 9.65572 21.1344 9.54625C20.9746 9.41661 20.7279 9.38927 20.6176 9.39112C20.1161 9.40005 19.3466 9.66762 15.6433 11.2079Z" fill="#FAFAFA"/>
</svg>
