<svg width="47" height="47" viewBox="0 0 47 47" fill="none" xmlns="http://www.w3.org/2000/svg">
<path d="M23.5 44.416C12.0106 44.416 2.67188 35.0773 2.67188 23.5879C2.67188 12.0985 12.0106 2.75977 23.5 2.75977C34.9894 2.75977 44.3281 12.0985 44.3281 23.5879C44.3281 35.0773 34.9894 44.416 23.5 44.416ZM23.5 5.66602C13.6188 5.66602 5.57812 13.7066 5.57812 23.5879C5.57812 33.4691 13.6188 41.5098 23.5 41.5098C33.3813 41.5098 41.4219 33.4691 41.4219 23.5879C41.4219 13.7066 33.3813 5.66602 23.5 5.66602Z" fill="#1560BD"/>
<path d="M20.7478 30.5238C20.3603 30.5238 19.9922 30.3687 19.7209 30.0975L14.2378 24.6144C13.6759 24.0525 13.6759 23.1225 14.2378 22.5606C14.7997 21.9988 15.7297 21.9988 16.2916 22.5606L20.7478 27.0169L30.7066 17.0581C31.2684 16.4963 32.1984 16.4963 32.7603 17.0581C33.3222 17.62 33.3222 18.55 32.7603 19.1119L21.7747 30.0975C21.5034 30.3687 21.1353 30.5238 20.7478 30.5238Z" fill="#1560BD"/>
</svg>
