<svg width="38" height="38" viewBox="0 0 38 38" fill="none" xmlns="http://www.w3.org/2000/svg">
<path fill-rule="evenodd" clip-rule="evenodd" d="M1.85548 31.8387C2.40313 31.9663 2.82867 32.1275 3.46684 32.2312C7.31773 32.857 10.9539 32.8666 14.8365 32.4999C15.6643 32.4217 17.6817 32.1148 18.2572 31.8387V34.8073C18.0647 34.8522 18.0291 34.8877 17.8686 34.9381C17.686 34.9955 17.5908 35.0218 17.4096 35.0729C15.1631 35.706 12.3931 35.7628 10.0866 35.8316L6.82678 35.6991C5.86087 35.6913 3.7406 35.3568 2.76078 35.0895C2.47063 35.0103 2.17047 34.8807 1.85548 34.8073V31.8387ZM1.85548 17.2925C3.16186 17.9193 7.1272 18.187 8.90608 18.1829C9.66585 18.1812 9.72255 18.245 10.0235 18.2537C10.2956 18.2615 10.6415 18.1803 11.0578 18.1825C11.4519 18.1846 11.8556 18.1909 12.2487 18.1861C13.6092 18.1693 17.3616 17.7223 18.2572 17.2925V29.835C15.6114 31.235 4.50142 31.235 1.85548 29.835V17.2925ZM3.63669 11.5779H16.476C18.7428 11.5779 18.2572 13.9776 18.2572 15.3629C17.66 15.502 17.4252 15.6559 16.4453 15.8517C13.0921 16.522 7.12239 16.5452 3.72903 15.8642C2.73516 15.6647 2.49209 15.5112 1.85535 15.363C1.85535 14.6319 1.73518 13.2556 1.93494 12.6965C2.15915 12.0683 2.77105 11.578 3.63656 11.578L3.63669 11.5779ZM7.94121 7.05073C7.94121 5.41088 10.2022 4.29684 11.5618 5.65655C12.4277 6.52258 12.1715 8.17973 12.1715 9.72242H7.94121V7.0506V7.05073ZM6.75369 0.742476V1.18778C6.75369 1.41824 7.19119 1.85574 7.42164 1.85574H9.1286V3.34004C8.34542 3.4052 7.40721 4.13584 6.99715 4.6225C5.83304 6.00406 6.08573 7.79802 6.08573 9.72255C3.91943 9.72255 2.58794 9.4393 1.15488 10.6548C0.617495 11.1106 0 12.1092 0 13.0623V35.1786C0 35.9132 1.03289 36.4618 1.62307 36.6725C3.40337 37.3082 5.70324 37.4629 7.64807 37.6237L9.27985 37.6247C9.66845 37.6295 9.70161 37.697 10.0212 37.7046C10.3671 37.713 10.3524 37.6456 10.6866 37.6273L12.9874 37.5531C14.4843 37.476 20.1124 37.1065 20.1124 35.1785V12.9879C20.1124 11.8868 19.1927 10.6608 18.4571 10.2645C17.0542 9.50887 15.8676 9.72242 14.0267 9.72242C14.0267 7.75913 14.3155 5.9692 13.0805 4.58283C12.6433 4.09201 11.7964 3.40741 10.9838 3.33978V1.85548H15.2883C16.2503 1.85548 16.5965 0 14.843 0H7.94095C7.28197 0 6.75343 0.379497 6.75343 0.742216L6.75369 0.742476Z" fill="#1560BD"/>
<path fill-rule="evenodd" clip-rule="evenodd" d="M21.6737 16.0348C21.6737 17.3397 22.7778 17.0783 23.6814 17.0034C25.2618 16.8726 30.1788 17.1185 31.484 17.2827C32.3557 17.3922 33.8814 17.6014 34.7213 17.8303C35.0126 17.9098 35.3856 18.0394 35.7006 18.1128V18.2612C35.3948 18.2867 35.0536 18.443 34.707 18.5294C31.5623 19.3123 27.5384 19.4187 24.1941 19.3774C23.1729 19.3648 21.6737 18.8463 21.6737 20.3393C21.6737 20.6327 21.881 20.8537 22.0627 20.9893C22.3274 21.1869 23.5826 21.2091 23.9741 21.2302C26.1354 21.347 29.7679 21.0895 31.7608 20.9266C33.7343 20.7654 34.5109 20.4233 36.1458 20.0424V21.5267C35.9191 21.5872 35.9961 21.5985 35.7279 21.7025L34.1731 22.1516C30.5014 22.8752 28.4511 22.8625 24.6423 22.8625C23.693 22.8625 22.4429 22.6476 22.0127 22.9789C21.4178 23.4369 21.5467 24.6349 22.6346 24.6475C23.2779 24.6549 23.7182 24.718 24.4196 24.718C27.3171 24.718 30.1966 24.718 33.0069 24.2509C33.8899 24.1042 34.1976 24.0812 35.1228 23.8435C35.3713 23.7796 35.9647 23.6173 36.1458 23.5306V32.2139C35.3462 32.7493 32.5283 33.2506 31.3935 33.3246C30.541 33.3802 29.5902 33.5033 28.7245 33.5502C28.2444 33.576 27.7196 33.5235 27.2394 33.5495C25.3209 33.6532 25.0921 33.5496 23.3806 33.5499C22.9243 33.55 21.6994 33.3305 21.6418 34.3754C21.6249 34.6821 21.7925 35.0264 22.0274 35.1999C22.2763 35.3838 22.6604 35.4094 23.0819 35.4071C24.445 35.3994 25.9796 35.5755 27.399 35.4162C28.2016 35.326 30.0327 35.3573 31.0564 35.2143C31.6853 35.1264 32.1872 35.1148 32.7849 35.0134C33.8147 34.8386 38.001 34.282 38.001 32.5852V18.1132C38.001 17.1819 37.0039 16.6767 36.3057 16.3945C35.5713 16.0976 34.4067 15.8127 33.5265 15.6856C29.6729 15.1291 28.1991 15.1446 24.4195 15.1446C23.7513 15.1446 23.297 15.2179 22.7101 15.2164C22.1862 15.2149 21.6735 15.4519 21.6735 16.0352L21.6737 16.0348Z" fill="#1560BD"/>
<path fill-rule="evenodd" clip-rule="evenodd" d="M18.3322 5.27287C18.3322 3.86816 19.4393 2.60521 19.5196 2.30426C20.5388 2.98679 21.7267 6.83143 19.5938 6.83143C18.763 6.83143 18.3322 6.0926 18.3322 5.27287ZM16.4767 5.12448C16.4767 6.28482 16.8711 7.25684 17.5607 7.89969L18.1674 8.33199C20.7786 9.85115 24.7586 6.56066 21.3616 1.57531C21.1225 1.2243 20.31 0.264633 19.9238 0.11351C18.7702 -0.338166 17.3971 2.12362 17.0903 2.84373C16.8278 3.45979 16.4766 4.43949 16.4766 5.12448H16.4767Z" fill="#1560BD"/>
<path fill-rule="evenodd" clip-rule="evenodd" d="M10.0948 23.9023C8.79697 23.9023 8.32566 21.6758 10.2432 21.6758C10.9881 21.6758 11.5516 22.8452 10.8574 23.5518C10.7118 23.7001 10.3459 23.9023 10.0946 23.9023H10.0948ZM10.3916 19.8204C9.3865 19.8204 8.47366 19.9748 7.82339 20.8147C7.35402 21.4209 7.0575 22.0146 7.10692 22.89C7.26052 25.6113 10.4155 26.5684 12.0816 24.9244C12.6118 24.4012 12.9117 23.9239 13.0255 22.969C13.2183 21.3518 11.6714 19.8203 10.3914 19.8203L10.3916 19.8204Z" fill="#1560BD"/>
<path fill-rule="evenodd" clip-rule="evenodd" d="M27.3115 27.9103C28.786 27.9103 28.8339 30.1368 27.3115 30.1368C25.8213 30.1368 25.9208 27.9103 27.3115 27.9103ZM27.0147 31.9922C28.0187 31.9922 28.6205 31.8984 29.4003 31.1865C29.8041 30.8176 30.2802 29.9416 30.2802 29.3946V28.8009C30.2802 26.6382 27.2437 25.0058 25.3145 26.8781C24.699 27.4754 24.503 27.958 24.3802 28.8441C24.2561 29.7394 24.7114 30.46 25.0831 30.955C25.389 31.3624 26.3214 31.9922 27.0146 31.9922H27.0147Z" fill="#1560BD"/>
<path fill-rule="evenodd" clip-rule="evenodd" d="M6.53125 27.9798C6.53125 28.8485 7.12091 29.0262 7.86534 29.0206C8.67336 29.0145 9.20073 29.093 10.0194 29.093C10.4831 29.093 12.7723 29.0536 13.0887 28.8968C13.9652 28.4624 13.5811 27.1634 12.7654 27.1634L10.7654 27.1673C9.37032 27.2829 9.99692 27.1634 8.68351 27.1634C8.03467 27.1634 6.53125 26.9469 6.53125 27.9798Z" fill="#1560BD"/>
</svg>
