<svg width="17" height="17" viewBox="0 0 17 17" fill="none" xmlns="http://www.w3.org/2000/svg">
<path d="M12.041 16.1152H4.95768C1.83393 16.1152 0.884766 15.1661 0.884766 12.0423V10.6257C0.884766 7.5019 1.83393 6.55273 4.95768 6.55273H12.041C15.1648 6.55273 16.1139 7.5019 16.1139 10.6257V12.0423C16.1139 15.1661 15.1648 16.1152 12.041 16.1152ZM4.95768 7.61523C2.42185 7.61523 1.94727 8.0969 1.94727 10.6257V12.0423C1.94727 14.5711 2.42185 15.0527 4.95768 15.0527H12.041C14.5768 15.0527 15.0514 14.5711 15.0514 12.0423V10.6257C15.0514 8.0969 14.5768 7.61523 12.041 7.61523H4.95768Z" fill="#1560BD"/>
<path d="M4.25 7.61393C3.95958 7.61393 3.71875 7.3731 3.71875 7.08268V5.66602C3.71875 3.61185 4.21458 0.884766 8.5 0.884766C11.6733 0.884766 13.2812 2.25185 13.2812 4.95768C13.2812 5.2481 13.0404 5.48893 12.75 5.48893C12.4596 5.48893 12.2188 5.2481 12.2188 4.95768C12.2188 3.55518 11.7937 1.94727 8.5 1.94727C5.41167 1.94727 4.78125 3.43477 4.78125 5.66602V7.08268C4.78125 7.3731 4.54042 7.61393 4.25 7.61393Z" fill="#1560BD"/>
<path d="M8.49935 13.6354C7.23143 13.6354 6.19727 12.6013 6.19727 11.3333C6.19727 10.0654 7.23143 9.03125 8.49935 9.03125C9.76727 9.03125 10.8014 10.0654 10.8014 11.3333C10.8014 12.6013 9.76727 13.6354 8.49935 13.6354ZM8.49935 10.0938C7.81935 10.0938 7.25977 10.6533 7.25977 11.3333C7.25977 12.0133 7.81935 12.5729 8.49935 12.5729C9.17935 12.5729 9.73893 12.0133 9.73893 11.3333C9.73893 10.6533 9.17935 10.0938 8.49935 10.0938Z" fill="#1560BD"/>
</svg>
