<svg width="28" height="28" viewBox="0 0 28 28" fill="none" xmlns="http://www.w3.org/2000/svg">
<path d="M14.0001 26.553C12.7285 26.553 11.4685 26.1797 10.4768 25.4447L5.46013 21.6997C4.13013 20.708 3.0918 18.6314 3.0918 16.9864V8.30635C3.0918 6.50969 4.41013 4.59635 6.1018 3.96635L11.9235 1.78469C13.0785 1.35302 14.8985 1.35302 16.0535 1.78469L21.8751 3.96635C23.5668 4.59635 24.8851 6.50969 24.8851 8.30635V16.9747C24.8851 18.6314 23.8468 20.6964 22.5168 21.688L17.5001 25.433C16.5318 26.1797 15.2718 26.553 14.0001 26.553ZM12.5418 3.42969L6.72013 5.61135C5.72846 5.98469 4.85346 7.24469 4.85346 8.31802V16.9864C4.85346 18.0947 5.63513 19.6464 6.51013 20.2997L11.5268 24.0447C12.8685 25.048 15.1318 25.048 16.4851 24.0447L21.5018 20.2997C22.3885 19.6347 23.1585 18.0947 23.1585 16.9864V8.30635C23.1585 7.24469 22.2835 5.98469 21.2918 5.59969L15.4701 3.41802C14.6768 3.13802 13.3235 3.13802 12.5418 3.42969Z" fill="#E31E24"/>
<path d="M16.5082 16.555C16.2865 16.555 16.0648 16.4734 15.8898 16.2984L10.9315 11.34C10.5932 11.0017 10.5932 10.4417 10.9315 10.1034C11.2698 9.76503 11.8298 9.76503 12.1682 10.1034L17.1265 15.0617C17.4648 15.4 17.4648 15.96 17.1265 16.2984C16.9515 16.4617 16.7298 16.555 16.5082 16.555Z" fill="#E31E24"/>
<path d="M11.4912 16.6019C11.2696 16.6019 11.0479 16.5202 10.8729 16.3452C10.5346 16.0069 10.5346 15.4469 10.8729 15.1086L15.8312 10.1502C16.1696 9.8119 16.7296 9.8119 17.0679 10.1502C17.4062 10.4886 17.4062 11.0486 17.0679 11.3869L12.1096 16.3452C11.9462 16.5202 11.7129 16.6019 11.4912 16.6019Z" fill="#E31E24"/>
</svg>
