<svg width="26" height="26" viewBox="0 0 15 16" fill="none" xmlns="http://www.w3.org/2000/svg">
<path d="M11.2249 15.0112C10.8654 15.0112 10.4041 14.8959 9.82756 14.5567L7.79942 13.3561C7.58914 13.234 7.18216 13.234 6.97866 13.3561L4.94374 14.5567C3.74313 15.2689 3.03769 14.9841 2.71888 14.7534C2.40686 14.5228 1.91848 13.9327 2.23729 12.5761L2.71888 10.4937C2.77315 10.2766 2.66462 9.90353 2.50183 9.74073L0.81962 8.05853C-0.0214827 7.21742 0.0463483 6.49841 0.161661 6.14569C0.276973 5.79297 0.64326 5.16893 1.80995 4.97222L3.97376 4.61272C4.17725 4.5788 4.46892 4.36174 4.5571 4.1786L5.75771 1.78417C6.30036 0.692091 7.01258 0.529297 7.38565 0.529297C7.75872 0.529297 8.47094 0.692091 9.01359 1.78417L10.2074 4.17182C10.3024 4.35496 10.5941 4.57202 10.7975 4.60593L12.9613 4.96544C14.1348 5.16215 14.5011 5.78619 14.6096 6.13891C14.7182 6.49163 14.786 7.21064 13.9517 8.05174L12.2695 9.74073C12.1067 9.90353 12.0049 10.2698 12.0524 10.4937L12.534 12.5761C12.846 13.9327 12.3644 14.5228 12.0524 14.7534C11.8828 14.8755 11.6115 15.0112 11.2249 15.0112ZM7.38565 12.2437C7.71802 12.2437 8.05039 12.3251 8.31493 12.4811L10.3431 13.6817C10.9332 14.0344 11.3063 14.0344 11.4487 13.9327C11.5912 13.8309 11.6929 13.4714 11.5437 12.8067L11.0621 10.7243C10.9332 10.1613 11.1435 9.43549 11.5505 9.02172L13.2327 7.33952C13.565 7.00715 13.7143 6.68156 13.6464 6.45772C13.5718 6.23387 13.2598 6.05073 12.7986 5.97612L10.6347 5.61661C10.1125 5.52843 9.54267 5.10788 9.30526 4.63307L8.11144 2.24542C7.89438 1.8113 7.62306 1.55354 7.38565 1.55354C7.14824 1.55354 6.87692 1.8113 6.66664 2.24542L5.46604 4.63307C5.22863 5.10788 4.65885 5.52843 4.13655 5.61661L1.97953 5.97612C1.51828 6.05073 1.20626 6.23387 1.13164 6.45772C1.05703 6.68156 1.21304 7.01393 1.54541 7.33952L3.22762 9.02172C3.6346 9.42871 3.84488 10.1613 3.716 10.7243L3.2344 12.8067C3.07839 13.4782 3.18692 13.8309 3.32936 13.9327C3.47181 14.0344 3.83809 14.0276 4.43501 13.6817L6.46315 12.4811C6.72091 12.3251 7.05328 12.2437 7.38565 12.2437Z" fill="#1560BD"/>
</svg>
