<svg width="160" height="160" viewBox="0 0 160 160" fill="none" xmlns="http://www.w3.org/2000/svg">
<g clip-path="url(#clip0_118_51609)">
<path d="M80 160C124.183 160 160 124.183 160 80C160 35.8172 124.183 0 80 0C35.8172 0 0 35.8172 0 80C0 124.183 35.8172 160 80 160Z" fill="#9AB2CF"/>
<mask id="mask0_118_51609" style="mask-type:luminance" maskUnits="userSpaceOnUse" x="0" y="0" width="160" height="160">
<path d="M80 160C124.183 160 160 124.183 160 80C160 35.8172 124.183 0 80 0C35.8172 0 0 35.8172 0 80C0 124.183 35.8172 160 80 160Z" fill="white"/>
</mask>
<g mask="url(#mask0_118_51609)">
<path d="M134.068 92.4923C127.308 105.346 109.86 118.199 79.9984 118.199C50.1384 118.199 32.6884 105.347 25.9297 92.4935C25.9297 92.4935 37.7172 73.7785 39.4472 66.7885C44.5947 46.0635 57.6109 28.2285 79.9984 28.2285C102.398 28.2285 115.403 46.0635 120.55 66.786C122.292 73.7773 134.068 92.4923 134.068 92.4923Z" fill="#D9D9D9"/>
<path d="M120.55 66.786C115.403 46.0635 102.398 28.2285 79.9984 28.2285C78.8447 28.2285 77.7234 28.2873 76.6197 28.3798C96.9547 30.0848 108.912 47.131 113.793 66.7873C115.536 73.7785 127.31 92.4923 127.31 92.4923C120.813 104.849 104.402 117.167 76.6172 118.105C77.7372 118.144 78.8397 118.197 79.9959 118.197C109.858 118.197 127.307 105.346 134.066 92.4923C134.068 92.4923 122.292 73.7773 120.55 66.786Z" fill="#494949"/>
<path d="M148.83 145.225C144.819 128.123 120.959 121.578 111.389 119.185C101.818 116.793 92.4551 117.143 79.9976 117.143C67.5401 117.143 58.1764 116.793 48.6064 119.185C39.0364 121.578 15.1764 128.123 11.1651 145.225C7.15386 162.328 7.78636 185.978 7.78636 199.278C37.0426 199.278 79.9989 207.725 79.9989 207.725C79.9989 207.725 122.955 199.278 152.213 199.278C152.21 185.975 152.841 162.327 148.83 145.225Z" fill="#D9D9D9"/>
<path d="M148.828 145.226C144.817 128.123 120.957 121.578 111.387 119.186C102.681 117.011 94.1209 117.103 83.2772 117.136C91.0797 117.175 97.8134 117.481 104.631 119.186C114.2 121.578 138.061 128.123 142.072 145.226C146.085 162.328 145.45 185.978 145.45 199.278C121.101 199.278 87.2822 205.126 76.6172 207.088C78.7659 207.483 79.9959 207.726 79.9959 207.726C79.9959 207.726 122.952 199.278 152.208 199.278C152.208 185.976 152.84 162.327 148.828 145.226Z" fill="#D9D9D9"/>
<path d="M73.2422 117.144C74.4034 117.144 75.5097 117.14 76.6197 117.136C74.3034 117.129 72.0909 117.125 69.9609 117.136C71.0397 117.139 72.1147 117.144 73.2422 117.144Z" fill="#D9D9D9"/>
<path d="M79.9959 128.333C76.5459 128.389 68.4172 125.899 68.4172 125.899L65.0234 100.883H94.9672L91.6597 125.29C91.6597 125.29 83.5459 128.275 79.9959 128.333Z" fill="#D9D9D9"/>
<path d="M89.9041 100.883L86.5966 125.289C86.5966 125.289 81.1203 127.3 77.1953 128.05C78.2628 128.23 79.2453 128.342 79.9991 128.332C83.5491 128.273 91.6616 125.289 91.6616 125.289L94.9691 100.883H89.9041Z" fill="#494949"/>
<path d="M51.7031 83.1133C53.0838 83.1133 54.2031 81.994 54.2031 80.6133C54.2031 79.2326 53.0838 78.1133 51.7031 78.1133C50.3224 78.1133 49.2031 79.2326 49.2031 80.6133C49.2031 81.994 50.3224 83.1133 51.7031 83.1133Z" fill="#D9D9D9"/>
<path d="M107.852 83.1133C109.232 83.1133 110.352 81.994 110.352 80.6133C110.352 79.2326 109.232 78.1133 107.852 78.1133C106.471 78.1133 105.352 79.2326 105.352 80.6133C105.352 81.994 106.471 83.1133 107.852 83.1133Z" fill="#D9D9D9"/>
<path d="M79.9969 111.582C95.6231 111.582 108.291 96.4257 108.291 77.7287C108.291 59.0318 95.6231 43.875 79.9969 43.875C64.3707 43.875 51.7031 59.0318 51.7031 77.7287C51.7031 96.4257 64.3707 111.582 79.9969 111.582Z" fill="#FAFAFA"/>
<path d="M79.9947 43.875C79.1384 43.875 78.2972 43.9388 77.4609 44.0288C91.8984 45.5638 103.221 60.0563 103.221 77.7288C103.221 95.4012 91.8959 109.894 77.4609 111.427C78.2972 111.516 79.1397 111.581 79.9947 111.581C95.6209 111.581 108.288 96.425 108.288 77.7275C108.288 59.0325 95.6209 43.875 79.9947 43.875Z" fill="#494949"/>
<path d="M98.1526 48.7313C98.1526 65.2013 51.7026 50.6325 51.7026 80.6137C51.7026 80.6137 48.9576 36.0625 79.9964 36.0625C93.5139 36.0625 98.1526 48.7313 98.1526 48.7313Z" fill="#D9D9D9"/>
<path d="M93.3255 112.145C93.3255 118.365 87.3605 126.785 79.9967 126.785C72.6355 126.785 66.668 118.365 66.668 112.145C63.1117 113.555 50.7992 117.073 48.6055 119.185C50.3767 127.066 66.353 141.142 71.0255 141.282C71.2655 136.92 73.7567 131.218 76.0317 130.162C77.4667 130.162 78.8167 130.445 79.998 130.445C81.178 130.445 82.528 130.162 83.9642 130.162C86.2392 131.218 88.7305 136.918 88.9717 141.282C93.6417 141.143 109.619 127.066 111.392 119.185C109.193 117.073 96.8842 113.556 93.3255 112.145Z" fill="#494949"/>
<path d="M79.3197 130.413C79.1784 130.313 79.0359 130.23 78.8934 130.164C78.4034 130.164 77.9297 130.2 77.4609 130.243C78.1097 130.303 78.7309 130.372 79.3197 130.413Z" fill="#CCCCCC"/>
<path d="M79.3188 126.761C72.13 125.192 66.6663 117.631 66.6663 112.145C65.6238 112.558 63.8238 113.157 61.75 113.841C62.68 119.791 71.365 126.96 79.3188 126.761Z" fill="#FAFAFA"/>
<path d="M71.4206 131.157C69.5781 132.194 66.9819 135.245 66.2344 139.152C68.2269 140.441 69.9406 141.251 71.0269 141.284C71.2531 137.192 73.8819 131.674 76.0331 130.164C75.8044 130.179 73.5781 129.942 71.4206 131.157Z" fill="#FAFAFA"/>
<path d="M93.3253 112.145C93.3253 112.693 93.2603 113.265 93.1728 113.841C98.1703 115.497 104.769 117.69 106.32 119.183C104.963 125.228 95.2553 134.9 88.6953 139.15C88.8316 139.877 88.9316 140.597 88.9716 141.283C93.6403 141.143 109.617 127.065 111.389 119.183C109.193 117.073 96.8841 113.556 93.3253 112.145Z" fill="#FAFAFA"/>
<path d="M79.9959 153.531C81.862 153.531 83.3747 152.018 83.3747 150.152C83.3747 148.286 81.862 146.773 79.9959 146.773C78.1299 146.773 76.6172 148.286 76.6172 150.152C76.6172 152.018 78.1299 153.531 79.9959 153.531Z" fill="#494949"/>
</g>
</g>
<defs>
<clipPath id="clip0_118_51609">
<rect width="160" height="160" fill="white"/>
</clipPath>
</defs>
</svg>
