<svg width="26" height="26" viewBox="0 0 26 26" fill="none" xmlns="http://www.w3.org/2000/svg">
<path d="M19.8505 26C19.2094 26 18.3869 25.793 17.3586 25.1841L13.7418 23.0286C13.3668 22.8094 12.641 22.8094 12.2781 23.0286L8.64915 25.1841C6.50807 26.4628 5.25003 25.9513 4.6815 25.5372C4.12506 25.1232 3.25411 24.0637 3.82264 21.6281L4.6815 17.8895C4.77827 17.4998 4.58472 16.83 4.29441 16.5377L1.29447 13.5176C-0.205498 12.0075 -0.0845331 10.7166 0.121108 10.0834C0.326749 9.45012 0.979961 8.32974 3.06056 7.97658L6.91935 7.33115C7.28225 7.27026 7.8024 6.88056 7.95965 6.55176L10.1007 2.25293C11.0685 0.292272 12.3386 0 13.0039 0C13.6692 0 14.9393 0.292272 15.9071 2.25293L18.0361 6.53958C18.2054 6.86838 18.7256 7.25808 19.0885 7.31897L22.9472 7.9644C25.0399 8.31756 25.6931 9.43794 25.8867 10.0712C26.0802 10.7045 26.2012 11.9953 24.7133 13.5054L21.7134 16.5377C21.4231 16.83 21.2416 17.4876 21.3263 17.8895L22.1852 21.6281C22.7416 24.0637 21.8827 25.1232 21.3263 25.5372C21.0239 25.7564 20.54 26 19.8505 26Z" fill="#155AAE"/>
</svg>
