<svg width="29" height="30" viewBox="0 0 29 30" fill="none" xmlns="http://www.w3.org/2000/svg">
<path fill-rule="evenodd" clip-rule="evenodd" d="M28.999 14.8217C28.999 6.82361 22.5152 0.339844 14.5171 0.339844C6.51892 0.339844 0.0351562 6.82361 0.0351562 14.8217C0.0351562 22.8199 6.51892 29.3036 14.5171 29.3036C22.5152 29.3036 28.999 22.8199 28.999 14.8217ZM8.28984 8.59453C7.27611 9.61791 7.27611 11.2544 7.27611 14.5321V15.1114C7.27611 18.3843 7.27611 20.0207 8.28984 21.049C9.31323 22.0627 10.9497 22.0627 14.2274 22.0627H14.8067C18.0796 22.0627 19.7161 22.0627 20.7443 21.049C21.758 20.0256 21.758 18.3891 21.758 15.1114V14.5321C21.758 11.2592 21.758 9.62274 20.7443 8.59453C19.7209 7.58079 18.0844 7.58079 14.8067 7.58079H14.2274C10.9545 7.58079 9.31805 7.58079 8.28984 8.59453Z" fill="#FAFAFA"/>
<path d="M14.9805 18.0126C11.6786 18.0126 9.79596 15.7534 9.71872 11.9881H11.3793C11.4324 14.7493 12.6489 15.9176 13.6144 16.1589V11.9881H15.1736V14.368C16.1245 14.2666 17.1286 13.1805 17.4665 11.9833H19.0209C18.8942 12.603 18.641 13.1899 18.2772 13.7074C17.9134 14.2248 17.4468 14.6617 16.9066 14.9907C17.5095 15.2908 18.0419 15.7153 18.4688 16.2361C18.8956 16.757 19.2072 17.3625 19.383 18.0126H17.6693C17.3024 16.8685 16.3852 15.9803 15.1736 15.8596V18.0126H14.9805Z" fill="#FAFAFA"/>
</svg>
