<svg width="47" height="47" viewBox="0 0 47 47" fill="none" xmlns="http://www.w3.org/2000/svg">
<path d="M13.8915 44.078C9.28024 44.078 5.5022 40.7262 5.5022 36.5993V32.6467C5.5022 31.8524 6.16095 31.1936 6.95532 31.1936C7.7497 31.1936 8.40845 31.8524 8.40845 32.6467C8.40845 35.0686 10.7527 36.8899 13.8915 36.8899C17.0302 36.8899 19.3746 35.0686 19.3746 32.6467C19.3746 31.8524 20.0334 31.1936 20.8278 31.1936C21.6221 31.1936 22.2809 31.8524 22.2809 32.6467V36.5993C22.2809 40.7262 18.5221 44.078 13.8915 44.078ZM8.9121 38.498C9.7646 40.0868 11.6827 41.1718 13.8915 41.1718C16.1002 41.1718 18.0184 40.0674 18.8709 38.498C17.4953 39.3311 15.7902 39.8155 13.8915 39.8155C11.9927 39.8155 10.2877 39.3311 8.9121 38.498Z" fill="#1560BD"/>
<path d="M13.8915 34.4873C10.714 34.4873 7.86593 33.0341 6.45155 30.7285C5.83155 29.721 5.5022 28.5391 5.5022 27.3379C5.5022 25.3035 6.39342 23.4048 8.02092 21.9904C11.1597 19.2391 16.5653 19.2392 19.7234 21.9711C21.3509 23.4049 22.2615 25.3035 22.2615 27.3379C22.2615 28.5391 21.9321 29.721 21.3121 30.7285C19.9171 33.0341 17.069 34.4873 13.8915 34.4873ZM13.8915 22.7654C12.3802 22.7654 10.9853 23.2691 9.93903 24.1798C8.9509 25.0323 8.40845 26.156 8.40845 27.3379C8.40845 28.016 8.58274 28.6361 8.93149 29.2173C9.82274 30.6898 11.7215 31.6004 13.8915 31.6004C16.0615 31.6004 17.9602 30.6898 18.8321 29.2367C19.1808 28.6749 19.3553 28.0354 19.3553 27.3573C19.3553 26.1754 18.8128 25.0516 17.8247 24.1798C16.7978 23.2691 15.4027 22.7654 13.8915 22.7654Z" fill="#1560BD"/>
<path d="M13.8915 39.8156C9.10586 39.8156 5.5022 36.735 5.5022 32.6662V27.3381C5.5022 23.2112 9.26086 19.8594 13.8915 19.8594C16.0809 19.8594 18.1734 20.6151 19.7428 21.9713C21.3703 23.4051 22.2809 25.3037 22.2809 27.3381V32.6662C22.2809 36.735 18.6771 39.8156 13.8915 39.8156ZM13.8915 22.7656C10.869 22.7656 8.40845 24.8193 8.40845 27.3381V32.6662C8.40845 35.0881 10.7527 36.9094 13.8915 36.9094C17.0302 36.9094 19.3746 35.0881 19.3746 32.6662V27.3381C19.3746 26.1562 18.8322 25.0324 17.8441 24.1606C16.7978 23.2693 15.4027 22.7656 13.8915 22.7656Z" fill="#1560BD"/>
<path d="M36.8898 28.6749C33.9642 28.6749 31.4842 26.5049 31.2517 23.7149C31.0967 22.1068 31.678 20.5374 32.8405 19.3943C33.8092 18.3868 35.1848 17.825 36.6379 17.825H40.6873C42.6054 17.8831 44.0779 19.3942 44.0779 21.2542V25.2456C44.0779 27.1056 42.6055 28.6168 40.7455 28.6749H36.8898ZM40.6291 20.7312H36.6573C35.9792 20.7312 35.3592 20.9831 34.9136 21.4481C34.3517 21.9906 34.0805 22.7268 34.158 23.463C34.2548 24.7418 35.4948 25.7687 36.8898 25.7687H40.6873C40.9392 25.7687 41.1717 25.5362 41.1717 25.2456V21.2542C41.1717 20.9636 40.9391 20.7506 40.6291 20.7312Z" fill="#1560BD"/>
<path d="M31.0005 41.1719H26.1567C25.3623 41.1719 24.7036 40.5131 24.7036 39.7188C24.7036 38.9244 25.3623 38.2656 26.1567 38.2656H31.0005C35.9992 38.2656 39.2348 35.03 39.2348 30.0312V28.675H36.8904C33.9648 28.675 31.4849 26.505 31.2524 23.715C31.0974 22.1069 31.6786 20.5375 32.8411 19.3944C33.8099 18.3869 35.1854 17.825 36.6385 17.825H39.2155V16.4688C39.2155 11.935 36.5611 8.81558 32.2599 8.31183C31.7949 8.23433 31.388 8.23438 30.9811 8.23438H13.5436C13.0786 8.23438 12.6329 8.2731 12.1873 8.33123C7.92481 8.87373 5.3092 11.9738 5.3092 16.4688V20.3438C5.3092 21.1381 4.65045 21.7969 3.85608 21.7969C3.0617 21.7969 2.40295 21.1381 2.40295 20.3438V16.4688C2.40295 10.5013 6.08427 6.18064 11.7999 5.46376C12.323 5.38626 12.9236 5.32812 13.5436 5.32812H30.9811C31.4461 5.32812 32.0467 5.3475 32.6667 5.44437C38.3823 6.10312 42.1217 10.4431 42.1217 16.4688V19.2781C42.1217 20.0725 41.463 20.7313 40.6686 20.7313H36.6385C35.9604 20.7313 35.3405 20.9831 34.8949 21.4481C34.333 21.9906 34.0617 22.7268 34.1392 23.4631C34.2361 24.7418 35.4762 25.7687 36.8712 25.7687H40.688C41.4823 25.7687 42.1411 26.4275 42.1411 27.2219V30.0312C42.1411 36.6963 37.6655 41.1719 31.0005 41.1719Z" fill="#1560BD"/>
</svg>
